<svg width="60" height="45" viewBox="0 0 60 45" fill="none" xmlns="http://www.w3.org/2000/svg">
<path d="M53 7V38H7V7H53ZM55 5H5V40H55V5Z" fill="#2CC9DC"/>
<path d="M54 11H6V13H54V11Z" fill="#2CC9DC"/>
<path d="M30 28.6C36.3513 28.6 41.5 27.0778 41.5 25.2C41.5 23.3222 36.3513 21.8 30 21.8C23.6487 21.8 18.5 23.3222 18.5 25.2C18.5 27.0778 23.6487 28.6 30 28.6Z" stroke="#68858C" stroke-width="2" stroke-miterlimit="10"/>
<path d="M30 26.5C32.3196 26.5 34.2 25.918 34.2 25.2C34.2 24.4821 32.3196 23.9 30 23.9C27.6804 23.9 25.8 24.4821 25.8 25.2C25.8 25.918 27.6804 26.5 30 26.5Z" fill="#68858C"/>
<path d="M25.1 22.2C25.1 19.5 27.3 17.3 30 17.3C32.7 17.3 34.9 19.5 34.9 22.2" stroke="#68858C" stroke-width="2" stroke-miterlimit="10"/>
<path d="M26.8 34.2L30 36L33.2 34.1" stroke="#68858C" stroke-width="2" stroke-miterlimit="10"/>
<path d="M30 35V32" stroke="#68858C" stroke-width="2" stroke-miterlimit="10"/>
<path d="M27.8 25.5L22.6 34.1" stroke="#68858C" stroke-width="2" stroke-miterlimit="10"/>
<path d="M32.3 25.5L37.5 34.1" stroke="#68858C" stroke-width="2" stroke-miterlimit="10"/>
<path d="M11.5 10.1C12.0523 10.1 12.5 9.65226 12.5 9.09998C12.5 8.54769 12.0523 8.09998 11.5 8.09998C10.9477 8.09998 10.5 8.54769 10.5 9.09998C10.5 9.65226 10.9477 10.1 11.5 10.1Z" fill="#2CC9DC"/>
<path d="M14.5 10.1C15.0523 10.1 15.5 9.65226 15.5 9.09998C15.5 8.54769 15.0523 8.09998 14.5 8.09998C13.9477 8.09998 13.5 8.54769 13.5 9.09998C13.5 9.65226 13.9477 10.1 14.5 10.1Z" fill="#2CC9DC"/>
<path d="M17.5 10.1C18.0523 10.1 18.5 9.65226 18.5 9.09998C18.5 8.54769 18.0523 8.09998 17.5 8.09998C16.9477 8.09998 16.5 8.54769 16.5 9.09998C16.5 9.65226 16.9477 10.1 17.5 10.1Z" fill="#2CC9DC"/>
</svg>
