<svg width="60" height="45" viewBox="0 0 60 45" fill="none" xmlns="http://www.w3.org/2000/svg">
<path d="M53 7V38H7V7H53ZM55 5H5V40H55V5Z" fill="#2CC9DC"/>
<path d="M54 11H6V13H54V11Z" fill="#2CC9DC"/>
<path d="M11.5 10.1C12.0523 10.1 12.5 9.65226 12.5 9.09998C12.5 8.54769 12.0523 8.09998 11.5 8.09998C10.9477 8.09998 10.5 8.54769 10.5 9.09998C10.5 9.65226 10.9477 10.1 11.5 10.1Z" fill="#2CC9DC"/>
<path d="M14.5 10.1C15.0523 10.1 15.5 9.65226 15.5 9.09998C15.5 8.54769 15.0523 8.09998 14.5 8.09998C13.9477 8.09998 13.5 8.54769 13.5 9.09998C13.5 9.65226 13.9477 10.1 14.5 10.1Z" fill="#2CC9DC"/>
<path d="M17.5 10.1C18.0523 10.1 18.5 9.65226 18.5 9.09998C18.5 8.54769 18.0523 8.09998 17.5 8.09998C16.9477 8.09998 16.5 8.54769 16.5 9.09998C16.5 9.65226 16.9477 10.1 17.5 10.1Z" fill="#2CC9DC"/>
<path d="M21 18H14V25H21V18Z" stroke="#68858C" stroke-width="2" stroke-miterlimit="10"/>
<path d="M14 29H21" stroke="#68858C" stroke-width="2" stroke-miterlimit="10" stroke-linecap="square"/>
<path d="M14 33H21" stroke="#68858C" stroke-width="2" stroke-miterlimit="10" stroke-linecap="square"/>
<path d="M27 29H34" stroke="#68858C" stroke-width="2" stroke-miterlimit="10" stroke-linecap="square"/>
<path d="M27 33H34" stroke="#68858C" stroke-width="2" stroke-miterlimit="10" stroke-linecap="square"/>
<path d="M39 29H46" stroke="#68858C" stroke-width="2" stroke-miterlimit="10" stroke-linecap="square"/>
<path d="M39 33H46" stroke="#68858C" stroke-width="2" stroke-miterlimit="10" stroke-linecap="square"/>
<path d="M46 18H39V25H46V18Z" stroke="#68858C" stroke-width="2" stroke-miterlimit="10"/>
<path d="M34 18H27V25H34V18Z" stroke="#68858C" stroke-width="2" stroke-miterlimit="10"/>
</svg>
