<svg width="61" height="45" viewBox="0 0 61 45" fill="none" xmlns="http://www.w3.org/2000/svg">
<path d="M45.3438 11V21" stroke="#68858C" stroke-width="2" stroke-miterlimit="10"/>
<path d="M42.3438 11V21" stroke="#68858C" stroke-width="2" stroke-miterlimit="10"/>
<path d="M39.3438 11V21" stroke="#68858C" stroke-width="2" stroke-miterlimit="10"/>
<path d="M16.3438 11.4L18.3438 13.3L17.3438 14.7C16.7437 15.5 16.8438 16.5 17.4438 17.2L18.3438 18.2L16.3438 20.5" stroke="#2CC9DC" stroke-width="2" stroke-miterlimit="10" stroke-linecap="round"/>
<path d="M10.3438 14V18" stroke="#2CC9DC" stroke-width="2" stroke-miterlimit="10"/>
<path d="M48.3438 21H16.3438L7.34375 16L16.3438 11H48.3438C51.1437 11 53.3438 13.2 53.3438 16C53.3438 18.8 51.1437 21 48.3438 21Z" stroke="#2CC9DC" stroke-width="2" stroke-miterlimit="10" stroke-linecap="round" stroke-linejoin="round"/>
<path d="M48.8438 26V33" stroke="#68858C" stroke-miterlimit="10"/>
<path d="M46.8438 26V31" stroke="#68858C" stroke-miterlimit="10"/>
<path d="M44.8438 26V31" stroke="#68858C" stroke-miterlimit="10"/>
<path d="M42.8438 26V31" stroke="#68858C" stroke-miterlimit="10"/>
<path d="M40.8438 26V33" stroke="#68858C" stroke-miterlimit="10"/>
<path d="M38.8438 26V31" stroke="#68858C" stroke-miterlimit="10"/>
<path d="M36.8438 26V31" stroke="#68858C" stroke-miterlimit="10"/>
<path d="M34.8438 26V31" stroke="#68858C" stroke-miterlimit="10"/>
<path d="M32.8438 26V33" stroke="#68858C" stroke-miterlimit="10"/>
<path d="M30.8438 26V31" stroke="#68858C" stroke-miterlimit="10"/>
<path d="M28.8438 26V31" stroke="#68858C" stroke-miterlimit="10"/>
<path d="M26.8438 26V31" stroke="#68858C" stroke-miterlimit="10"/>
<path d="M24.8438 26V33" stroke="#68858C" stroke-miterlimit="10"/>
<path d="M22.8438 26V31" stroke="#68858C" stroke-miterlimit="10"/>
<path d="M20.8438 26V31" stroke="#68858C" stroke-miterlimit="10"/>
<path d="M18.8438 26V31" stroke="#68858C" stroke-miterlimit="10"/>
<path d="M16.8438 26V33" stroke="#68858C" stroke-miterlimit="10"/>
<path d="M14.8438 26V31" stroke="#68858C" stroke-miterlimit="10"/>
<path d="M12.8438 26V31" stroke="#68858C" stroke-miterlimit="10"/>
<path d="M10.8438 26V31" stroke="#68858C" stroke-miterlimit="10"/>
<path d="M53.3438 26H7.34375V36H53.3438V26Z" stroke="#2CC9DC" stroke-width="2" stroke-miterlimit="10"/>
</svg>
