<svg width="60" height="45" viewBox="0 0 60 45" fill="none" xmlns="http://www.w3.org/2000/svg">
<path d="M23.2 25.3C23.2 25.3 18.5 34.2 18 34.9C21.1 37 20.9 41 20.9 41H25.6C25.6 41 25.3 36.9 28.5 34.9C27.9 34.3 23.2 25.3 23.2 25.3Z" stroke="#2CC9DC" stroke-width="2" stroke-miterlimit="10"/>
<path d="M23.2 26.2V32.9" stroke="#2CC9DC" stroke-width="2" stroke-miterlimit="10"/>
<path d="M11 3H7V7H11V3Z" stroke="#68858C" stroke-width="2" stroke-miterlimit="10"/>
<path d="M39 3H35V7H39V3Z" stroke="#68858C" stroke-width="2" stroke-miterlimit="10"/>
<path d="M25 17H21V21H25V17Z" stroke="#68858C" stroke-width="2" stroke-miterlimit="10"/>
<path d="M9.80001 20.9C10.7389 20.9 11.5 20.1389 11.5 19.2C11.5 18.2611 10.7389 17.5 9.80001 17.5C8.86112 17.5 8.10001 18.2611 8.10001 19.2C8.10001 20.1389 8.86112 20.9 9.80001 20.9Z" fill="#68858C"/>
<path d="M36.3 20.9C37.2389 20.9 38 20.1389 38 19.2C38 18.2611 37.2389 17.5 36.3 17.5C35.3611 17.5 34.6 18.2611 34.6 19.2C34.6 20.1389 35.3611 20.9 36.3 20.9Z" fill="#68858C"/>
<path d="M10 19H21" stroke="#68858C" stroke-width="2" stroke-miterlimit="10"/>
<path d="M25 19H36" stroke="#68858C" stroke-width="2" stroke-miterlimit="10"/>
<path d="M20.5 18.2C14.4 17.1 9.59999 13.1 8.89999 7" stroke="#68858C" stroke-width="2" stroke-miterlimit="10"/>
<path d="M37.1 7C36.4 13.2 31.7 17.1 25.7 18.3" stroke="#68858C" stroke-width="2" stroke-miterlimit="10"/>
</svg>
