<svg width="350" height="855" viewBox="0 0 350 855" fill="none" xmlns="http://www.w3.org/2000/svg">
<g clip-path="url(#clip0_92_241)">
<path d="M15.1001 261C15.1001 242.8 23.0001 223.7 35.9001 210.9C42.3001 204 49.9001 199.1 58.7001 196.2C67.1001 191.8 76.2001 189.7 86.0001 190.1C104.3 190.9 123.3 196.9 136.1 210.9C148.8 224.8 156.9 241.8 156.9 261C156.9 279.2 149 298.3 136.1 311.1C129.7 318 122.1 322.9 113.3 325.8C104.9 330.2 95.8001 332.3 86.0001 331.9C67.7001 331.1 48.7001 325.1 35.9001 311.1C23.2001 297.2 15.1001 280.2 15.1001 261Z" fill="#E4CED9"/>
<path d="M1.70014 195C1.70014 180.2 14.7001 166 30.0001 166.7C45.4001 167.4 58.3001 179.2 58.3001 195C58.3001 209.8 45.3001 224 30.0001 223.3C14.6001 222.7 1.70013 210.9 1.70014 195Z" fill="#E4CED9"/>
<path d="M-34.2999 135C-34.2999 120.2 -21.2999 106 -5.99988 106.7C9.40012 107.4 22.3001 119.2 22.3001 135C22.3001 149.8 9.30012 164 -5.99988 163.3C-21.3999 162.7 -34.2999 150.9 -34.2999 135Z" fill="#E4CED9"/>
<path d="M-8.09985 75.9999C-8.09985 66.8999 6.1001 66.8999 6.1001 75.9999C6.1001 85.0999 -8.09985 85.0999 -8.09985 75.9999Z" fill="#E4CED9"/>
<path d="M67.9001 173C67.9001 163.9 82.1001 163.9 82.1001 173C82.1001 182.1 67.9001 182.1 67.9001 173Z" fill="#E4CED9"/>
<path d="M116.8 215C116.8 207.3 123.3 200.8 131 200.8C138.7 200.8 145.2 207.3 145.2 215C145.2 222.7 138.7 229.2 131 229.2C123.3 229.2 116.8 222.7 116.8 215Z" fill="#E4CED9"/>
<path d="M0.80011 163C0.800111 155.3 7.30012 148.8 15.0001 148.8C22.7001 148.8 29.2001 155.3 29.2001 163C29.2001 170.7 22.7001 177.2 15.0001 177.2C7.30012 177.2 0.80011 170.7 0.80011 163Z" fill="#E4CED9"/>
<path d="M131.5 497C131.5 486.1 136.2 474.6 144 466.9C151.4 459.5 163.5 454 174.1 454.4C197.1 455.4 216.6 473.1 216.6 496.9C216.6 507.8 211.9 519.3 204.1 527C196.7 534.4 184.6 539.9 174 539.5C151 538.5 131.5 520.8 131.5 497Z" fill="#E4CED9"/>
<path d="M107.6 535.3C107.3 534.6 106.9 534 106.6 533.3C104.5 530 103.4 526.5 103.2 522.8C102.4 519 102.5 515.3 103.7 511.5C104.6 507.8 106.3 504.6 108.8 501.9C110.8 498.8 113.4 496.4 116.8 494.6C119.1 493.6 121.3 492.7 123.6 491.7C128.6 490.3 133.6 490.3 138.7 491.7C141 492.7 143.2 493.6 145.5 494.6C149.8 497.1 153.1 500.5 155.7 504.8C156 505.5 156.4 506.1 156.7 506.8C158.8 510.1 159.9 513.6 160.1 517.3C160.9 521.1 160.8 524.8 159.6 528.6C158.7 532.3 157 535.5 154.5 538.2C152.5 541.3 149.9 543.7 146.5 545.5C144.2 546.5 142 547.4 139.7 548.4C134.7 549.8 129.7 549.8 124.6 548.4C122.3 547.4 120.1 546.5 117.8 545.5C113.5 542.9 110.2 539.5 107.6 535.3Z" fill="#E4CED9"/>
<path d="M149.7 619.325C149.7 604.525 162.7 590.325 178 591.025C193.4 591.725 206.3 603.525 206.3 619.325C206.3 634.125 193.3 648.325 178 647.625C162.6 647.025 149.7 635.225 149.7 619.325Z" fill="#E4CED9"/>
<path d="M118.7 619.325C118.7 604.525 131.7 590.325 147 591.025C162.4 591.725 175.3 603.525 175.3 619.325C175.3 634.125 162.3 648.325 147 647.625C131.6 647.025 118.7 635.225 118.7 619.325Z" fill="#E4CED9"/>
<path d="M181.8 626C181.8 618.3 188.3 611.8 196 611.8C203.7 611.8 210.2 618.3 210.2 626C210.2 633.7 203.7 640.2 196 640.2C188.3 640.2 181.8 633.7 181.8 626Z" fill="#E4CED9"/>
<path d="M152.8 259C152.8 251.3 159.3 244.8 167 244.8C174.7 244.8 181.2 251.3 181.2 259C181.2 266.7 174.7 273.2 167 273.2C159.3 273.2 152.8 266.7 152.8 259Z" fill="#E4CED9"/>
<path d="M176.9 559C176.9 549.9 191.1 549.9 191.1 559C191.1 568.1 176.9 568.1 176.9 559Z" fill="#E4CED9"/>
<path d="M-99.3373 295.544C-99.3373 295.606 -99.3373 295.606 -99.3373 295.667C-94.7473 296.595 -91.1938 300.118 -91.1938 304.199C-91.1938 306.548 -92.3783 308.711 -94.3031 310.319C-94.2291 310.752 -94.1551 311.184 -94.1551 311.617C-94.1551 315.388 -97.1903 318.665 -101.262 319.901C-100.596 320.395 -100.004 320.89 -99.3373 321.446C-96.7462 323.796 -94.5252 326.33 -92.6745 329.05C-90.9717 326.021 -87.2701 323.857 -83.1243 323.857C-77.4239 323.857 -72.6119 327.876 -72.6119 332.636C-72.6119 334.8 -73.6483 336.84 -75.277 338.385C-66.9114 340.734 -60.6187 346.978 -60.6187 354.891C-60.6187 358.291 -61.9513 361.63 -64.1723 364.473C-63.2839 365.153 -62.3955 365.833 -61.5071 366.575C-53.9559 373.437 -49.2178 381.845 -49.2178 391.365C-49.2178 392.54 -49.2919 393.714 -49.4399 394.889C-48.8477 394.333 -48.1814 393.714 -47.5892 393.158C-40.334 387.1 -28.3409 382.525 -17.9025 382.896C-7.01981 383.329 4.23299 386.296 11.7842 393.158C19.3354 400.02 24.0735 408.428 24.0735 417.948C24.0735 421.595 23.2592 425.305 21.8526 428.89C22.4448 428.89 22.963 428.828 23.5553 428.89C34.9561 429.323 44.5062 436.618 44.5062 446.385C44.5062 446.633 44.5062 446.942 44.5062 447.189C46.1349 446.88 47.7636 446.694 49.4664 446.756C58.1281 447.065 65.8273 451.393 68.9367 457.822C70.9355 457.018 73.0825 456.647 75.3774 456.709C81.0038 456.895 86.038 459.368 88.7772 463.077C90.2578 457.142 96.6986 452.073 104.25 452.382C112.245 452.691 119.13 457.513 119.945 464.251C121.129 464.066 122.314 464.004 123.498 464.066C130.753 464.313 137.268 467.404 141.044 472.103C141.118 472.103 141.192 472.103 141.266 472.103C152.667 472.535 162.217 479.83 162.217 489.598C162.217 491.761 161.698 493.863 160.736 495.842C160.958 496.027 161.106 496.151 161.328 496.336C165.548 500.169 168.879 504.435 170.952 509.133C175.024 510.74 178.726 512.904 181.761 515.686C189.312 522.548 194.05 530.956 194.05 540.476C194.05 541.465 193.976 542.454 193.902 543.443C196.123 542.454 198.566 541.898 201.231 541.96C209.745 542.269 217 547.709 217 555.127C217 561.371 211.077 567.306 203.674 568.171C203.6 575.033 196.419 581.586 187.906 581.277C187.461 581.277 187.017 581.215 186.573 581.154C184.13 582.452 181.317 583.194 178.281 583.132C177.985 583.132 177.689 583.07 177.319 583.07C176.431 586.532 174.95 589.87 172.877 592.961C170.804 596.794 167.917 600.318 164.512 603.223C159.329 607.551 151.704 611.136 144.005 612.682C142.45 618.06 138.23 622.882 132.604 625.788C133.418 627.024 133.936 628.446 133.936 629.992C133.936 634.752 129.124 638.77 123.424 638.77C117.724 638.77 112.911 634.752 112.911 629.992C112.911 629.126 113.06 628.261 113.356 627.457C109.358 626.344 105.73 624.49 102.843 622.017C101.733 626.159 99.6598 630.239 96.9206 633.763C97.1427 633.948 97.2908 634.072 97.5129 634.257C105.064 641.119 109.802 649.527 109.802 659.047C109.802 661.211 109.506 663.375 108.988 665.477C109.358 665.786 109.728 666.095 110.024 666.404C115.28 671.164 119.13 676.666 121.055 682.786C127.274 684.394 132.974 687.114 137.416 691.132C145.041 697.994 149.779 706.402 149.779 715.922C149.779 724.886 145.115 734.344 137.49 740.712C130.235 746.77 118.242 751.345 107.803 750.974C96.9206 750.541 85.6678 747.574 78.1166 740.712C72.8604 735.952 69.0107 730.45 67.0859 724.329C65.5312 723.897 63.9025 723.464 62.4219 722.846C56.2032 725.813 49.3183 727.544 41.9151 727.482C-4.72485 727.421 -51.2908 726.431 -97.8567 724.515C-114.81 723.835 -129.468 716.293 -136.205 702.94C-138.13 700.22 -139.092 697.252 -139.092 694.099C-140.129 691.008 -140.129 687.917 -139.092 684.764C-137.908 677.593 -134.354 669.495 -127.543 664.611C-124.952 662.756 -122.361 660.964 -119.77 659.109C-127.173 655.276 -132.578 649.527 -135.909 642.85C-137.834 640.13 -138.796 637.163 -138.796 634.01C-139.833 630.919 -139.833 627.828 -138.796 624.675C-137.538 616.948 -133.836 610.271 -127.247 604.522C-124.138 601.802 -120.881 599.205 -117.475 596.732C-118.66 596.238 -119.844 595.681 -121.029 595.187C-127.321 592.096 -132.355 587.892 -136.057 582.637C-139.092 578.619 -140.795 574.292 -141.017 569.593C-142.276 564.957 -142.054 560.258 -140.277 555.622C-138.278 549.687 -134.65 544.556 -129.468 540.167C-127.988 539.178 -126.507 538.25 -125.026 537.261C-125.248 537.138 -125.47 537.076 -125.619 536.952C-128.432 535.097 -131.245 533.305 -134.132 531.45C-139.314 527.061 -142.942 521.93 -144.941 515.995C-145.459 514.759 -146.051 513.584 -146.57 512.348C-148.346 507.711 -148.568 503.013 -147.31 498.376C-147.088 493.74 -145.385 489.35 -142.35 485.332C-139.685 481.252 -136.131 477.975 -131.541 475.503C-131.393 475.379 -131.245 475.317 -131.097 475.194C-131.097 474.946 -131.023 474.761 -131.023 474.514C-129.246 469.259 -126.211 464.622 -121.991 460.604C-132.059 459.862 -142.128 456.833 -149.087 450.465C-156.638 443.603 -161.376 435.196 -161.376 425.675C-161.376 420.359 -159.747 414.857 -156.786 409.911C-158.563 408.242 -160.191 406.388 -161.598 404.409C-163.005 401.627 -164.411 398.845 -165.818 396.064C-166.78 393.158 -167.224 390.314 -167.298 387.409C-167.298 387.285 -167.298 387.223 -167.298 387.1C-168.557 382.463 -168.335 377.765 -166.558 373.128C-165.818 370.594 -164.707 368.183 -163.227 366.019C-168.113 360.146 -171 353.407 -171 345.989C-171 337.025 -166.336 327.567 -158.711 321.199C-151.456 315.141 -139.462 310.566 -129.024 310.937C-124.286 311.122 -119.474 311.802 -114.884 313.039C-115.032 312.482 -115.106 311.926 -115.106 311.37C-115.106 309.02 -113.922 306.857 -111.997 305.249C-112.071 304.817 -112.145 304.384 -112.145 303.951C-112.145 303.889 -112.145 303.889 -112.145 303.828C-116.735 302.9 -120.288 299.377 -120.288 295.296C-120.288 290.536 -115.476 286.518 -109.776 286.518C-104.149 286.765 -99.3373 290.784 -99.3373 295.544Z" fill="white"/>
<path d="M77.4503 442.058C77.4503 438.101 84.8535 438.101 84.8535 442.058C84.8535 446.014 77.4503 446.014 77.4503 442.058Z" fill="white"/>
<path d="M61.7555 440.822C61.7555 436.061 66.5676 432.043 72.268 432.043C77.9685 432.043 82.7805 436.061 82.7805 440.822C82.7805 445.582 77.9684 449.6 72.268 449.6C66.5676 449.6 61.7555 445.582 61.7555 440.822Z" fill="white"/>
<path d="M152.741 647.919C152.741 638.894 169.546 638.894 169.546 647.919C169.472 656.945 152.741 656.945 152.741 647.919Z" fill="white"/>
<path d="M175.838 502.024C175.838 496.398 186.351 496.398 186.351 502.024C186.351 507.649 175.838 507.649 175.838 502.024Z" fill="white"/>
</g>
<g clip-path="url(#clip1_92_241)">
<path d="M95.5001 25.7C117.5 25.7 145 69.3 145 101V219.7H46.0001V101C46.0001 71.4 72.6001 25.7 95.5001 25.7Z" fill="#D82538"/>
<path d="M37.2001 25.7H95.7001V215.7H37.2001V25.7Z" fill="#C42B40"/>
<path d="M40.5 17H153.8V76.3H40.5V17Z" fill="#801F32"/>
<path d="M-31 107.2H174.3V114.2H-31V107.2Z" fill="#E23435"/>
<path d="M-31 132.2H174.3V139.2H-31V132.2Z" fill="#E23435"/>
<path d="M133 297.7H168V326.7H133V297.7Z" fill="#7F1F31"/>
<path d="M151 99.7C151 99.7 167 113 167 130.7V284.7H135V130.7C135 113.6 151 99.7 151 99.7Z" fill="#E2E2E2"/>
<path d="M129 141.7H177V159.7H129V141.7Z" fill="#494949"/>
<path d="M129 186.7H177V194.7H129V186.7Z" fill="#494949"/>
<path d="M129 200.7H177V208.7H129V200.7Z" fill="#494949"/>
<path opacity="0.15" d="M135 95.7H151V288.7H135V95.7Z" fill="#212526"/>
<path d="M40.0001 99.7C40.0001 99.7 56.0001 113 56.0001 130.7V284.7H24.0001V130.7C24.0001 113.6 40.0001 99.7 40.0001 99.7Z" fill="#E2E2E2"/>
<path d="M18.0001 141.7H66.0001V159.7H18.0001V141.7Z" fill="#494949"/>
<path d="M18.0001 186.7H66.0001V194.7H18.0001V186.7Z" fill="#494949"/>
<path d="M18.0001 200.7H66.0001V208.7H18.0001V200.7Z" fill="#494949"/>
<path opacity="0.15" d="M24.0001 95.7H40.0001V288.7H24.0001V95.7Z" fill="#212526"/>
<path d="M133.6 330.7H167.4L163.5 337.7H137.5L133.6 330.7Z" fill="#7F1F31"/>
<path d="M171 351.7H130L137.5 337.7H163.5L171 351.7Z" fill="#E2E2E2"/>
<path d="M128 348.7H177V354.7H128V348.7Z" fill="#494949"/>
<path d="M133 327.9C133 327.2 133.6 326.7 134.2 326.7H167.7C168.4 326.7 168.9 327.3 168.9 327.9V329.4C168.9 330.1 168.3 330.6 167.7 330.6H134.2C133.5 330.6 133 330 133 329.4V327.9Z" fill="#D82537"/>
<path d="M23.0001 297.7H58.0001V326.7H23.0001V297.7Z" fill="#7F1F31"/>
<path d="M23.6 330.7H57.4L53.5 337.7H27.5L23.6 330.7Z" fill="#7F1F31"/>
<path d="M61.0001 351.7H20.0001L27.5001 337.7H53.5001L61.0001 351.7Z" fill="#E2E2E2"/>
<path d="M18.0001 348.7H67.0001V354.7H18.0001V348.7Z" fill="#494949"/>
<path d="M23 327.9C23 327.2 23.6 326.7 24.2 326.7H57.7C58.4 326.7 58.9 327.3 58.9 327.9V329.4C58.9 330.1 58.3 330.6 57.7 330.6H24.2C23.5 330.6 23 330 23 329.4V327.9Z" fill="#D82537"/>
<path d="M177.9 314.4C185.8 312.7 190.7 310.1 189.5 299.6C188.3 289 186.6 288.7 185.2 285.4C183.8 282 176.3 274.8 169.8 271.9C163.3 269 141.2 249.7 138 224.7C134.9 199.7 135.8 196.9 128.3 189C120.1 189 119.9 184.7 119.9 184.7L117.9 319.7C118 319.7 170 316.1 177.9 314.4Z" fill="#F0F0F0"/>
<path d="M123.4 103.6C123.4 103.6 165.9 149.7 157.8 207.1C150.4 259.6 123.6 334.6 116.5 353.9C115.5 356.6 112.7 358.3 109.9 357.9L66.2001 351.7C63.3 351.3 61.1 348.9 60.9 346.1C59.4 325.6 54.4 245.9 61.8 193.6C69.8 136.5 123.4 103.6 123.4 103.6Z" fill="#E2E2E2"/>
<path d="M14.8 314.4C6.90005 312.7 2.00008 310.1 3.20007 299.6C4.40007 289 6.10006 288.7 7.50006 285.4C8.90006 282 16.4001 274.8 22.9001 271.9C29.4001 269 51.5001 249.7 54.7001 224.7C57.8001 199.7 55.3001 195 62.7001 187.1C70.9001 187.1 72.7001 184.7 72.7001 184.7L74.7001 319.7C74.7001 319.7 22.7001 316.1 14.8 314.4Z" fill="#F0F0F0"/>
<path d="M67.2001 102.7C67.2001 102.7 120.7 135.3 128.8 192.7C136.1 245.2 131 324.7 129.5 345.2C129.3 348.1 127.1 350.4 124.2 350.8L80.5001 356.9C77.6001 357.3 74.9001 355.7 73.9001 352.9C66.8 333.6 40.1001 258.4 32.8 206.1C24.7001 149.1 67.2001 102.7 67.2001 102.7Z" fill="#CACDCE"/>
<path d="M95.7 126.2C95.7 126.2 135.3 158.6 135.3 206C135.3 249.3 122.2 313.2 118.6 329.6C118.1 331.9 116.1 333.8 113.7 333.8H77.7001C75.3001 333.8 73.3 331.9 72.8 329.6C69.3 313.2 56.1001 249.2 56.1001 206.1C56.2001 159 95.7 126.2 95.7 126.2Z" fill="#F7ECDF"/>
<path d="M50.0001 114.7H96.0001V221.7H50.0001V114.7Z" fill="#EFE0CA"/>
<path d="M74.0001 143.7C74.0001 143.7 80.3001 145.7 95.7001 145.7C111.1 145.7 118 143.7 118 143.7V118.7H74.0001V143.7Z" fill="#494949"/>
<path d="M83.0001 341.7H109V204.7C109 204.7 104.8 199.7 96.0001 199.7C87.2001 199.7 83.0001 204.7 83.0001 204.7V341.7Z" fill="#FAD175"/>
<path d="M109 341.7H135V205.7C135 205.7 131.8 201.7 123 201.7C114.2 201.7 109 204.7 109 204.7V341.7Z" fill="#F9DA78"/>
<path d="M83.0001 341.7H56.0001V205.7C56.0001 205.7 59.7001 201.7 68.5001 201.7C77.3001 201.7 83.0001 204.7 83.0001 204.7V341.7Z" fill="#F9C178"/>
<path d="M66.0001 335.7H122V322.7H119.8H71.7001H66.0001V335.7Z" fill="#EE508E"/>
<path d="M97.5 162.7L97.6 170.3C97.6 170.3 105.7 169.3 113.8 171.1C115.7 171.7 115.9 170.1 116 168.9C116.1 167.4 115.4 165.9 111.6 164.7C104.6 162.8 97.5 162.7 97.5 162.7Z" fill="#3D3D3D"/>
<path d="M94.0001 162.7L93.9001 170.3C93.9001 170.3 85.8001 169.3 77.7001 171.1C75.8001 171.7 75.6001 170.1 75.5001 168.9C75.4001 167.4 76.1001 165.9 79.9001 164.7C86.8001 162.8 94.0001 162.7 94.0001 162.7Z" fill="#3D3D3D"/>
<path d="M94.7001 349.3C95.0001 350.6 96.6001 350.6 96.9001 349.3C98.5001 342.4 109.2 293 95.7001 293C82.2001 293 92.9001 342.4 94.7001 349.3Z" fill="#F7ECDF"/>
<path d="M104 333.7H112V337.7H104V333.7Z" fill="#F9DA78"/>
<path d="M102.1 342.7H113.9L112.9 337.7H103.1L102.1 342.7Z" fill="#F9C178"/>
<path d="M78.0001 333.7H86.0001V337.7H78.0001V333.7Z" fill="#F9DA78"/>
<path d="M76.1 342.7H87.9L86.9 337.7H77.1L76.1 342.7Z" fill="#F9C178"/>
<g filter="url(#filter0_f_92_241)">
<path d="M133 356.1H168V545.7H133V356.1Z" fill="url(#paint0_linear_92_241)"/>
<path d="M23.0001 356.1H57.0001V545.7H23.0001V356.1Z" fill="url(#paint1_linear_92_241)"/>
<path d="M103 342.7H113V545.7H103V342.7Z" fill="url(#paint2_linear_92_241)"/>
<path d="M77.0001 342.7H87.0001V545.7H77.0001V342.7Z" fill="url(#paint3_linear_92_241)"/>
</g>
<path d="M133 356.1H168V545.7H133V356.1Z" fill="url(#paint4_linear_92_241)"/>
<path d="M23 356.1H57V545.7H23V356.1Z" fill="url(#paint5_linear_92_241)"/>
<path d="M103 342.7H113V545.7H103V342.7Z" fill="url(#paint6_linear_92_241)"/>
<path d="M77 342.7H87V545.7H77V342.7Z" fill="url(#paint7_linear_92_241)"/>
</g>
<defs>
<filter id="filter0_f_92_241" x="19.0001" y="338.7" width="153" height="211" filterUnits="userSpaceOnUse" color-interpolation-filters="sRGB">
<feFlood flood-opacity="0" result="BackgroundImageFix"/>
<feBlend mode="normal" in="SourceGraphic" in2="BackgroundImageFix" result="shape"/>
<feGaussianBlur stdDeviation="2" result="effect1_foregroundBlur_92_241"/>
</filter>
<linearGradient id="paint0_linear_92_241" x1="163.772" y1="478.418" x2="147.02" y2="477.1" gradientUnits="userSpaceOnUse">
<stop offset="0.49" stop-color="#F4607C"/>
<stop offset="1" stop-color="#DB6086"/>
</linearGradient>
<linearGradient id="paint1_linear_92_241" x1="52.8928" y1="478.418" x2="36.6136" y2="477.173" gradientUnits="userSpaceOnUse">
<stop offset="0.49" stop-color="#F4607C"/>
<stop offset="1" stop-color="#DB6086"/>
</linearGradient>
<linearGradient id="paint2_linear_92_241" x1="111.792" y1="473.663" x2="106.978" y2="473.562" gradientUnits="userSpaceOnUse">
<stop offset="0.49" stop-color="#F4607C"/>
<stop offset="1" stop-color="#DB6086"/>
</linearGradient>
<linearGradient id="paint3_linear_92_241" x1="85.792" y1="473.663" x2="80.9782" y2="473.562" gradientUnits="userSpaceOnUse">
<stop offset="0.49" stop-color="#F4607C"/>
<stop offset="1" stop-color="#DB6086"/>
</linearGradient>
<linearGradient id="paint4_linear_92_241" x1="163.772" y1="478.418" x2="147.02" y2="477.099" gradientUnits="userSpaceOnUse">
<stop offset="0.49" stop-color="#F4607C"/>
<stop offset="1" stop-color="#DB6086"/>
</linearGradient>
<linearGradient id="paint5_linear_92_241" x1="52.8927" y1="478.418" x2="36.6136" y2="477.173" gradientUnits="userSpaceOnUse">
<stop offset="0.49" stop-color="#F4607C"/>
<stop offset="1" stop-color="#DB6086"/>
</linearGradient>
<linearGradient id="paint6_linear_92_241" x1="111.792" y1="473.663" x2="106.978" y2="473.562" gradientUnits="userSpaceOnUse">
<stop offset="0.49" stop-color="#F4607C"/>
<stop offset="1" stop-color="#DB6086"/>
</linearGradient>
<linearGradient id="paint7_linear_92_241" x1="85.792" y1="473.663" x2="80.9781" y2="473.562" gradientUnits="userSpaceOnUse">
<stop offset="0.49" stop-color="#F4607C"/>
<stop offset="1" stop-color="#DB6086"/>
</linearGradient>
<clipPath id="clip0_92_241">
<rect width="855" height="348" fill="white" transform="matrix(4.37114e-08 -1 -1 -4.37114e-08 350 855)"/>
</clipPath>
<clipPath id="clip1_92_241">
<rect width="251" height="624" fill="white" transform="translate(0 2)"/>
</clipPath>
</defs>
</svg>
