<svg width="470" height="469" viewBox="0 0 470 469" fill="none" xmlns="http://www.w3.org/2000/svg">
<g clip-path="url(#clip0_6_1596)">
<path d="M242.5 0.5C220.5 0.5 193 44.1 193 75.8V194.5H292V75.8C292 46.2 265.4 0.5 242.5 0.5Z" fill="#D82538"/>
<path d="M300.8 0.5H242.3V190.5H300.8V0.5Z" fill="#C42B40"/>
<path d="M297.5 -8.19995H184.2V51.1H297.5V-8.19995Z" fill="#801F32"/>
<path d="M369 82H163.7V89H369V82Z" fill="#E23435"/>
<path d="M369 107H163.7V114H369V107Z" fill="#E23435"/>
<path d="M205 272.5H170V301.5H205V272.5Z" fill="#7F1F31"/>
<path d="M187 74.5C187 74.5 171 87.8 171 105.5V259.5H203V105.5C203 88.4 187 74.5 187 74.5Z" fill="#E2E2E2"/>
<path d="M209 116.5H161V134.5H209V116.5Z" fill="#494949"/>
<path d="M209 161.5H161V169.5H209V161.5Z" fill="#494949"/>
<path d="M209 175.5H161V183.5H209V175.5Z" fill="#494949"/>
<path opacity="0.15" d="M203 70.5H187V263.5H203V70.5Z" fill="#212526"/>
<path d="M298 74.5C298 74.5 282 87.8 282 105.5V259.5H314V105.5C314 88.4 298 74.5 298 74.5Z" fill="#E2E2E2"/>
<path d="M320 116.5H272V134.5H320V116.5Z" fill="#494949"/>
<path d="M320 161.5H272V169.5H320V161.5Z" fill="#494949"/>
<path d="M320 175.5H272V183.5H320V175.5Z" fill="#494949"/>
<path opacity="0.15" d="M314 70.5H298V263.5H314V70.5Z" fill="#212526"/>
<path d="M204.4 305.5H170.6L174.5 312.5H200.5L204.4 305.5Z" fill="#7F1F31"/>
<path d="M167 326.5H208L200.5 312.5H174.5L167 326.5Z" fill="#E2E2E2"/>
<path d="M210 323.5H161V329.5H210V323.5Z" fill="#494949"/>
<path d="M205 302.7C205 302 204.4 301.5 203.8 301.5H170.3C169.6 301.5 169.1 302.1 169.1 302.7V304.2C169.1 304.9 169.7 305.4 170.3 305.4H203.8C204.5 305.4 205 304.8 205 304.2V302.7Z" fill="#D82537"/>
<path d="M315 272.5H280V301.5H315V272.5Z" fill="#7F1F31"/>
<path d="M314.4 305.5H280.6L284.5 312.5H310.5L314.4 305.5Z" fill="#7F1F31"/>
<path d="M277 326.5H318L310.5 312.5H284.5L277 326.5Z" fill="#E2E2E2"/>
<path d="M320 323.5H271V329.5H320V323.5Z" fill="#494949"/>
<path d="M315 302.7C315 302 314.4 301.5 313.8 301.5H280.3C279.6 301.5 279.1 302.1 279.1 302.7V304.2C279.1 304.9 279.7 305.4 280.3 305.4H313.8C314.5 305.4 315 304.8 315 304.2V302.7Z" fill="#D82537"/>
<path d="M160.1 289.2C152.2 287.5 147.3 284.9 148.5 274.4C149.7 263.8 151.4 263.5 152.8 260.2C154.2 256.8 161.7 249.6 168.2 246.7C174.7 243.8 196.8 224.5 200 199.5C203.1 174.5 202.2 171.7 209.7 163.8C217.9 163.8 218.1 159.5 218.1 159.5L220.1 294.5C220 294.5 168 290.9 160.1 289.2Z" fill="#F0F0F0"/>
<path d="M214.6 78.3999C214.6 78.3999 172.1 124.5 180.2 181.9C187.6 234.4 214.4 309.4 221.5 328.7C222.5 331.4 225.3 333.1 228.1 332.7L271.8 326.5C274.7 326.1 276.9 323.7 277.1 320.9C278.6 300.4 283.6 220.7 276.2 168.4C268.2 111.3 214.6 78.3999 214.6 78.3999Z" fill="#E2E2E2"/>
<path d="M323.2 289.2C331.1 287.5 336 284.9 334.8 274.4C333.6 263.8 331.9 263.5 330.5 260.2C329.1 256.8 321.6 249.6 315.1 246.7C308.6 243.8 286.5 224.5 283.3 199.5C280.2 174.5 282.7 169.8 275.3 161.9C267.1 161.9 265.3 159.5 265.3 159.5L263.3 294.5C263.3 294.5 315.3 290.9 323.2 289.2Z" fill="#F0F0F0"/>
<path d="M270.8 77.5C270.8 77.5 217.3 110.1 209.2 167.5C201.9 220 207 299.5 208.5 320C208.7 322.9 210.9 325.2 213.8 325.6L257.5 331.7C260.4 332.1 263.1 330.5 264.1 327.7C271.2 308.4 297.9 233.2 305.2 180.9C313.3 123.9 270.8 77.5 270.8 77.5Z" fill="#CACDCE"/>
<path d="M242.3 101C242.3 101 202.7 133.4 202.7 180.8C202.7 224.1 215.8 288 219.4 304.4C219.9 306.7 221.9 308.6 224.3 308.6H260.3C262.7 308.6 264.7 306.7 265.2 304.4C268.7 288 281.9 224 281.9 180.9C281.8 133.8 242.3 101 242.3 101Z" fill="#F7ECDF"/>
<path d="M288 89.5H242V196.5H288V89.5Z" fill="#EFE0CA"/>
<path d="M264 118.5C264 118.5 257.7 120.5 242.3 120.5C226.9 120.5 220 118.5 220 118.5V93.5H264V118.5Z" fill="#494949"/>
<path d="M255 316.5H229V179.5C229 179.5 233.2 174.5 242 174.5C250.8 174.5 255 179.5 255 179.5V316.5Z" fill="#FAD175"/>
<path d="M229 316.5H203V180.5C203 180.5 206.2 176.5 215 176.5C223.8 176.5 229 179.5 229 179.5V316.5Z" fill="#F9DA78"/>
<path d="M255 316.5H282V180.5C282 180.5 278.3 176.5 269.5 176.5C260.7 176.5 255 179.5 255 179.5V316.5Z" fill="#F9C178"/>
<path d="M272 310.5H216V297.5H218.2H266.3H272V310.5Z" fill="#EE508E"/>
<path d="M240.5 137.5L240.4 145.1C240.4 145.1 232.3 144.1 224.2 145.9C222.3 146.5 222.1 144.9 222 143.7C221.9 142.2 222.6 140.7 226.4 139.5C233.4 137.6 240.5 137.5 240.5 137.5Z" fill="#3D3D3D"/>
<path d="M244 137.5L244.1 145.1C244.1 145.1 252.2 144.1 260.3 145.9C262.2 146.5 262.4 144.9 262.5 143.7C262.6 142.2 261.9 140.7 258.1 139.5C251.2 137.6 244 137.5 244 137.5Z" fill="#3D3D3D"/>
<path d="M243.3 324.1C243 325.4 241.4 325.4 241.1 324.1C239.5 317.2 228.8 267.8 242.3 267.8C255.8 267.8 245.1 317.2 243.3 324.1Z" fill="#F7ECDF"/>
<path d="M234 308.5H226V312.5H234V308.5Z" fill="#F9DA78"/>
<path d="M235.9 317.5H224.1L225.1 312.5H234.9L235.9 317.5Z" fill="#F9C178"/>
<path d="M260 308.5H252V312.5H260V308.5Z" fill="#F9DA78"/>
<path d="M261.9 317.5H250.1L251.1 312.5H260.9L261.9 317.5Z" fill="#F9C178"/>
<path d="M205 330.9H170V520.5H205V330.9Z" fill="white"/>
<path d="M315 330.9H281V520.5H315V330.9Z" fill="white"/>
<path d="M235 317.5H225V520.5H235V317.5Z" fill="white"/>
<path d="M261 317.5H251V520.5H261V317.5Z" fill="white"/>
</g>
<defs>
<clipPath id="clip0_6_1596">
<rect width="470" height="815" fill="white" transform="translate(0 0.5)"/>
</clipPath>
</defs>
</svg>
