<svg width="33" height="32" viewBox="0 0 33 32" fill="none" xmlns="http://www.w3.org/2000/svg">
<g clip-path="url(#clip0_6_1587)">
<path d="M0.671875 15.59V16.46C0.816749 20.4137 2.40432 24.1775 5.13476 27.0405C7.8652 29.9036 11.5495 31.6678 15.4919 32H17.9319C21.8655 31.6596 25.538 29.8891 28.2543 27.0236C30.9706 24.158 32.5422 20.3962 32.6719 16.45V15.59C32.5466 11.5681 30.9217 7.73852 28.1165 4.85376C25.3113 1.96899 21.5287 0.237654 17.5119 -2.65744e-05C15.381 -0.0883748 13.2537 0.245423 11.2522 0.982169C9.25082 1.71891 7.4148 2.84407 5.84978 4.29293C4.28475 5.74178 3.02161 7.48574 2.13299 9.42452C1.24437 11.3633 0.747813 13.4586 0.671875 15.59H0.671875Z" fill="url(#paint0_radial_6_1587)"/>
<path d="M16.6719 8C19.2219 8 19.5219 8 20.5319 8.05C21.1365 8.05745 21.7352 8.16909 22.3019 8.38C22.7183 8.53358 23.0945 8.77978 23.4019 9.1C23.7209 9.41617 23.9667 9.79849 24.1219 10.22C24.3286 10.7982 24.4401 11.4061 24.4519 12.02C24.4519 13.02 24.5019 13.35 24.5019 15.95C24.5019 18.55 24.5019 18.85 24.4519 19.88C24.4471 20.4946 24.3354 21.1037 24.1219 21.68C23.9688 22.1026 23.7227 22.4853 23.4019 22.8C23.0945 23.1202 22.7183 23.3664 22.3019 23.52C21.7359 23.7335 21.1367 23.8452 20.5319 23.85C19.5319 23.85 19.2219 23.9 16.6719 23.9C14.1219 23.9 13.8219 23.9 12.8119 23.85C12.2073 23.8425 11.6085 23.7309 11.0419 23.52C10.6254 23.3664 10.2493 23.1202 9.94188 22.8C9.62283 22.4838 9.37705 22.1015 9.22188 21.68C9.01514 21.1018 8.90369 20.4939 8.89188 19.88C8.89188 18.88 8.84188 18.55 8.84188 15.95C8.84188 13.35 8.84188 13.05 8.89188 12.02C8.89667 11.4054 9.00834 10.7963 9.22188 10.22C9.37495 9.79745 9.62101 9.41469 9.94188 9.1C10.2493 8.77978 10.6254 8.53358 11.0419 8.38C11.6078 8.16651 12.207 8.05479 12.8119 8.05C13.8119 8.05 14.1219 8 16.6719 8ZM16.6719 6.25C14.0719 6.25 13.7519 6.25 12.7419 6.31C11.9483 6.32446 11.1633 6.47673 10.4219 6.76C9.77927 7.01614 9.20191 7.41244 8.73188 7.92C8.25706 8.41281 7.89533 9.00317 7.67188 9.65C7.37873 10.4006 7.21312 11.1948 7.18188 12C7.18188 13 7.13188 13.37 7.13188 16C7.13188 18.63 7.13188 19 7.18188 20C7.21165 20.8118 7.37727 21.6129 7.67188 22.37C7.91011 23.016 8.28537 23.6028 8.77188 24.09C9.24723 24.5816 9.82392 24.9638 10.4619 25.21C11.2033 25.4933 11.9883 25.6455 12.7819 25.66C13.7819 25.66 14.1319 25.72 16.7119 25.72C19.2919 25.72 19.6319 25.72 20.6419 25.66C21.4354 25.6455 22.2205 25.4933 22.9619 25.21C23.6007 24.9655 24.1778 24.5831 24.6519 24.09C25.1111 23.5963 25.4589 23.0097 25.6719 22.37C25.9672 21.6131 26.1329 20.8119 26.1619 20C26.1619 19 26.2119 18.63 26.2119 16C26.2119 13.37 26.2119 13 26.1619 12C26.1299 11.1949 25.9643 10.4008 25.6719 9.65C25.4336 9.004 25.0584 8.41722 24.5719 7.93C24.1091 7.43957 23.5464 7.05421 22.9219 6.8C22.1805 6.51673 21.3954 6.36446 20.6019 6.35C19.6019 6.35 19.2519 6.29 16.6719 6.29V6.25Z" fill="white"/>
<path d="M16.6719 11C15.679 10.9802 14.7026 11.2564 13.8673 11.7936C13.032 12.3308 12.3756 13.1046 11.9818 14.0163C11.588 14.928 11.4746 15.9363 11.6561 16.9127C11.8376 17.8891 12.3057 18.7894 13.0008 19.4987C13.6959 20.208 14.5865 20.6942 15.5591 20.8954C16.5316 21.0965 17.542 21.0035 18.4615 20.6282C19.3809 20.2529 20.1678 19.6123 20.7218 18.788C21.2757 17.9637 21.5717 16.9931 21.5719 16C21.5798 15.3496 21.4592 14.704 21.217 14.1004C20.9748 13.4967 20.6157 12.9468 20.1605 12.4822C19.7052 12.0177 19.1626 11.6476 18.564 11.3932C17.9653 11.1389 17.3223 11.0052 16.6719 11ZM16.6719 19.23C16.0282 19.2419 15.3956 19.0618 14.8547 18.7127C14.3139 18.3636 13.8893 17.8612 13.6351 17.2698C13.3809 16.6783 13.3087 16.0245 13.4277 15.3918C13.5467 14.7591 13.8514 14.1762 14.3031 13.7175C14.7547 13.2587 15.3328 12.9449 15.9635 12.8161C16.5943 12.6873 17.2491 12.7493 17.8445 12.9942C18.4398 13.2391 18.9487 13.6558 19.3063 14.1912C19.6638 14.7265 19.8538 15.3563 19.8519 16C19.8558 16.4216 19.7767 16.8398 19.619 17.2307C19.4614 17.6217 19.2282 17.9778 18.9329 18.2787C18.6377 18.5795 18.286 18.8193 17.898 18.9842C17.5101 19.1492 17.0934 19.2361 16.6719 19.24V19.23Z" fill="white"/>
<path d="M21.7719 11.9799C22.4015 11.9799 22.9119 11.4606 22.9119 10.8199C22.9119 10.1793 22.4015 9.65991 21.7719 9.65991C21.1423 9.65991 20.6319 10.1793 20.6319 10.8199C20.6319 11.4606 21.1423 11.9799 21.7719 11.9799Z" fill="white"/>
</g>
<defs>
<radialGradient id="paint0_radial_6_1587" cx="0" cy="0" r="1" gradientUnits="userSpaceOnUse" gradientTransform="translate(1.22837 29.1468) rotate(-87.1376) scale(46.3278 39.3729)">
<stop stop-color="#FED576"/>
<stop offset="0.26" stop-color="#F47133"/>
<stop offset="0.61" stop-color="#BC3081"/>
<stop offset="1" stop-color="#4C63D2"/>
</radialGradient>
<clipPath id="clip0_6_1587">
<rect width="32" height="32" fill="white" transform="translate(0.671875)"/>
</clipPath>
</defs>
</svg>
