<svg width="32" height="32" viewBox="0 0 32 32" fill="none" xmlns="http://www.w3.org/2000/svg">
<g clip-path="url(#clip0_6_1582)">
<path d="M26.3 5.80005H6.2V24.9H26.3V5.80005Z" fill="white"/>
<path d="M16 0C7.2 0 0 7.2 0 16C0 24.8 7.2 32 16 32C24.8 32 32 24.8 32 16C32 7.2 24.8 0 16 0ZM11.9 23.5H8.3V12.6H11.9V23.5ZM10.1 11.2C8.9 11.2 8.1 10.4 8.1 9.3C8.1 8.2 8.9 7.4 10.1 7.4C11.3 7.4 12.1 8.2 12.1 9.3C12.2 10.3 11.4 11.2 10.1 11.2ZM25 23.5H21.4V17.7C21.4 16.2 20.9 15.2 19.6 15.2C18.6 15.2 18 15.9 17.7 16.5C17.6 16.7 17.6 17.1 17.6 17.4V23.5H14C14 23.5 14 13.6 14 12.6H17.6V14.1C18.1 13.4 18.9 12.3 20.9 12.3C23.3 12.3 25.1 13.9 25.1 17.2V23.5H25Z" fill="#007AB9"/>
</g>
<defs>
<clipPath id="clip0_6_1582">
<rect width="32" height="32" fill="white"/>
</clipPath>
</defs>
</svg>
