<svg width="155" height="164" viewBox="0 0 155 164" fill="none" xmlns="http://www.w3.org/2000/svg">
<path d="M129.034 11.4626C126.339 17.0131 124.249 21.3288 122.213 25.5259C73.9623 10.6849 41.3359 20.5096 25.0464 54.2699C11.8261 81.6663 20.2973 115.231 44.874 132.85C74.3838 154.001 110.335 147.566 142.166 114.827C146.018 117.362 150.025 119.998 155 123.274C142.967 142.063 127.188 154.12 106.868 160.276C71.1841 171.092 31.7189 156.299 12.1645 124.919C-7.27721 93.7231 -3.10986 53.8721 22.4819 26.2857C48.7148 -1.99524 90.4061 -8.28188 129.034 11.4626Z" fill="white"/>
<g clip-path="url(#clip0_113_240)">
<path d="M120.875 88.4003C120.875 83.7662 120.007 79.3386 118.428 75.2754C114.419 76.2683 111.131 78.2928 108.624 81.3204C100.537 91.089 102.047 108.888 102.858 118.452C102.891 118.836 102.922 119.205 102.951 119.558C113.649 113.435 120.875 101.776 120.875 88.4003Z" fill="#F37326"/>
<path d="M93.8809 123.165C93.8032 122.409 93.7328 121.677 93.6648 120.969C93.3851 118.064 93.1643 115.769 92.6626 114.03C91.6502 110.519 89.5391 108.361 89.5166 108.341L88.6324 107.327L74.5352 107.688L73.0105 110.061C72.9913 110.094 71.2986 113.154 69.7022 118.05C69.5144 118.626 69.3264 119.239 69.1432 119.884C74.0893 122.591 79.7461 124.126 85.7555 124.126C88.5524 124.126 91.273 123.793 93.8809 123.165Z" fill="#F37326"/>
<path d="M103.95 95.0559C106.797 85.8983 103.198 90.6784 103.198 90.6784C103.198 90.6784 100.685 98.6144 102.218 119.966C102.819 119.64 103.41 119.298 103.99 118.939C103.509 111.019 102.147 100.855 103.95 95.0559H103.95Z" fill="#F78F39"/>
<path d="M94.3132 120.248C93.2555 109.723 89.0068 107.139 89.0068 107.139L86.1401 107.772C86.1401 107.772 89.7515 110.728 90.1839 117.056C90.2946 118.677 90.5279 121.03 90.8786 123.749C92.1115 123.565 93.3239 123.317 94.5115 123.007C94.4302 122.104 94.3631 121.183 94.3129 120.248H94.3132Z" fill="url(#paint0_linear_113_240)"/>
<path d="M70.7374 115.348C70.0439 116.863 69.4708 118.352 69.0004 119.806C69.2328 119.935 69.4668 120.061 69.7021 120.184C69.9705 118.622 70.3113 117.008 70.7374 115.348V115.348Z" fill="#F78F39"/>
<path d="M85.7555 124.127C86.284 124.127 86.8099 124.114 87.3328 124.091C87.3734 116.632 89.3176 109.4 85.6907 107.42C81.1551 104.943 77.5926 106.452 76.1714 107.944C75.3721 108.784 72.0896 114.229 70.9866 120.823C75.4762 122.943 80.4798 124.127 85.7555 124.127Z" fill="#F6CBAE"/>
<path d="M110.958 92.7463C111.85 92.1986 114.081 97.7392 115.37 98.0418C116.199 98.2365 118.681 96.1286 120.347 94.5993C120.693 92.5859 120.874 90.5146 120.874 88.4003C120.874 83.7662 120.006 79.3386 118.428 75.2754C114.418 76.2683 111.13 78.2928 108.624 81.3204C106.496 83.8906 105.032 87.0167 104.046 90.4027C104.046 90.4027 103.669 95.4191 104.265 97.9413C104.86 100.463 110.065 93.2944 110.958 92.7466L110.958 92.7463Z" fill="#F6CBAE"/>
<path d="M102.924 118.444C102.113 108.892 100.605 91.1108 108.675 81.3635C111.174 78.345 114.453 76.3272 118.453 75.3383C118.289 74.915 118.118 74.4953 117.939 74.0801C116.388 74.4765 114.938 75.0189 113.603 75.7048C111.327 76.8743 109.329 78.4866 107.664 80.4973C105.685 82.8873 104.124 85.9058 103.024 89.4693C102.093 92.4847 101.468 95.9756 101.165 99.8451C100.615 106.864 101.211 113.903 101.607 118.56C101.657 119.151 101.704 119.704 101.745 120.217C102.174 119.994 102.597 119.762 103.015 119.521C102.986 119.177 102.956 118.818 102.924 118.444H102.924Z" fill="#601D15"/>
<path d="M72.2298 111.621C72.2298 111.621 70.3662 114.767 68.8107 119.701C69.0937 119.859 69.3789 120.014 69.6665 120.166C70.8098 115.058 72.2294 111.621 72.2294 111.621H72.2298Z" fill="#601D15"/>
<path d="M94.9148 120.845C94.6286 117.873 94.4028 115.525 93.8677 113.67C92.7455 109.78 89.7182 106.954 89.6157 106.865L88.3349 107.378C88.357 107.397 91.5923 110.559 92.5991 114.049C93.0989 115.782 93.3197 118.074 93.599 120.976C93.6674 121.687 93.7381 122.422 93.8161 123.181C94.2511 123.077 94.6828 122.964 95.1111 122.844C95.0414 122.158 94.9773 121.492 94.9148 120.845Z" fill="#601D15"/>
<path d="M44.5388 86.0412C44.4786 86.0405 44.4158 86.0371 44.352 86.0317C43.8876 85.9911 43.4249 85.8182 42.9374 85.5038C42.5397 85.2473 42.1233 84.8962 41.6642 84.4305C41.2721 84.0331 40.8259 83.4433 40.9277 82.8919C41.0371 82.2984 41.7273 81.9861 41.7342 81.983L41.7448 81.9783C42.2158 81.7534 42.8078 81.5789 43.4563 81.4733C43.9769 81.3889 44.5206 81.3492 45.0719 81.3563C45.6365 81.3633 46.1805 81.4222 46.6453 81.5267C47.075 81.6232 47.4339 81.7588 47.6838 81.9188C48.2249 82.2651 48.2606 82.8129 48.1955 83.2117C48.0233 84.2638 46.9021 85.5744 45.3241 85.9467C45.0399 86.0136 44.7831 86.0449 44.5388 86.0418V86.0412Z" fill="#6C3617"/>
<path d="M125.053 38.3381L125.055 37.9666C125.055 37.8146 125.054 37.6509 125.052 37.4505L125.051 37.3506L124.961 37.3893C124.333 37.6609 123.85 37.8761 123.397 38.087L123.096 38.2255C122.984 38.2766 122.885 38.3227 122.795 38.3664L122.197 38.6519C122.057 38.7167 121.918 38.7863 121.783 38.8533C121.722 38.8835 121.661 38.9141 121.599 38.9444C121.529 38.9794 121.458 39.0143 121.387 39.0493C121.261 39.1112 121.131 39.175 121.004 39.2396L120.413 39.5429C120.374 39.5631 120.336 39.5829 120.297 39.6027C120.237 39.6333 120.177 39.6639 120.118 39.6952L119.824 39.8509L119.237 40.1629L118.656 40.483L118.364 40.6431L117.496 41.135L116.635 41.6394L116.35 41.8109L115.781 42.1548L115.215 42.5062C115.182 42.5271 115.149 42.5476 115.116 42.5681C115.054 42.6061 114.993 42.6441 114.933 42.6831L114.653 42.8623C114.586 42.9047 114.52 42.9467 114.454 42.9887C114.335 43.0644 114.212 43.1424 114.092 43.2214L113.873 43.365C113.58 43.5573 113.276 43.7564 112.982 43.9578C112.687 44.1555 112.39 44.3606 112.102 44.5593L111.882 44.712C111.136 45.2358 110.409 45.7631 109.721 46.2792C108.965 46.8478 108.275 47.3844 107.611 47.9191C106.896 48.4937 106.202 49.0687 105.551 49.6282C104.831 50.2472 104.174 50.8279 103.544 51.4042C102.875 52.0162 102.218 52.6352 101.591 53.2445C101.012 53.8064 100.409 54.4109 99.6936 55.1473C99.0858 55.7724 98.4604 56.4264 97.8344 57.0915C97.2054 57.7596 96.589 58.4247 96.0029 59.0689C95.7005 59.3991 95.3957 59.7377 95.1012 60.0649L94.6451 60.574L94.1959 61.08C93.6876 61.655 93.2179 62.1926 92.7713 62.7118C92.9118 62.4478 93.0506 62.2031 93.168 61.9996C93.3795 61.6321 93.6119 61.2488 93.8783 60.8282C93.949 60.7155 94.0075 60.6241 94.0624 60.5403L94.2498 60.2535L94.4385 59.968L94.5615 59.7865L94.457 59.7707C93.1104 59.5669 90.4216 59.1997 87.541 59.0326L87.505 59.0306L87.388 59.198C87.103 58.9983 85.6979 58.0478 83.5373 57.15C81.5831 56.338 78.4828 55.3608 74.8099 55.3154C74.7312 55.3144 74.6526 55.3141 74.5732 55.3137H74.3908L74.5316 55.4328C75.8805 56.5774 76.3647 57.6876 76.3845 57.7344L76.5756 58.1816L76.1056 58.1086C76.0963 58.1073 75.1817 57.9677 73.9945 57.9529C73.1705 57.9428 72.4231 57.9953 71.774 58.1093L71.533 58.1517L71.7621 58.2387C73.503 58.9008 74.324 59.9613 74.3584 60.006L74.7643 60.539L74.1128 60.4378C74.1062 60.4368 73.4253 60.3339 72.5927 60.3238C72.084 60.3174 71.6236 60.3467 71.224 60.4099L71.0686 60.4344L71.1949 60.5302C71.8212 61.006 72.1607 61.8739 72.2496 62.1287L72.2539 62.1409L72.2622 62.1506C72.3577 62.2619 72.4486 62.3769 72.5329 62.4936C72.6482 62.6519 72.757 62.8177 72.8564 62.9862C72.9222 63.0981 72.986 63.2162 73.0498 63.3446C72.8624 63.0581 72.6661 62.8016 72.4515 62.5625C72.119 62.195 71.7816 61.9018 71.4196 61.6661C71.3284 61.6056 71.2249 61.5444 71.0944 61.4731C70.9863 61.4136 70.868 61.3564 70.7434 61.3036C70.6187 61.2505 70.4922 61.2044 70.3669 61.1671C70.2205 61.1234 70.0899 61.0918 69.9689 61.0706C69.84 61.0474 69.7048 61.0302 69.5541 61.0181C69.4857 61.0134 69.4156 61.0107 69.3462 61.0101C69.2738 61.0091 69.2001 61.0101 69.1267 61.0134C68.8382 61.0272 68.5453 61.0746 68.2564 61.1546C67.9735 61.2327 67.6846 61.3416 67.3964 61.4788C67.2311 61.5602 67.0986 61.6304 66.9803 61.6997C66.9264 61.7296 66.8732 61.7619 66.8219 61.7935L66.7743 61.8228C66.7267 61.852 66.6815 61.8816 66.6355 61.9119C66.6157 61.9246 66.5962 61.9378 66.5744 61.9515L66.418 62.0588L66.3727 62.0911C66.3099 62.1355 66.2445 62.1839 66.1787 62.235C66.0468 62.3369 65.9212 62.4411 65.8052 62.545C65.5676 62.7575 65.3382 62.9942 65.1237 63.2488C64.7307 63.7108 64.3624 64.2629 64.0299 64.89C63.746 65.4263 63.4968 66.009 63.2671 66.6711C63.075 67.2185 62.9048 67.8099 62.761 68.4283C62.6348 68.9649 62.5283 69.509 62.4447 70.0449C62.3674 70.5362 62.3065 71.0019 62.2636 71.4296L62.2553 71.5113L62.3756 71.5537L62.3902 71.5301C62.4064 71.5036 62.4229 71.477 62.4374 71.4525C62.4543 71.4269 62.4708 71.4007 62.4877 71.3748C62.522 71.3213 62.5574 71.2662 62.5954 71.2127C62.6893 71.0732 62.799 70.9262 62.9405 70.7507C63.0562 70.6088 63.1844 70.4659 63.3315 70.3153C63.4803 70.1673 63.6244 70.0369 63.7711 69.9168C63.9328 69.7874 64.0967 69.6697 64.2577 69.5671C64.4358 69.4565 64.6143 69.3597 64.7878 69.2793C64.9706 69.1973 65.1617 69.1256 65.355 69.0665C65.5398 69.0117 65.7384 68.9669 65.9454 68.934C66.1348 68.9057 66.337 68.8886 66.5443 68.8829L66.6957 68.8836H66.7482C66.7555 68.8839 66.7631 68.8842 66.7694 68.8842L66.8477 68.8883L66.9657 68.8943C66.9776 68.895 66.9888 68.8957 66.9998 68.8967L67.1971 68.9155L67.3227 68.9326C67.362 68.938 67.399 68.9431 67.437 68.9505L67.5831 68.9767L67.7296 69.0086C67.9246 69.0547 68.1163 69.1129 68.2991 69.1811C68.667 69.3203 69.015 69.509 69.3333 69.7413C69.487 69.8533 69.6374 69.9774 69.7802 70.1098C69.9111 70.2312 70.04 70.3654 70.1748 70.5211C70.2291 70.5829 70.2816 70.6482 70.3322 70.7114L70.3523 70.7363L70.3722 70.7628C70.4208 70.827 70.471 70.8936 70.5173 70.9605C70.6267 71.1165 70.7262 71.2705 70.8124 71.4192C70.9837 71.7114 71.1403 72.0274 71.2782 72.359C71.5161 72.9249 71.694 73.5217 71.8219 74.1828C71.9201 74.6935 71.9815 75.2278 72.004 75.7708C72.0209 76.1972 72.0146 76.6098 71.9852 76.9971C71.9723 77.173 71.9554 77.3428 71.9336 77.5096C71.9217 77.3646 71.9065 77.1935 71.8857 76.9985C71.8427 76.5869 71.7905 76.1952 71.7257 75.8008C71.6394 75.2786 71.532 74.7675 71.4054 74.2823C71.2362 73.6407 71.0438 73.0802 70.8174 72.5688C70.5269 71.9171 70.1725 71.356 69.764 70.9017C69.6404 70.7648 69.523 70.6475 69.4054 70.5426C69.2768 70.4283 69.1426 70.322 69.0061 70.2265C68.7341 70.0355 68.4286 69.8772 68.0971 69.7551C67.9375 69.6979 67.7702 69.6499 67.5987 69.6115L67.4708 69.5853L67.3448 69.5644C67.3108 69.5581 67.2764 69.554 67.2434 69.55L67.1336 69.5365L66.9475 69.5211C66.9336 69.5197 66.9214 69.5191 66.9108 69.5191L66.7558 69.5133H66.7492C66.7373 69.5133 66.7251 69.5133 66.7129 69.5133L66.5588 69.5147C66.3741 69.5221 66.2045 69.5389 66.0402 69.5658C65.3745 69.6751 64.7277 69.975 64.1694 70.433C63.671 70.8395 63.2274 71.3778 62.8519 72.0325C62.5372 72.5758 62.2765 73.1929 62.0768 73.8664C61.9089 74.4427 61.7886 75.0375 61.7195 75.6347C61.662 76.1256 61.6385 76.6259 61.6484 77.1642C61.6531 77.4023 61.6673 77.6205 61.6808 77.8034C61.7 78.0213 61.7185 78.1925 61.7387 78.3424C61.7727 78.6034 61.814 78.8485 61.8643 79.0912C61.8692 79.1171 61.8742 79.1407 61.8792 79.1625L61.8897 79.2123L61.939 79.2153C63.0423 79.2819 64.1826 79.376 65.3279 79.4954C66.5618 79.6242 67.8115 79.7839 69.0424 79.9695C69.2593 80.0021 69.4758 80.0358 69.6909 80.0701C69.4744 80.0452 69.257 80.021 69.0388 79.9978C67.8033 79.866 66.5496 79.7614 65.3127 79.6864C64.057 79.6107 62.8152 79.5647 61.622 79.5499C60.3405 79.5341 59.0723 79.5536 57.852 79.6081C57.217 79.6366 56.5916 79.6746 55.993 79.7214C55.367 79.7698 54.7443 79.8293 54.1414 79.8986C53.517 79.9698 52.8976 80.0536 52.3007 80.1474C51.6813 80.2446 51.0671 80.3555 50.4761 80.4772C49.8653 80.603 49.2591 80.7449 48.6744 80.8996C48.3601 80.9833 48.0692 81.0647 47.7853 81.1494C47.7668 81.1551 47.7483 81.1608 47.7301 81.1665C47.7152 81.1713 47.7003 81.1756 47.6855 81.1803L47.5185 81.2311L47.6765 81.3061C47.7813 81.3559 47.8772 81.4083 47.9621 81.4628C48.567 81.8498 48.8407 82.5199 48.7128 83.301C48.605 83.9604 48.2298 84.6426 47.6567 85.222C47.0432 85.8424 46.2771 86.2744 45.4415 86.4715C45.1255 86.5458 44.8359 86.5814 44.556 86.5801H44.4651L44.4932 86.6682C44.8941 87.9298 45.4765 89.1534 46.2248 90.305C46.4532 90.6523 46.6449 90.9274 46.8274 91.1698C46.908 91.2808 46.9937 91.3904 47.0763 91.4963C47.1004 91.5272 47.1245 91.5578 47.148 91.5884C47.1831 91.6338 47.2197 91.6785 47.2551 91.7216C47.2749 91.7458 47.2948 91.7697 47.3149 91.7949C47.3348 91.8188 47.3543 91.843 47.3738 91.8668C47.4091 91.9102 47.4455 91.9553 47.4828 91.998C47.9532 92.5528 48.4414 93.0682 48.9332 93.5302C49.9212 94.4647 51.0463 95.3285 52.2779 96.0978C53.4602 96.8335 54.7258 97.4754 56.039 98.0067C57.335 98.5319 58.6879 98.9613 60.0602 99.283C60.5121 99.3893 60.9781 99.4871 61.4465 99.5736L61.4799 99.5796L61.5162 99.5426L61.5685 99.5961L61.589 99.5998C63.2357 99.8957 64.9399 100.056 66.6547 100.078C67.25 100.085 67.8552 100.076 68.4541 100.049C69.846 99.9888 71.2623 99.8372 72.6647 99.5984C74.0315 99.3647 75.422 99.0393 76.798 98.6311C78.1089 98.2437 79.4568 97.7582 80.8038 97.1876C81.4304 96.9229 82.0654 96.6324 82.7453 96.2995L82.9859 96.1819L83.2242 96.0611C83.2801 96.0322 83.3363 96.004 83.3925 95.9754C83.4936 95.9243 83.5981 95.8715 83.6995 95.817L84.1725 95.5669L84.6412 95.3093C85.264 94.962 85.885 94.5961 86.4869 94.2216C87.0832 93.8477 87.6864 93.4509 88.2794 93.0417C88.841 92.652 89.4091 92.238 90.0173 91.7764C90.5541 91.3655 91.1044 90.9257 91.6991 90.4314C92.293 89.9307 92.8242 89.4664 93.3223 89.0121C93.4092 88.9341 93.4958 88.8531 93.5798 88.7751C93.6261 88.732 93.6723 88.6887 93.7193 88.6456L93.7603 88.6073C93.8766 88.4994 93.9969 88.3877 94.1129 88.2754L94.5033 87.9018L94.888 87.5232L95.0811 87.3333L95.6506 86.7556L96.0244 86.3656L96.2118 86.1695L96.3963 85.9718L96.7651 85.5754L97.1284 85.1742L97.3105 84.9728L97.6563 84.5801C97.6563 84.5801 97.6592 84.5518 97.6596 84.5488L97.6817 84.5508L97.8037 84.4123L97.8685 84.5855L97.8225 84.8467L97.8199 84.8672C97.6807 85.9863 97.1016 89.9617 95.4893 94.1288C94.3638 97.0379 92.9607 99.4868 91.3193 101.407C89.2634 103.812 86.826 105.389 84.0747 106.096C82.3801 106.531 80.6732 106.741 79.0017 106.72C78.7548 106.717 78.5052 106.709 78.2597 106.696C76.7319 106.614 75.231 106.338 73.7981 105.877C71.5918 105.166 70.2562 104.248 69.9769 104.046L70.0945 103.884C70.3024 104.032 71.1112 104.583 72.404 105.139L72.4522 105.16L72.4826 105.116C72.9579 104.426 73.1407 103.707 73.026 102.979C72.8469 101.841 71.9878 100.94 71.4917 100.504L71.4692 100.484L71.4401 100.488C70.4574 100.63 69.4642 100.729 68.4878 100.784C67.7385 100.826 66.9812 100.843 66.2369 100.833C65.0734 100.819 63.9066 100.741 62.7689 100.601L62.5647 100.576L62.7174 100.718C67.6701 105.316 73.5287 107.688 80.1315 107.77C81.054 107.781 82.0042 107.747 82.9558 107.67C92.0461 106.925 100.597 102.285 106.17 98.5231C108.979 96.6277 111.745 94.4724 114.171 92.2902C116.27 90.4015 118.056 88.5441 119.2 87.0602L119.245 87.0027L119.185 86.9624C117.165 85.5898 115.4 83.6534 113.942 81.2079C112.763 79.2311 112.07 77.3727 111.762 76.441L111.736 76.3603L111.666 76.4057C111.462 76.5375 111.26 76.6669 111.065 76.79C110.379 77.2217 109.775 77.5869 109.212 77.9093C110.501 76.8747 111.847 75.7833 113.177 74.6569C113.611 74.288 113.967 73.982 114.297 73.6939L114.575 73.4508L114.85 73.2063C114.959 73.1105 115.069 73.0113 115.174 72.9151C115.249 72.8479 115.323 72.7806 115.398 72.7134C116.215 71.9689 116.905 71.3022 117.509 70.674C117.557 70.6233 117.605 70.5725 117.652 70.5221C117.769 70.3983 117.89 70.2702 118.005 70.1408C118.033 70.1088 118.062 70.0769 118.091 70.0453C118.143 69.9884 118.196 69.9296 118.247 69.8704L118.48 69.5977C118.516 69.557 118.549 69.516 118.581 69.4767L118.816 69.1865L119.097 68.8146L119.139 68.7524C119.15 68.7356 119.162 68.7191 119.173 68.7027C119.193 68.6744 119.213 68.6452 119.233 68.6139L119.323 68.4693C119.454 68.2511 119.564 68.0493 119.66 67.853C119.67 67.8338 119.68 67.8146 119.689 67.7955C119.706 67.7615 119.724 67.7275 119.74 67.6926L119.815 67.5315C119.85 67.4592 119.884 67.3846 119.915 67.3119C119.931 67.2753 119.948 67.2386 119.965 67.2013C120.143 66.7924 120.319 66.3476 120.502 65.8412C120.818 64.9653 121.112 64.0426 121.402 63.0211C121.455 62.8375 121.507 62.6503 121.557 62.469L121.602 62.3039C121.625 62.2168 121.648 62.1301 121.672 62.043C121.712 61.893 121.754 61.7377 121.793 61.5847C121.906 61.1567 122.021 60.697 122.156 60.1382C122.381 59.197 122.6 58.2165 122.807 57.2236C122.997 56.3114 123.183 55.3514 123.375 54.2882C123.544 53.3534 123.71 52.3609 123.869 51.338C123.911 51.0744 123.947 50.8323 123.981 50.5986C124.011 50.4043 124.039 50.2062 124.066 50.0152L124.089 49.8582L124.193 49.1174L124.291 48.3764C124.43 47.291 124.542 46.3196 124.634 45.4063C124.735 44.4087 124.82 43.4074 124.889 42.4302C124.963 41.3203 125.01 40.3465 125.034 39.4528L125.043 39.0806L125.048 38.7093C125.051 38.5728 125.052 38.4511 125.053 38.3375L125.053 38.3381Z" fill="#F37326"/>
<path d="M61.3163 73.8591C60.5111 73.0944 59.5122 72.0884 59.0961 71.5649C58.6403 70.9919 57.8877 69.6994 56.8885 66.7969C56.113 64.5444 55.3465 61.7667 54.6713 58.7634C53.2933 52.6343 52.4858 46.4868 52.456 41.897L52.4554 41.8005L52.5436 41.8332C56.4475 43.2726 60.0173 44.9861 63.4571 47.0712C66.9819 49.2077 70.3081 51.6962 73.6263 54.6787L73.7496 54.7893L72.7864 54.831L73.462 55.2893C74.5547 56.0304 75.2188 56.8417 75.5834 57.3918L75.662 57.5105L75.5229 57.4967C75.0158 57.4466 74.5055 57.4181 74.0061 57.412C72.5646 57.3942 71.3668 57.561 70.4452 57.9076L69.5766 58.2345L70.4826 58.4238C71.7938 58.6978 72.7157 59.2617 73.2584 59.6867L73.4293 59.8205L73.2148 59.8074C73.0105 59.795 72.8069 59.7872 72.6102 59.7849C71.6391 59.7728 70.8425 59.8814 70.2426 60.1077L69.5713 60.3609L70.2426 60.6131C70.2968 60.6336 70.3537 60.6571 70.4162 60.686L70.3679 60.8111C70.2539 60.7701 70.1484 60.7378 70.0463 60.7116C69.7551 60.6336 69.4444 60.5919 69.1215 60.5878C68.8012 60.5838 68.4743 60.6168 68.1504 60.686C67.8449 60.7492 67.5309 60.8494 67.1902 60.9923C67.0424 61.0566 66.8831 61.1282 66.7274 61.2112C66.6663 61.2422 66.6061 61.2758 66.5479 61.3084L66.4997 61.3353C66.4442 61.3666 66.386 61.4015 66.3301 61.4352L66.2729 61.4695L66.1149 61.569L66.0849 61.5885L66.0578 61.6067C65.9874 61.6534 65.9146 61.7038 65.8413 61.757C65.7051 61.8555 65.5653 61.9658 65.4255 62.0845C65.1617 62.3091 64.9062 62.5602 64.6662 62.8306C64.216 63.3417 63.8118 63.9274 63.4654 64.5717C63.156 65.145 62.8797 65.7744 62.6447 66.4425C62.446 67.0138 62.2702 67.6298 62.1218 68.273C62.0018 68.8009 61.902 69.3483 61.816 69.9462C61.7529 70.3887 61.704 70.8423 61.662 71.3732C61.6276 71.8164 61.6141 72.1963 61.6065 72.4781C61.6055 72.5124 61.6048 72.5457 61.6042 72.5783V72.5823C61.5744 72.9499 61.5298 73.3113 61.4713 73.6563L61.4706 73.6603L61.4654 73.6782C61.4508 73.7279 61.4373 73.778 61.4237 73.8274L61.3949 73.9334L61.3163 73.8587V73.8591Z" fill="#F37326"/>
<path d="M75.6845 106.16C75.0667 106.035 74.4562 105.876 73.8705 105.688C73.4802 105.563 73.0915 105.422 72.715 105.269L72.639 105.238L72.6849 105.168C73.1596 104.452 73.339 103.704 73.2187 102.943C73.0535 101.898 72.3719 101.059 71.8292 100.539L71.7303 100.444L71.8642 100.423C72.1726 100.375 72.4793 100.323 72.7761 100.268C74.1644 100.013 75.5754 99.6639 76.9699 99.2312C78.297 98.8206 79.6591 98.3105 81.019 97.7144C81.6516 97.438 82.2915 97.1353 82.9757 96.7893L83.2177 96.6673L83.457 96.5422C83.5135 96.5123 83.5703 96.4824 83.6275 96.4528C83.7287 96.4 83.8334 96.3452 83.9349 96.2894L84.4115 96.0294L84.8829 95.7628C85.5082 95.4034 86.132 95.0254 86.7362 94.6394C87.3341 94.2544 87.9386 93.8455 88.5333 93.4242C89.0955 93.0234 89.6643 92.5984 90.2722 92.1246C90.8093 91.7033 91.3587 91.2524 91.952 90.7467C92.5446 90.2346 93.0741 89.7598 93.5706 89.2955C93.6565 89.2165 93.7421 89.1344 93.8251 89.0551C93.8717 89.0103 93.9186 88.9656 93.9656 88.9212L94.0059 88.8829C94.1216 88.7726 94.2415 88.659 94.3566 88.5446L94.7456 88.163L95.1287 87.777L95.3204 87.5837L95.8863 86.9952L96.2581 86.5978L96.4439 86.3987L96.9929 85.7938L97.5888 85.1187L97.5578 85.3369C97.3152 87.0457 96.6997 90.4501 95.3055 94.054C94.3205 96.5997 93.1048 98.8068 91.6918 100.614L91.6641 100.65L91.6218 100.637C91.314 100.54 90.4626 100.304 89.2089 100.193C88.8443 100.161 88.4682 100.142 88.0913 100.138C86.3567 100.116 84.6287 100.382 82.9549 100.928C80.1943 101.828 78.3681 103.22 77.3223 104.23C76.4054 105.115 75.9188 105.854 75.7523 106.131L75.7285 106.171L75.6838 106.161L75.6845 106.16Z" fill="#601D15"/>
<path d="M79.0165 106.513C78.0117 106.501 77.0079 106.405 76.0328 106.227L75.935 106.21L75.9899 106.124C76.1984 105.799 76.6665 105.14 77.4571 104.376C78.488 103.38 80.2891 102.008 83.0147 101.119C84.6683 100.58 86.3758 100.318 88.0893 100.339C88.4572 100.344 88.8241 100.361 89.1801 100.393C90.2649 100.488 91.0575 100.683 91.4333 100.79L91.5308 100.818L91.466 100.898C89.3605 103.489 86.8578 105.172 84.0267 105.899C82.3599 106.327 80.6742 106.534 79.0172 106.513H79.0165Z" fill="#EC554A"/>
<path d="M59.6084 79.2409L61.7674 79.2675L61.0254 77.6689L59.6084 79.2409Z" fill="#F37326"/>
<path d="M71.139 100.303C71.139 100.303 75.1569 102.12 82.9796 98.7235C88.7385 96.2232 90.9511 91.3503 90.9511 91.3503C90.9511 91.3503 80.8255 99.0419 71.1393 100.303L71.139 100.303Z" fill="white"/>
<path d="M73.4884 64.2887C73.4884 64.2887 73.7971 66.0842 75.698 64.4719C77.5407 59.7228 86.666 55.473 89.8276 65.8065C92.7237 75.421 89.106 80.7525 89.106 80.7525L76.8314 79.8574C76.8314 79.8574 73.4335 78.3191 71.1056 79.8211C68.7777 81.3231 62.2391 72.5075 62.2391 72.5075C62.2391 72.5075 62.2589 64.45 66.4177 62.059C71.4814 58.548 73.4887 64.289 73.4887 64.289L73.4884 64.2887Z" fill="url(#paint1_linear_113_240)"/>
<path d="M74.5309 55.4327C74.5309 55.4327 80.8662 55.6758 85.6285 60.013C90.5419 61.2037 93.9457 61.3621 93.9457 61.3621L95.1948 59.3348L87.0336 58.4317C87.0336 58.4317 79.002 54.5884 74.5306 55.4324L74.5309 55.4327Z" fill="url(#paint2_linear_113_240)"/>
<path d="M64.8248 47.9248C64.8248 47.9248 70.5404 55.144 71.452 57.421C72.3633 59.6977 70.4944 60.7868 70.4944 60.7868C70.4944 60.7868 71.5898 60.1634 71.9065 60.1896C72.2231 60.2159 73.9488 60.0131 73.9488 60.0131L71.7376 58.114C71.7376 58.114 72.2773 57.6836 73.4332 57.6977C74.5891 57.7119 76.1581 57.8211 76.1581 57.8211L73.9667 55.0767L74.3038 54.4382L64.8252 47.9251L64.8248 47.9248Z" fill="url(#paint3_linear_113_240)"/>
<path d="M58.5117 70.6625C58.5117 70.6625 60.747 71.8531 62.2804 69.2493C62.0817 71.6282 61.5139 74.535 61.5139 74.535C61.5139 74.535 59.0709 72.9866 58.5117 70.6625Z" fill="url(#paint4_linear_113_240)"/>
<path d="M48.5471 82.0952C48.5471 82.0952 56.98 79.0872 72.7384 80.5589C56.5589 77.5512 47.0508 81.0055 47.0508 81.0055L48.5471 82.0952Z" fill="#F78F39"/>
<path d="M53.9245 53.2319C53.9245 53.2319 57.2824 68.2604 59.4847 70.9241C61.6871 73.5875 61.7938 73.8356 61.7938 73.8356L61.5165 74.3188C61.5165 74.3188 58.432 72.2408 57.7706 70.4839C57.1092 68.7271 53.4572 53.9522 53.4572 53.9522L53.9245 53.2319Z" fill="#F78F39"/>
<path d="M74.7927 55.6645C74.7927 55.6645 79.9539 55.6941 84.5384 57.6668C79.3051 54.7654 74.3854 55.0724 74.3854 55.0724C74.3854 55.0724 74.4968 55.3787 74.7927 55.6645Z" fill="#F78F39"/>
<path d="M71.9898 58.3302C71.9898 58.3302 74.4889 58.0962 76.6827 58.2666C74.242 57.5397 71.5327 58.152 71.5327 58.152L71.9898 58.3302Z" fill="#F78F39"/>
<path d="M72.3107 62.1065C72.3107 62.1065 72.152 61.1953 71.8132 60.7488C72.8643 60.3981 74.9169 60.6314 74.9169 60.6314C74.9169 60.6314 72.6151 60.0037 70.9651 60.4001C71.3743 60.9677 72.311 62.1065 72.311 62.1065H72.3107Z" fill="#F78F39"/>
<path d="M92.4603 63.1758C92.4603 63.1758 103.959 51.6261 108.264 48.4664C107.819 48.2129 106.794 47.9089 106.794 47.9089C106.794 47.9089 98.2142 54.6452 92.4603 63.1758Z" fill="#F78F39"/>
<path d="M113.528 51.8247C113.528 51.8247 102.309 62.2234 99.9974 71.4755C103.585 68.9419 106.151 68.6595 106.151 68.6595C106.151 68.6595 103.574 71.497 103.246 73.3087C105.374 72.3262 106.709 72.3202 106.709 72.3202C106.709 72.3202 105.387 73.5434 105.083 74.3316C106.6 74.4822 107.594 74.8137 107.594 74.8137L107.139 75.8793C107.139 75.8793 108.424 76.4254 110.615 76.7757C111.802 76.2384 112.067 75.5848 112.067 75.5848L110.491 66.9974L113.528 51.8237V51.8247Z" fill="url(#paint5_linear_113_240)"/>
<path d="M108.548 78.3565C108.548 78.3565 110.056 83.1675 114.228 87.2317C109.182 97.9522 93.4766 105.642 93.4766 105.642C93.4766 105.642 111.239 98.1119 119.825 86.7852C115.092 83.297 111.863 75.8936 111.863 75.8936L108.548 78.3565Z" fill="url(#paint6_linear_113_240)"/>
<path d="M63.2839 100.164C63.2839 100.164 66.3049 103.823 70.7407 105.882C66.2689 104.663 61.6567 100.333 61.6567 100.333L63.2839 100.164Z" fill="#F78F39"/>
<path d="M60.6869 79.3332L61.3972 78.2579L61.2022 77.4197L59.8348 79.454L60.6869 79.3332Z" fill="#F78F39"/>
<path d="M91.625 100.752C91.625 100.752 88.9652 105.369 82.5198 106.253C85.4252 105.996 88.8651 102.97 87.5542 101.429C86.2433 99.8882 82.8021 101.19 82.8021 101.19C82.8021 101.19 86.6326 99.2897 91.625 100.751V100.752Z" fill="url(#paint7_linear_113_240)"/>
<path d="M83.0312 82.5206C83.0312 82.5206 88.7117 85.2476 92.6576 80.6104C86.9305 80.2254 83.0312 82.5206 83.0312 82.5206Z" fill="url(#paint8_linear_113_240)"/>
<path d="M43.4665 81.5393C43.4665 81.5393 45.8206 81.66 45.8301 83.4633C45.8397 85.2665 43.7081 86.1566 42.8203 85.4253C44.8385 87.4531 48.3319 84.8267 48.4185 83.1802C48.5051 81.5336 46.1253 80.8668 43.4665 81.5393Z" fill="url(#paint9_linear_113_240)"/>
<path d="M47.6705 81.9493C47.6705 81.9493 43.886 81.1181 41.9064 82.4385C39.9265 83.7593 44.2155 86.0874 44.8491 85.9832C43.5627 86.4791 41.9342 84.9496 41.9342 84.9496C41.9342 84.9496 40.2961 83.8366 40.7383 82.5306C41.1802 81.2246 45.9101 80.605 47.6705 81.9493Z" fill="url(#paint10_linear_113_240)"/>
<path d="M75.934 77.7344C75.934 77.7344 76.5977 83.1806 84.0281 82.0017C86.8075 81.2889 88.7477 80.6601 88.7477 80.6601C88.7477 80.6601 92.3866 70.4403 84.2085 67.8509C75.5466 66.5335 75.934 77.7341 75.934 77.7341V77.7344Z" fill="white"/>
<path d="M71.9095 78.0629C71.9095 78.0629 71.7346 79.5333 70.6753 80.1648C66.1526 79.5989 61.5612 79.2647 61.5612 79.2647C61.5612 79.2647 60.2228 71.1404 65.5946 69.3404C70.9664 67.5405 72.3477 75.8185 71.9095 78.0629Z" fill="white"/>
<path d="M44.4644 86.5785C44.4644 86.5785 52.2045 99.2667 72.5335 96.612C86.2023 94.8269 97.6004 84.4746 97.6004 84.4746C97.6004 84.4746 86.3848 99.9055 69.566 100.111C52.7472 100.316 46.5507 93.5149 44.4644 86.5785Z" fill="#F6CBAE"/>
<path d="M109.965 74.894C109.965 74.894 107.804 73.8079 106.036 73.8873C107.562 72.2081 109.024 71.7719 109.024 71.7719C109.024 71.7719 106.739 71.3066 104.35 72.2242C106.596 68.8446 109.58 67.469 109.58 67.469C109.58 67.469 106.383 66.7572 101.351 69.6318C112.509 49.8401 124.292 41.7302 124.292 41.7302L124.945 44.9087C123.942 53.8199 122.917 61.1204 119.627 68.9983C119.627 68.9983 113.986 74.9007 112.067 75.5853C110.149 76.2699 108.152 75.6754 108.152 75.6754L109.965 74.8936L109.965 74.894Z" fill="#F6CBAE"/>
<path d="M97.6004 84.4746C97.6004 84.4746 91.8944 92.066 82.076 96.805C92.5234 92.1147 97.6681 84.8193 97.6681 84.8193C97.6681 84.8193 95.673 112.985 72.5424 105.302C74.1131 103.122 71.9934 100.645 71.5075 100.125C69.6033 100.415 67.6125 100.557 65.5408 100.51C65.5408 100.51 67.6932 103.976 72.1683 106.703C75.1949 108.547 79.437 108.547 79.437 108.547C79.437 108.547 81.8975 108.712 85.3968 107.944C91.6548 106.573 101.727 102.275 110.488 89.1111C102.592 88.7614 97.6004 84.4746 97.6004 84.4746Z" fill="#F6CBAE"/>
<path d="M53.1944 54.4433C53.1944 54.4433 56.1652 47.8112 65.3243 47.9242C61.3123 44.0412 51.9651 41.0903 51.9651 41.0903C51.9651 41.0903 51.5761 47.9339 53.1944 54.4433Z" fill="#7D291B"/>
<path d="M107.29 48.1773C107.29 48.1773 110.816 48.9228 113.647 51.9503C120.979 43.7971 124.293 41.7305 124.293 41.7305L124.811 44.6962L125.445 36.8069C125.445 36.8069 114.841 41.1599 107.29 48.1773Z" fill="#7D291B"/>
<path d="M79.0003 106.787C78.7515 106.784 78.5032 106.775 78.2557 106.762C76.7223 106.68 75.2158 106.403 73.7779 105.94C71.3257 105.149 69.9421 104.104 69.8843 104.06L70.0796 103.79C70.0935 103.8 71.4864 104.851 73.89 105.623C76.1062 106.336 79.6611 106.95 84.0105 105.834C90.129 104.263 93.4971 98.5469 95.245 94.0284C97.1459 89.1152 97.5878 84.5955 97.5921 84.5497L97.9256 84.5063C97.9213 84.5527 97.4665 89.1953 95.5488 94.1525C94.4203 97.0691 93.0136 99.5244 91.3672 101.45C89.3024 103.865 86.8538 105.45 84.0892 106.16C82.3863 106.597 80.6778 106.807 78.9997 106.787H79.0003Z" fill="#601D15"/>
<path d="M72.6148 105.384L72.354 105.181C72.8743 104.474 73.0785 103.736 72.9609 102.988C72.7156 101.431 71.1548 100.314 71.139 100.303L71.3241 100.025C71.3928 100.074 73.0147 101.232 73.2835 102.933C73.4167 103.775 73.1919 104.6 72.6148 105.384Z" fill="#601D15"/>
<path d="M75.9208 106.366L75.6345 106.203C75.6544 106.166 76.1343 105.285 77.2783 104.18C78.329 103.165 80.1635 101.766 82.936 100.863C85.5141 100.023 87.774 99.9984 89.2151 100.126C90.7815 100.264 91.7255 100.598 91.7648 100.613L91.6567 100.93C91.6475 100.927 90.7031 100.594 89.1744 100.46C87.765 100.336 85.5558 100.362 83.0345 101.183C80.3208 102.068 78.528 103.434 77.502 104.425C76.3954 105.494 75.9254 106.357 75.9208 106.366Z" fill="#601D15"/>
<path d="M92.4603 63.1758C92.6606 62.7625 92.8827 62.3617 93.1111 61.965C93.3395 61.5682 93.5781 61.1778 93.8227 60.7915C93.8835 60.6946 93.9447 60.5981 94.0075 60.5026L94.1949 60.2155L94.384 59.9293L94.576 59.6456C94.8341 59.2686 95.0966 58.8947 95.3656 58.5259C96.4402 57.0491 97.5977 55.6362 98.8184 54.2838C99.4292 53.608 100.056 52.9469 100.69 52.2943C100.849 52.1318 101.007 51.9678 101.168 51.807L101.65 51.3235L102.137 50.8454L102.629 50.3723C103.287 49.7442 103.955 49.1262 104.633 48.5202C105.313 47.9167 106.004 47.3252 106.703 46.7445L107.23 46.3121L107.762 45.8864C107.939 45.7439 108.118 45.6043 108.298 45.4648C108.477 45.3259 108.655 45.184 108.836 45.0475L109.379 44.6353C109.56 44.4988 109.744 44.3653 109.926 44.2301L110.201 44.028L110.477 43.8296C110.662 43.6975 110.845 43.564 111.031 43.4335C111.403 43.174 111.774 42.9114 112.151 42.6602C112.526 42.4043 112.907 42.1575 113.286 41.9083C113.475 41.7843 113.668 41.6642 113.859 41.5418C114.05 41.4198 114.242 41.2987 114.436 41.1811L115.015 40.8256L115.6 40.478L115.892 40.3045L116.187 40.1353L116.777 39.7984L117.372 39.4702L117.67 39.3062L117.969 39.1464L118.57 38.8294L119.175 38.521L119.477 38.367C119.578 38.3156 119.681 38.2675 119.782 38.2177L120.393 37.9212C121.21 37.5345 122.033 37.1589 122.868 36.8116C123.699 36.4568 124.543 36.134 125.389 35.8227L126.257 35.5039L126.274 36.4168C126.34 37.4373 126.365 38.4571 126.359 39.4743C126.354 40.4918 126.317 41.5065 126.262 42.5193C126.233 43.0253 126.201 43.5314 126.162 44.0364C126.124 44.5418 126.081 45.0462 126.033 45.5502C125.937 46.5579 125.825 47.5636 125.697 48.5667C125.57 49.57 125.425 50.5703 125.267 51.5686C125.188 52.0676 125.106 52.5663 125.019 53.0643C124.932 53.5619 124.843 54.0592 124.749 54.5555C124.656 55.0521 124.559 55.5477 124.458 56.043C124.356 56.538 124.252 57.0323 124.143 57.5259C124.035 58.0195 123.921 58.5121 123.806 59.004C123.687 59.4956 123.567 59.9865 123.44 60.4764C123.314 60.9663 123.184 61.4552 123.048 61.9431C122.912 62.431 122.769 62.9172 122.62 63.4021C122.472 63.8869 122.317 64.3705 122.152 64.852C121.988 65.3335 121.816 65.8136 121.631 66.2901C121.445 66.7669 121.247 67.241 121.027 67.7104C120.971 67.8274 120.918 67.9451 120.858 68.0617L120.77 68.2369C120.74 68.2951 120.708 68.3533 120.678 68.4111C120.556 68.6434 120.421 68.8738 120.276 69.1021L120.163 69.2726C120.125 69.3294 120.082 69.3855 120.042 69.442L120.011 69.4844L119.996 69.5056L119.989 69.516C119.972 69.5385 119.98 69.5274 119.974 69.5348L119.916 69.6078L119.8 69.7534L119.683 69.899L119.554 70.0493L119.424 70.1996C119.381 70.2497 119.338 70.3001 119.295 70.3465L119.035 70.6293C118.948 70.7238 118.858 70.8129 118.77 70.9047C118.594 71.0893 118.41 71.2628 118.23 71.4407C117.498 72.1384 116.736 72.789 115.957 73.4124C115.567 73.7224 115.173 74.0277 114.774 74.324C114.575 74.4732 114.375 74.6205 114.175 74.7661C113.974 74.9117 113.771 75.0549 113.569 75.1989C112.758 75.7691 111.935 76.3202 111.098 76.8478C110.261 77.3747 109.415 77.8858 108.547 78.3572C110.094 77.1178 111.631 75.8787 113.135 74.6057C113.51 74.287 113.884 73.9665 114.254 73.6434L114.531 73.4006L114.807 73.1558C114.991 72.9941 115.171 72.8273 115.354 72.6639C116.079 72.0035 116.788 71.3287 117.462 70.6283C117.627 70.4511 117.797 70.2769 117.956 70.0964C118.036 70.0062 118.12 69.9181 118.197 69.8267L118.432 69.5533C118.472 69.5079 118.508 69.4625 118.545 69.4175L118.654 69.282L118.764 69.1465L118.876 68.9978L118.988 68.8489L119.045 68.7746L119.085 68.7154C119.116 68.6697 119.148 68.6266 119.177 68.5785L119.267 68.4353C119.384 68.2396 119.497 68.0365 119.602 67.8237C119.628 67.7706 119.655 67.7188 119.68 67.6646L119.756 67.5029C119.808 67.396 119.855 67.2843 119.904 67.1751C120.097 66.7339 120.274 66.2796 120.44 65.8193C120.772 64.898 121.069 63.9559 121.339 63.0033C121.407 62.7656 121.472 62.5265 121.538 62.2878C121.602 62.048 121.667 61.8093 121.729 61.5689C121.855 61.0891 121.975 60.6069 122.091 60.124C122.323 59.1573 122.539 58.1863 122.742 57.2115C122.945 56.2367 123.133 55.2582 123.31 54.2778C123.487 53.2973 123.651 52.3141 123.804 51.3292C123.843 51.0831 123.88 50.8366 123.916 50.5902C123.954 50.3437 123.988 50.0972 124.023 49.8504L124.127 49.1104L124.225 48.3696C124.351 47.3814 124.468 46.3918 124.568 45.4012C124.668 44.4107 124.754 43.4194 124.823 42.4275C124.889 41.4359 124.942 40.4437 124.967 39.4531L124.976 39.0815L124.982 38.7103C124.984 38.5866 124.986 38.4629 124.986 38.3391L124.989 37.9682C124.989 37.474 124.98 36.9804 124.966 36.4874L125.851 37.0812C125.037 37.4289 124.225 37.7769 123.422 38.1498L123.121 38.2883C123.021 38.3341 122.92 38.3808 122.821 38.4289L122.222 38.7144C122.021 38.8078 121.824 38.9087 121.626 39.0062C121.428 39.1047 121.228 39.2009 121.031 39.3011L120.441 39.6044C120.343 39.6552 120.244 39.7049 120.146 39.7564L119.853 39.9121L119.267 40.2234L118.685 40.5435L118.394 40.7032L118.105 40.867L117.527 41.1945L116.954 41.5307L116.667 41.6989L116.382 41.8704L115.813 42.2137L115.248 42.5647C115.154 42.6235 115.059 42.681 114.966 42.7412L114.686 42.9204C114.499 43.0401 114.311 43.1575 114.125 43.2792C113.754 43.523 113.382 43.7644 113.016 44.0153C112.647 44.2621 112.282 44.5163 111.917 44.7684C111.19 45.2792 110.47 45.8007 109.758 46.3343C109.047 46.8693 108.343 47.4143 107.649 47.9728C106.955 48.531 106.268 49.0996 105.591 49.6806C104.915 50.262 104.245 50.8524 103.586 51.4553C102.927 52.0582 102.276 52.6708 101.634 53.2942C100.992 53.917 100.362 54.5531 99.7382 55.1957C99.1139 55.8379 98.4948 56.4859 97.88 57.1392C97.2649 57.7922 96.6544 58.4509 96.0492 59.116C95.7454 59.4475 95.4443 59.7821 95.1432 60.117L94.692 60.6203L94.2428 61.1264C93.6446 61.8029 93.0506 62.4841 92.4596 63.1775L92.4603 63.1758Z" fill="#601D15"/>
<path d="M61.0862 75.3674C60.2691 74.6337 58.7127 73.1028 58.1329 72.3741C57.3793 71.4266 56.5662 69.6939 55.7161 67.2242C54.9254 64.9273 54.1451 62.1015 53.4595 59.0525C52.7575 55.9294 52.1807 52.6833 51.792 49.6649C51.3643 46.3435 51.1713 43.4074 51.2182 40.9383L51.2357 40.0164L52.0845 40.3146C56.624 41.9091 61.0975 44.1101 65.3808 46.8566C68.856 49.0849 72.4539 51.8875 75.6237 54.7825L74.0484 55.1514C67.2556 48.9473 60.3339 44.7779 52.5208 41.897C52.5502 46.4359 53.361 52.6403 54.7344 58.7485C55.409 61.7492 56.1752 64.5245 56.9496 66.7747C57.9455 69.668 58.6938 70.9535 59.1463 71.5224C59.6752 72.1875 61.1827 73.6673 61.9476 74.3543L61.0859 75.3674H61.0862Z" fill="#601D15"/>
<path d="M108.152 75.676L108.053 75.3555C108.092 75.3428 108.869 75.0899 109.646 74.9251C107.859 74.101 106.015 74.1037 105.995 74.104L105.635 74.1067L105.87 73.8263C105.922 73.7648 106.995 72.5012 108.525 71.8603C105.913 71.6575 104.34 72.4796 104.323 72.4887L103.762 72.7893L104.112 72.2466C104.134 72.2117 104.672 71.3818 105.625 70.3539C106.416 69.5002 107.636 68.3654 109.127 67.5722C107.1 67.4047 105.167 68.0227 103.857 68.6004C102.304 69.285 101.272 70.059 101.261 70.0668L100.689 70.4992L101.02 69.8529C104.667 62.7407 109.489 56.5235 112.891 52.5602C116.809 47.9967 121.047 43.8619 124.229 41.4991L124.432 41.3481L124.484 41.6003C125.261 45.3441 125.037 49.2616 125.034 49.301L124.708 49.2805C124.71 49.2428 124.921 45.5438 124.215 41.9251C118.47 46.2694 107.909 57.4489 101.614 69.4228C102.076 69.1266 102.808 68.6969 103.728 68.2917C105.196 67.6444 107.429 66.9478 109.732 67.3059L110.285 67.3919L109.773 67.6256C107.294 68.7591 105.442 70.9891 104.718 71.9611C105.504 71.6821 107.106 71.2883 109.326 71.6121L110.18 71.7369L109.34 71.9423C107.973 72.2762 106.843 73.294 106.364 73.7812C107.083 73.8246 108.718 74.0163 110.244 74.8528L110.682 75.0936L110.19 75.1676C109.312 75.299 108.164 75.6729 108.152 75.677V75.676Z" fill="#601D15"/>
<path d="M95.0972 59.9397C95.0556 59.9327 91.3692 59.3133 87.4071 59.0921C86.8796 59.0625 85.8503 57.6829 85.8503 57.6829C90.4496 57.7952 95.2638 58.6045 95.3118 58.6126L95.0972 59.9394V59.9397Z" fill="#601D15"/>
<path d="M58.6786 79.0528C60.3964 77.2727 61.3559 75.1231 61.5476 72.4731C61.5476 72.4731 61.8289 75.729 61.2895 77.8103C60.951 78.382 60.5577 78.9253 60.1088 79.4421C59.9703 79.6019 58.6786 79.0528 58.6786 79.0528Z" fill="#601D15"/>
<path d="M75.934 77.7343C75.934 77.7343 75.9297 77.7044 75.9208 77.6462C75.9119 77.5881 75.9013 77.502 75.8878 77.3887C75.8626 77.1624 75.8329 76.8292 75.824 76.4021C75.8164 75.9754 75.8309 75.4553 75.8973 74.8611C75.9635 74.2673 76.0821 73.5992 76.2913 72.8884C76.5019 72.1792 76.801 71.4244 77.2429 70.69C77.352 70.5058 77.472 70.3245 77.5993 70.145C77.7262 69.9651 77.8637 69.7892 78.0108 69.6177C78.3033 69.2738 78.6384 68.9516 79.0106 68.6641C79.197 68.5209 79.394 68.3878 79.5986 68.265C79.8032 68.142 80.0168 68.0303 80.2376 67.9332C80.4584 67.8356 80.6851 67.7489 80.9178 67.6769C81.1502 67.6053 81.3875 67.5482 81.6278 67.5024C81.7481 67.4822 81.8684 67.4604 81.99 67.4463C82.0505 67.4382 82.1113 67.4298 82.1722 67.4248L82.2634 67.416L82.309 67.4116L82.3318 67.4093L82.3434 67.4083L82.3619 67.4069L82.5361 67.3968L82.6233 67.3918C82.6514 67.3898 82.6855 67.3901 82.7162 67.3891L82.9053 67.3861C82.937 67.3851 82.9681 67.3854 82.9988 67.3868L83.0914 67.3891C83.3383 67.3928 83.5852 67.4174 83.8318 67.4486L84.0162 67.4782C84.0469 67.4833 84.0777 67.4876 84.1084 67.4937L84.2 67.5125C84.2611 67.5253 84.3223 67.5371 84.3831 67.5508L84.5649 67.5966C84.6257 67.611 84.6855 67.6292 84.7454 67.6473C84.8052 67.6658 84.8653 67.6827 84.9248 67.7025C85.0428 67.7442 85.1618 67.7832 85.2775 67.8319C85.5109 67.9227 85.7369 68.0323 85.9568 68.1517L86.1204 68.2438C86.1739 68.2761 86.2268 68.3097 86.2797 68.3424L86.359 68.3921L86.4364 68.4449C86.4879 68.4802 86.5398 68.5149 86.5904 68.5508C86.6902 68.6255 86.7917 68.6974 86.8872 68.7771C86.9351 68.8165 86.9847 68.8541 87.031 68.8951L87.1708 69.0172C87.9076 69.6803 88.488 70.4809 88.9177 71.3151C89.0271 71.5229 89.1226 71.7357 89.2148 71.9469C89.3034 72.1597 89.3873 72.3722 89.4601 72.5858C89.6081 73.0125 89.7255 73.4385 89.8164 73.8584C89.9972 74.6987 90.0676 75.5118 90.0666 76.2606C90.0659 76.6351 90.0487 76.9939 90.0157 77.3335C89.9836 77.6735 89.9357 77.9936 89.8815 78.2928C89.8266 78.5921 89.7605 78.8692 89.6947 79.1237C89.625 79.3772 89.5562 79.6089 89.4835 79.8147C89.3407 80.2269 89.2052 80.542 89.1071 80.7535C89.0588 80.8597 88.367 80.773 88.367 80.773C88.367 80.773 88.3789 80.7467 88.402 80.6956C88.4245 80.6442 88.4609 80.5695 88.5025 80.4693C88.5881 80.2699 88.7071 79.9741 88.8301 79.587C88.8925 79.394 88.9527 79.1768 89.0132 78.9398C89.07 78.7014 89.1266 78.4421 89.1728 78.1624C89.2634 77.6029 89.3275 76.9633 89.3189 76.2649C89.3116 75.5669 89.2356 74.8107 89.0667 74.0316C88.9808 73.6426 88.8701 73.2485 88.7319 72.8561C88.6638 72.6594 88.5855 72.4644 88.5035 72.2694C88.4179 72.076 88.3293 71.8817 88.2292 71.692C87.8388 70.9288 87.3149 70.2062 86.6621 69.6154L86.5382 69.5064C86.4972 69.4695 86.4532 69.4365 86.4109 69.4015C86.3266 69.3306 86.237 69.267 86.1491 69.2005C86.1045 69.1685 86.0586 69.1383 86.0133 69.1066L85.9452 69.0599L85.8754 69.0162C85.8288 68.9873 85.7826 68.9574 85.7353 68.9288L85.5922 68.8467C85.3998 68.7401 85.2025 68.6416 84.9982 68.5596C84.8974 68.5155 84.793 68.4806 84.6895 68.4426C84.6376 68.4244 84.5847 68.4093 84.5322 68.3925C84.4796 68.3757 84.4271 68.3592 84.3738 68.3461L84.2142 68.3037C84.1606 68.2913 84.1064 68.2802 84.0529 68.2684L83.9722 68.2509C83.9451 68.2455 83.918 68.2415 83.8909 68.2364L83.728 68.2085C83.5095 68.1789 83.29 68.1541 83.0692 68.1487L82.9866 68.1457C82.9588 68.1443 82.9314 68.1436 82.905 68.1443L82.744 68.145C82.7166 68.1457 82.6921 68.1443 82.662 68.146L82.5748 68.15L82.4002 68.1584L82.2426 68.1719C82.1877 68.1759 82.1332 68.1826 82.0786 68.1894C81.9692 68.2008 81.8615 68.2193 81.7537 68.2361C81.5389 68.2748 81.3273 68.3239 81.1198 68.383C80.9122 68.4429 80.7102 68.5162 80.5132 68.5989C80.3162 68.6813 80.1258 68.7768 79.9424 68.8824C79.7593 68.988 79.5824 69.1026 79.4139 69.2274C78.7393 69.7263 78.1988 70.3662 77.7814 71.0364C77.3649 71.7092 77.0585 72.4065 76.8232 73.0693C76.5898 73.7334 76.4242 74.3638 76.3042 74.9301C76.1839 75.4966 76.1082 75.999 76.0557 76.4152C76.0299 76.6234 76.0107 76.81 75.9942 76.9731C75.9869 77.0548 75.9803 77.1301 75.9744 77.1994C75.9691 77.2686 75.9641 77.3315 75.9598 77.388C75.9512 77.5006 75.9456 77.5877 75.9423 77.6466C75.9383 77.7051 75.9363 77.7353 75.9363 77.7353L75.934 77.7343Z" fill="#601D15"/>
<path d="M71.9095 78.0628C71.9095 78.0628 71.9025 77.966 71.8896 77.7848C71.8754 77.6039 71.8563 77.3392 71.8206 77.0057C71.7859 76.6718 71.7359 76.269 71.6609 75.812C71.5856 75.3554 71.4841 74.8447 71.342 74.2999C71.1985 73.7559 71.0144 73.1762 70.7576 72.5969C70.5001 72.0192 70.1616 71.4432 69.7157 70.9472C69.6043 70.8238 69.487 70.7045 69.3621 70.5932C69.2371 70.4822 69.1059 70.378 68.9687 70.2818C68.6941 70.0892 68.3926 69.9352 68.0753 69.8185C67.916 69.7613 67.7524 69.7146 67.5858 69.6773L67.4602 69.6514L67.3333 69.6302C67.291 69.6224 67.2483 69.6181 67.2053 69.6127L67.1412 69.6046L67.1254 69.6026C67.1211 69.6019 67.1346 69.6036 67.1247 69.6026L67.1161 69.6019L67.0811 69.5989L66.9413 69.5875C66.929 69.5861 66.9184 69.5858 66.9085 69.5855L66.8778 69.5845L66.816 69.5824L66.7542 69.5801C66.7333 69.5797 66.7115 69.5801 66.69 69.5801L66.5611 69.5811C66.3896 69.5882 66.219 69.6036 66.0501 69.6312C65.3749 69.7418 64.7412 70.0485 64.2097 70.4846C63.6759 70.92 63.2452 71.4775 62.9078 72.0656C62.5673 72.6537 62.3191 73.2767 62.139 73.8843C61.9615 74.4936 61.8481 75.0878 61.7836 75.6416C61.7185 76.1953 61.7046 76.7085 61.7129 77.1617C61.7172 77.3887 61.7304 77.6005 61.745 77.7962C61.7625 77.9916 61.7807 78.1711 61.8025 78.3322C61.8448 78.655 61.892 78.9061 61.9274 79.0766C61.9443 79.162 61.9601 79.2269 61.9694 79.271C61.979 79.315 61.9839 79.3375 61.9839 79.3375L61.351 79.5087C61.351 79.5087 61.3447 79.4845 61.3325 79.4381C61.3206 79.3913 61.3011 79.3224 61.2792 79.2316C61.2349 79.0504 61.1761 78.7827 61.1199 78.4384C61.0908 78.2666 61.0667 78.075 61.0436 77.8661C61.0231 77.657 61.0036 77.4304 60.9933 77.1876C60.9834 76.9448 60.9781 76.6863 60.9857 76.4139C60.9927 76.1415 61.0105 75.8551 61.0406 75.5572C61.1008 74.962 61.2118 74.3198 61.4029 73.6584C61.5949 72.9983 61.86 72.3154 62.2368 71.6581C62.2831 71.5757 62.3343 71.4953 62.3835 71.4136C62.4361 71.3336 62.486 71.2519 62.5419 71.1732C62.6493 71.0132 62.7676 70.8585 62.8906 70.7062C63.0145 70.5542 63.1474 70.4079 63.2862 70.2657C63.4274 70.1255 63.5751 69.99 63.7311 69.8625C63.8885 69.7364 64.0524 69.6174 64.2243 69.5085C64.3971 69.4012 64.5763 69.3027 64.7624 69.2166C64.9491 69.1325 65.1415 69.0606 65.3375 69.0007C65.5342 68.9426 65.7348 68.8985 65.9364 68.8662C66.1387 68.836 66.342 68.8198 66.5453 68.8145L66.6973 68.8151C66.7228 68.8151 66.7476 68.8151 66.7737 68.8161L66.852 68.8202L66.9303 68.8242L66.9693 68.8262C66.9826 68.8269 66.9955 68.8276 67.0067 68.8289L67.1462 68.8424L67.1809 68.8457L67.2063 68.8484L67.2252 68.8511L67.2999 68.8612C67.3498 68.8683 67.3994 68.8743 67.4489 68.8837L67.5974 68.9106L67.7448 68.9429C67.9408 68.9893 68.1338 69.0475 68.3222 69.1177C68.6984 69.26 69.053 69.4533 69.3717 69.686C69.531 69.8023 69.6824 69.9274 69.8245 70.0596C69.9669 70.1917 70.0992 70.3316 70.2238 70.4755C70.2866 70.5471 70.3454 70.6211 70.4042 70.6947C70.4608 70.7697 70.5179 70.8444 70.5705 70.9207C70.6776 71.073 70.7774 71.2273 70.8686 71.384C71.0521 71.6971 71.2071 72.0155 71.3386 72.3316C71.6044 72.9637 71.774 73.5884 71.8863 74.1691C71.9981 74.7505 72.0496 75.2902 72.0695 75.7676C72.0886 76.2451 72.0764 76.661 72.0506 77.0017C72.0258 77.3423 71.9888 77.6079 71.9597 77.7878C71.9448 77.8779 71.9329 77.9465 71.9237 77.9929C71.9148 78.039 71.9098 78.0628 71.9098 78.0628H71.9095Z" fill="#601D15"/>
<path d="M83.0312 82.5206C84.944 81.4234 88.167 80.2012 92.6576 80.6104C92.6576 80.6104 89.1444 80.8898 87.736 81.1578C85.7934 81.5273 83.0312 82.5206 83.0312 82.5206Z" fill="#601D15"/>
<path d="M86.394 76.7462C86.4013 78.465 85.378 79.8968 84.1074 79.9445C82.8378 79.9923 81.8026 78.6369 81.7943 76.9183C81.7877 75.1984 82.8101 73.7674 84.0806 73.719C85.3499 73.6719 86.3854 75.027 86.394 76.7462Z" fill="#303030"/>
<path d="M84.1064 79.615C82.973 79.657 82.0449 78.4435 82.0386 76.9082C82.0323 75.3732 82.9482 74.0908 84.081 74.0495C85.2153 74.0064 86.1438 75.2199 86.1494 76.7555C86.1564 78.2898 85.2398 79.5726 84.1061 79.615H84.1064Z" fill="url(#paint11_linear_113_240)"/>
<path d="M83.9564 77.8817C83.364 77.806 82.9446 77.2724 83.0206 76.6948C83.0956 76.1157 83.639 75.7065 84.231 75.7825C84.8233 75.8588 85.2438 76.3911 85.1684 76.9695C85.0931 77.5481 84.549 77.957 83.9567 77.8817H83.9564Z" fill="#303030"/>
<path d="M84.196 75.8835C84.1391 76.331 83.7197 76.6464 83.2612 76.5876C82.8041 76.5287 82.4795 76.1185 82.5387 75.671C82.5975 75.2231 83.0157 74.9077 83.4734 74.9665C83.9316 75.0254 84.2555 75.4356 84.1957 75.8835H84.196Z" fill="white"/>
<path d="M85.5042 78.0794C85.4656 78.3676 85.1972 78.57 84.9017 78.532C84.6088 78.494 84.4009 78.2311 84.4376 77.9433C84.4763 77.6551 84.7447 77.4527 85.0385 77.4907C85.333 77.5283 85.5419 77.7916 85.5042 78.0791V78.0794Z" fill="white"/>
<path d="M70.6822 76.7082C70.6888 78.2906 69.7468 79.609 68.5767 79.6531C67.408 79.6971 66.4547 78.4493 66.4471 76.8666C66.4408 75.2832 67.3822 73.9652 68.5523 73.9208C69.7207 73.8774 70.6743 75.1249 70.6822 76.7079V76.7082Z" fill="#303030"/>
<path d="M68.5761 79.3495C67.5326 79.3882 66.6778 78.2708 66.6722 76.8573C66.6663 75.444 67.5098 74.2631 68.5529 74.2251C69.5974 74.1855 70.4522 75.3028 70.4575 76.7167C70.4641 78.1293 69.6199 79.3105 68.5761 79.3495Z" fill="url(#paint12_linear_113_240)"/>
<path d="M68.4379 77.7537C67.8925 77.6841 67.5065 77.1928 67.5762 76.6605C67.6453 76.1276 68.1457 75.7507 68.6904 75.8206C69.2358 75.8909 69.6228 76.3808 69.5534 76.9137C69.484 77.4467 68.9829 77.8229 68.4376 77.7537H68.4379Z" fill="#303030"/>
<path d="M68.6584 75.9138C68.6058 76.3257 68.2198 76.6162 67.7977 76.5621C67.3769 76.5079 67.0778 76.1303 67.1327 75.7181C67.1869 75.3055 67.5719 75.0153 67.9934 75.0695C68.4151 75.1236 68.7136 75.5012 68.6584 75.9138Z" fill="white"/>
<path d="M69.8631 77.9354C69.8278 78.2007 69.5805 78.387 69.3082 78.352C69.0385 78.317 68.8471 78.0749 68.8808 77.81C68.9165 77.5447 69.1634 77.3584 69.4341 77.3934C69.7055 77.428 69.8979 77.6704 69.8631 77.9354Z" fill="white"/>
<path d="M61.5459 73.4506C61.5459 73.4506 61.5449 73.4278 61.5433 73.3834C61.5416 73.3397 61.5397 73.2758 61.5383 73.1927C61.536 73.0266 61.5337 72.7842 61.5416 72.4765C61.5502 72.1689 61.5641 71.7953 61.5975 71.3683C61.6312 70.9412 61.6775 70.4597 61.7522 69.9369C61.8272 69.4144 61.9247 68.8498 62.0589 68.258C62.1951 67.6669 62.3653 67.0482 62.5838 66.4201C62.8043 65.793 63.075 65.1575 63.4085 64.5395C63.741 63.9211 64.1439 63.324 64.6182 62.7856C64.8562 62.5173 65.112 62.2645 65.3841 62.0328C65.5202 61.9171 65.6601 61.8062 65.8038 61.7023C65.8759 61.6502 65.9486 61.5994 66.0223 61.5506L66.0498 61.5321L66.0808 61.512L66.134 61.4783L66.2401 61.4114C66.3155 61.3664 66.3929 61.319 66.4685 61.2762C66.5446 61.2339 66.6199 61.1908 66.6973 61.1515C66.85 61.0698 67.008 60.9985 67.1656 60.9299C67.4829 60.7968 67.8079 60.6885 68.1374 60.6202C68.7948 60.48 69.4658 60.4861 70.0627 60.6461C70.2121 60.6841 70.3563 60.7332 70.4957 60.7867C70.6352 60.8401 70.7691 60.901 70.8967 60.9672C71.1532 61.0987 71.3859 61.2517 71.5938 61.4165C72.0099 61.746 72.3361 62.1078 72.5857 62.4538C72.7113 62.6263 72.8194 62.7937 72.9129 62.9521C73.0061 63.1108 73.0831 63.2611 73.1493 63.3983C73.2811 63.673 73.3631 63.8976 73.4153 64.0516C73.4411 64.1286 73.46 64.1881 73.4715 64.2285C73.4834 64.2688 73.4894 64.2893 73.4894 64.2893C73.4894 64.2893 73.4804 64.2698 73.4629 64.2318C73.4457 64.1938 73.419 64.138 73.3839 64.0654C73.3125 63.9208 73.2028 63.712 73.0448 63.4595C72.8848 63.2086 72.6766 62.9134 72.4036 62.6095C72.1302 62.3072 71.7947 61.9914 71.3842 61.7238C71.2821 61.6562 71.1743 61.594 71.0636 61.5338C70.9532 61.473 70.8375 61.4178 70.7182 61.367C70.5989 61.3163 70.4756 61.2709 70.3483 61.2329C70.2211 61.1949 70.0912 61.1613 69.9573 61.1381C69.8238 61.1138 69.6876 61.0977 69.5494 61.0866C69.4113 61.0772 69.2708 61.0758 69.1293 61.0819C68.8464 61.0954 68.5588 61.1418 68.2729 61.2208C67.9873 61.2995 67.7031 61.4077 67.4244 61.5405C67.2856 61.6088 67.1471 61.6804 67.0113 61.7598C66.9425 61.7978 66.8754 61.8401 66.808 61.8812C66.7406 61.9228 66.6774 61.9652 66.6107 62.0083L66.5072 62.0792L66.4553 62.1148L66.41 62.1471C66.3453 62.1932 66.2815 62.2406 66.2183 62.2894C66.0921 62.3869 65.9685 62.4891 65.8488 62.5963C65.6092 62.8109 65.3834 63.0449 65.1735 63.2937C64.7511 63.79 64.3938 64.3468 64.0881 64.9228C63.7826 65.4998 63.5354 66.1 63.3295 66.6945C63.1212 67.2886 62.9573 67.8784 62.8254 68.4446C62.6922 69.0105 62.5888 69.5526 62.5101 70.0563C62.4311 70.5596 62.3709 71.024 62.3293 71.4369C62.2873 71.8498 62.2576 72.2106 62.2397 72.5078C62.2215 72.805 62.211 73.0384 62.2067 73.1968C62.2047 73.2755 62.203 73.3356 62.202 73.3763C62.2014 73.4157 62.201 73.4362 62.201 73.4362L61.5469 73.4513L61.5459 73.4506Z" fill="#601D15"/>
<path d="M75.698 64.4719C75.698 64.4719 75.7208 64.3979 75.7744 64.2634C75.8286 64.1293 75.9092 63.9319 76.0318 63.6905C76.1535 63.4487 76.3105 63.1585 76.5164 62.8411C76.7217 62.5237 76.9735 62.1774 77.2799 61.825C77.5863 61.4733 77.9479 61.1152 78.3687 60.7816C78.7888 60.4481 79.2684 60.1384 79.7989 59.8869C80.0637 59.7601 80.341 59.6488 80.6276 59.5543C80.9141 59.4595 81.2099 59.3812 81.5121 59.3237C81.8138 59.2658 82.1212 59.2238 82.4309 59.2036C82.7406 59.1831 83.052 59.1801 83.3624 59.1932L83.5947 59.207L83.8241 59.2285L84.0621 59.2591C84.1404 59.2709 84.2171 59.2847 84.2948 59.2974C84.6035 59.3536 84.9069 59.4356 85.2005 59.5395C85.2732 59.5671 85.3466 59.593 85.4186 59.6216C85.49 59.6518 85.5624 59.6794 85.6325 59.7117C85.7733 59.7752 85.9111 59.8432 86.045 59.9168C86.313 60.0631 86.5675 60.2272 86.8035 60.4067C87.2779 60.7638 87.6788 61.1784 88.0153 61.6007C88.1828 61.8129 88.3356 62.0267 88.4727 62.2399C88.6096 62.4534 88.7325 62.6649 88.8423 62.8721C89.0614 63.2866 89.2306 63.6814 89.3625 64.0371C89.4947 64.3925 89.5873 64.71 89.6567 64.9726C89.7268 65.2348 89.7668 65.4447 89.7932 65.5872C89.819 65.7301 89.8276 65.8071 89.8276 65.8071C89.8276 65.8071 89.8054 65.7332 89.7588 65.5966C89.7132 65.4598 89.6392 65.2621 89.54 65.0133C89.4399 64.7651 89.3083 64.4682 89.144 64.137C88.9791 63.8058 88.7791 63.4406 88.5352 63.062C88.4132 62.8727 88.2813 62.6797 88.1356 62.4877C87.9905 62.2954 87.8341 62.1024 87.6639 61.9148C87.3245 61.5382 86.9328 61.1757 86.4869 60.8667C86.2634 60.713 86.0288 60.5701 85.7819 60.4454C85.6586 60.3822 85.5317 60.3253 85.4034 60.2715C85.3396 60.2436 85.2735 60.2201 85.2087 60.1939C85.1433 60.169 85.0765 60.1471 85.0104 60.1236C84.744 60.0342 84.468 59.9676 84.1884 59.9168C84.1183 59.9057 84.0476 59.8936 83.9778 59.8832L83.7696 59.8576L83.5511 59.8385L83.3343 59.8264C82.7558 59.7984 82.1768 59.8314 81.6168 59.9279C81.3372 59.9773 81.0622 60.0405 80.7948 60.1196C80.5274 60.1989 80.2679 60.2937 80.0171 60.3993C79.5163 60.6128 79.0539 60.8764 78.6391 61.1656C78.2239 61.4544 77.8554 61.7678 77.5341 62.0795C77.2125 62.3909 76.9375 62.7009 76.7061 62.9867C76.4751 63.2729 76.2847 63.5341 76.1366 63.7554C75.9892 63.9773 75.8775 64.1558 75.8064 64.2802C75.7344 64.4043 75.6987 64.4729 75.6987 64.4729L75.698 64.4719Z" fill="#601D15"/>
<path d="M71.3701 61.5779C71.1774 61.2847 70.8257 60.9037 70.2198 60.6764L69.3809 60.3613L70.2201 60.0449C71.1456 59.6963 72.3722 59.6889 73.2187 59.7406C72.6614 59.3042 71.7528 58.7581 70.4697 58.4901L69.3373 58.2534L70.4231 57.8449C72.126 57.204 74.4133 57.32 75.5295 57.43C75.1824 56.9068 74.5233 56.09 73.426 55.3459L72.5815 54.7733L73.5929 54.7293C75.4776 54.6475 77.396 54.8073 79.2946 55.204C80.8124 55.5214 82.3209 55.9902 83.7785 56.5971C86.2645 57.6324 87.7241 58.6993 87.7849 58.7443L87.4032 59.2911C87.382 59.2756 85.9267 58.2158 83.5125 57.2124C81.4582 56.359 78.2997 55.3863 74.5729 55.3812C75.9311 56.5339 76.4209 57.6529 76.4444 57.7077L76.6834 58.2669L76.0957 58.1758C76.0682 58.1714 73.7793 57.8264 71.7849 58.1764C73.539 58.8435 74.3686 59.9114 74.41 59.9652L74.9173 60.6317L74.1032 60.5053C74.0847 60.5022 72.5431 60.2695 71.2339 60.4773C71.9756 61.0409 72.324 62.1404 72.3352 62.1791C72.3352 62.1791 71.5175 61.8018 71.3704 61.5782L71.3701 61.5779Z" fill="#601D15"/>
<path d="M97.9838 84.107L97.4397 84.7237L97.2609 84.9268L97.0795 85.1275L96.7165 85.5287L96.3483 85.9244L96.1642 86.1221L95.9775 86.3175L95.6036 86.7075L95.2245 87.0922L95.0348 87.2845L94.8424 87.4738L94.4577 87.8524L94.068 88.2253C93.9387 88.3504 93.8069 88.4725 93.675 88.5945C93.5428 88.7163 93.4125 88.8403 93.279 88.9604C92.7482 89.4446 92.2061 89.916 91.6574 90.3783C91.1058 90.837 90.5468 91.2862 89.978 91.7213C89.4078 92.1544 88.83 92.577 88.2427 92.9849C87.654 93.3907 87.0574 93.7841 86.4525 94.1631C85.8463 94.54 85.2319 94.9018 84.6095 95.2491L84.1414 95.5067L83.6694 95.7565C83.5128 95.8409 83.3528 95.9189 83.1948 96.0003L82.9568 96.121L82.7172 96.238C82.0786 96.5507 81.4327 96.8487 80.7786 97.1247C79.471 97.6785 78.137 98.1647 76.7795 98.5655C75.4227 98.968 74.0447 99.2932 72.6535 99.5312C71.2623 99.7683 69.8578 99.9206 68.4508 99.9814C65.6376 100.104 62.8102 99.8607 60.0744 99.2168C58.7067 98.896 57.3641 98.4707 56.0624 97.9431C54.7608 97.4169 53.5031 96.7807 52.3112 96.0393C51.121 95.2955 49.9965 94.4438 48.9772 93.4795C48.4658 92.9993 47.9849 92.4872 47.5317 91.9526C47.4739 91.8867 47.4204 91.8174 47.3642 91.7499C47.3093 91.6816 47.2521 91.615 47.1989 91.5454C47.0915 91.4069 46.9821 91.27 46.8793 91.1281C46.6684 90.848 46.4711 90.5585 46.2787 90.266C45.5479 89.1409 44.9609 87.9224 44.5553 86.646C44.5474 86.646 44.5394 86.646 44.5318 86.646C44.0803 86.6403 43.6384 86.5377 43.1876 86.3289C43.2365 86.5065 43.2884 86.6827 43.3439 86.8582C43.805 88.3128 44.4809 89.6863 45.3155 90.9372C45.5257 91.2488 45.7416 91.5565 45.9703 91.8531C46.0824 92.0034 46.2007 92.1483 46.3174 92.2946C46.3752 92.3682 46.4367 92.4385 46.4962 92.5104C46.5567 92.5817 46.6152 92.6547 46.6773 92.7243C47.1668 93.2878 47.6841 93.8248 48.2308 94.3255C49.3216 95.3315 50.5138 96.2108 51.7682 96.9727C53.0242 97.7323 54.3417 98.3772 55.6992 98.9065C57.0563 99.4367 58.4512 99.8587 59.8672 100.172C62.6992 100.801 65.6089 101.012 68.4914 100.85C69.9332 100.77 71.3687 100.595 72.7883 100.335C74.208 100.074 75.6108 99.7235 76.9897 99.2955C78.369 98.8688 79.7219 98.3564 81.0454 97.7764C81.7074 97.4868 82.3602 97.1762 83.0054 96.85L83.2474 96.7279L83.4877 96.6022C83.6473 96.5175 83.8086 96.4361 83.9669 96.3483L84.4432 96.0887L84.9152 95.8214C85.5426 95.461 86.1617 95.0861 86.7715 94.696C87.38 94.304 87.9799 93.8978 88.5709 93.4792C89.1609 93.0589 89.7407 92.6234 90.3121 92.1779C90.8823 91.7304 91.4419 91.2687 91.9942 90.7983C92.5432 90.3238 93.085 89.841 93.6152 89.345C93.7487 89.222 93.8786 89.0952 94.0105 88.9705C94.142 88.8454 94.2739 88.7206 94.4028 88.5925L94.7918 88.2112L95.1756 87.8245L95.3673 87.6309L95.5564 87.4345L95.9342 87.0418L96.3063 86.6437L96.4921 86.4443L96.6755 86.2425L97.0421 85.8387L97.403 85.4298L97.5835 85.2254L97.7613 85.0186L97.885 84.8747L97.9848 84.1067L97.9838 84.107Z" fill="#601D15"/>
<path d="M47.8028 81.2133C48.097 81.1259 48.3928 81.0432 48.6899 80.9641C49.2842 80.8071 49.8841 80.6672 50.488 80.5428C51.0919 80.4184 51.6994 80.3091 52.3096 80.2133C52.9197 80.1175 53.5329 80.0351 54.1477 79.9648C54.7625 79.8942 55.3792 79.8357 55.997 79.7876C56.6148 79.7395 57.2338 79.7022 57.8536 79.6743C60.3332 79.5637 62.8231 79.6027 65.3077 79.7523C66.5502 79.8276 67.7917 79.9315 69.0309 80.0637C69.6503 80.1299 70.2694 80.2032 70.8875 80.2843C71.5055 80.3663 72.123 80.4541 72.7381 80.5583C72.1279 80.4272 71.5141 80.3125 70.8994 80.2036C70.2846 80.0953 69.6681 79.9948 69.0507 79.9016C67.8158 79.7153 66.5763 79.557 65.3335 79.4272C62.8476 79.1683 60.3471 79.0196 57.84 79.022C57.2134 79.0227 56.586 79.0331 55.959 79.0546C55.3316 79.0758 54.7043 79.1077 54.0773 79.1525C53.4502 79.1965 52.8232 79.2533 52.1972 79.3239C51.5712 79.3942 50.9455 79.479 50.3218 79.5795C49.6977 79.68 49.0753 79.7967 48.4556 79.9322C48.1459 80.0005 47.8365 80.0724 47.5278 80.1498C47.2194 80.2278 46.912 80.3105 46.6053 80.3982C46.2166 80.5106 45.8295 80.6313 45.4448 80.7621C46.3471 80.8071 47.1394 80.9766 47.703 81.2439C47.7363 81.2338 47.7694 81.2231 47.8024 81.2133H47.8028Z" fill="#601D15"/>
<path d="M44.5312 86.6461C44.5391 86.6461 44.547 86.6461 44.5546 86.6461C44.8386 86.6475 45.1334 86.6115 45.455 86.5359C46.3025 86.3361 47.0792 85.898 47.7013 85.2689C48.284 84.6795 48.6658 83.9841 48.7758 83.3109C48.9084 82.5016 48.6238 81.8069 47.9951 81.4044C47.9062 81.3476 47.8084 81.2941 47.7026 81.244C47.1391 80.9767 46.3468 80.8073 45.4444 80.7622C45.3244 80.7562 45.2028 80.7525 45.0792 80.7508C43.7425 80.7343 42.4382 80.9811 41.4998 81.4276C41.405 81.47 40.5162 81.8896 40.3496 82.774C40.2263 83.4286 40.5291 84.131 41.2496 84.8617C41.9434 85.5651 42.5731 86.0456 43.1862 86.3294C43.6374 86.5382 44.0793 86.6408 44.5305 86.6465L44.5312 86.6461ZM41.7101 84.3825C41.3293 83.9965 40.8956 83.4266 40.9918 82.9041C41.0953 82.3436 41.7544 82.047 41.76 82.0443L41.7712 82.0393C42.2455 81.813 42.8283 81.6428 43.4662 81.5393C43.9749 81.4565 44.5189 81.4162 45.0709 81.4229C45.6414 81.43 46.1762 81.4895 46.631 81.5917C47.0495 81.6859 47.4002 81.816 47.6491 81.975C48.1594 82.3015 48.1925 82.8214 48.1306 83.1996C47.9621 84.2299 46.8607 85.5143 45.3092 85.8802C45.0299 85.9461 44.7784 85.9767 44.5394 85.9737C44.4786 85.973 44.4181 85.9696 44.3573 85.9642C43.9061 85.9246 43.4536 85.7571 42.9717 85.4464C42.5761 85.1912 42.1606 84.8398 41.7094 84.3822L41.7101 84.3825Z" fill="#601D15"/>
<path d="M61.6362 99.5709L60.4803 100.254C66.8708 107.149 76.7597 108.287 76.7597 108.287C76.7597 108.287 67.3997 105.384 61.6362 99.5706V99.5709Z" fill="#601D15"/>
<path d="M120.435 86.2588C115.404 83.1993 113.32 77.3228 112.802 75.5945L111.552 75.9923C111.795 76.8016 112.508 78.9337 113.885 81.2427C115.351 83.7 117.119 85.6394 119.149 87.0184C117.006 89.7971 112.327 94.4853 106.134 98.4665C95.1964 105.498 85.3972 107.945 85.3972 107.945C85.3972 107.945 95.3296 107.183 106.852 99.5905C113.584 95.1545 118.681 90.0207 120.633 87.2302L121.05 86.633L120.435 86.2591V86.2588Z" fill="#601D15"/>
<path d="M80.4071 123.715C81.7861 123.929 83.1912 124.062 84.6178 124.108C84.5285 124.059 84.4409 124.008 84.3557 123.956C84.1574 123.835 83.9663 123.703 83.7713 123.554C83.6235 123.44 83.4837 123.321 83.3558 123.201C83.3019 123.15 83.2543 123.104 83.2143 123.063C83.2682 123.083 83.3297 123.106 83.3984 123.131L83.4285 123.142C83.5654 123.191 83.7207 123.247 83.9005 123.307C84.1157 123.379 84.3339 123.448 84.549 123.511C84.8016 123.585 85.0587 123.653 85.3142 123.713C85.5919 123.778 85.8784 123.834 86.1667 123.878C86.5154 123.928 86.8033 123.957 87.0723 123.968C87.1751 123.974 87.2875 123.976 87.426 123.976C87.4623 123.976 87.4984 123.976 87.5367 123.976C87.5625 123.975 87.5883 123.974 87.6141 123.973C87.6646 123.972 87.7165 123.97 87.7671 123.967L87.8818 123.961C87.9069 123.96 87.932 123.957 87.9571 123.955C87.9707 123.954 87.9842 123.953 87.9975 123.952C88.0613 123.947 88.1251 123.94 88.1869 123.933L88.2262 123.929C88.255 123.926 88.2831 123.922 88.3102 123.918L88.3425 123.914L88.4576 123.898L88.4632 123.897C88.6093 123.872 88.7603 123.846 88.9058 123.81C89.195 123.744 89.4832 123.656 89.7618 123.55C90.0193 123.451 90.2805 123.332 90.5379 123.196C90.7495 123.084 90.9703 122.955 91.2142 122.799C91.2469 122.777 91.2793 122.756 91.3117 122.735C91.3805 122.689 91.4456 122.647 91.5077 122.602C91.5239 122.591 91.5401 122.579 91.5563 122.569C91.5864 122.548 91.6161 122.528 91.6452 122.507L91.6813 122.48C91.7113 122.458 91.7407 122.436 91.7698 122.415C91.8227 122.379 91.8706 122.342 91.9169 122.306C91.9453 122.285 91.9734 122.263 92.0009 122.243C92.0498 122.208 92.0934 122.173 92.1357 122.14C92.1569 122.123 92.177 122.107 92.1972 122.092L92.2808 122.027L92.2984 122.014C92.3192 121.998 92.3393 121.983 92.3565 121.968C92.3575 121.967 92.3585 121.966 92.3595 121.965C92.3324 122.021 92.301 122.081 92.2627 122.15C92.2451 122.183 92.2263 122.217 92.2058 122.252L92.142 122.363L92.2679 122.353C92.3479 122.347 92.4309 122.341 92.5172 122.333C93.1141 122.282 93.7679 122.22 94.5033 122.123C94.8825 122.074 95.2907 122.013 95.7161 121.944C96.1861 121.867 96.6214 121.786 97.0474 121.696C98.1303 121.47 99.0795 121.206 99.9495 120.889C100.478 120.695 100.972 120.477 101.418 120.241C101.942 119.963 102.389 119.658 102.747 119.337C103.173 118.955 103.483 118.545 103.668 118.116L103.699 118.041L103.74 117.931L103.77 117.844C103.782 117.809 103.793 117.775 103.803 117.743C103.841 117.626 103.878 117.496 103.918 117.334C103.986 117.05 104.034 116.768 104.058 116.496C104.111 115.932 104.076 115.355 103.955 114.782C103.841 114.229 103.645 113.668 103.371 113.112C103.123 112.606 102.801 112.088 102.414 111.574C102.063 111.108 101.657 110.647 101.206 110.202C100.37 109.382 99.419 108.638 98.3782 107.991C97.3631 107.362 96.3497 106.866 95.3667 106.518C94.8676 106.341 94.3734 106.202 93.8978 106.106C93.6324 106.054 93.4036 106.019 93.199 106C93.091 105.989 92.9769 105.982 92.8679 105.978L92.7875 105.977C92.7856 105.977 92.7836 105.977 92.7809 105.977H92.6818C92.6203 105.977 92.57 105.978 92.5251 105.979C92.0832 105.99 91.6498 106.038 91.2373 106.121C90.8516 106.199 90.4728 106.311 90.1109 106.455C89.5106 106.694 88.9458 107.028 88.4325 107.448C88.0894 107.728 87.7869 108.029 87.5073 108.367C87.3143 108.602 87.2799 108.778 87.2763 108.784C87.2763 108.784 87.5926 109.717 87.8821 110.975C88.1495 112.136 88.3369 113.825 89.742 115.316L89.7704 115.346L89.8098 115.333C89.9598 115.284 90.1268 115.231 90.3062 115.176L90.7052 115.058L91.1345 114.938C91.4069 114.865 91.7305 114.78 92.0676 114.702C92.3671 114.63 92.696 114.558 93.0728 114.482C93.1273 114.472 93.1822 114.461 93.2371 114.45C93.3537 114.428 93.4744 114.405 93.5934 114.383C93.6532 114.373 93.713 114.363 93.7732 114.352C93.8869 114.332 94.0046 114.312 94.1212 114.294C94.3106 114.264 94.4835 114.238 94.6498 114.217L94.9129 114.181L95.1766 114.15C95.4996 114.113 95.8456 114.084 96.2059 114.064C96.2809 114.059 96.3596 114.056 96.4541 114.053L96.6997 114.045C96.7622 114.043 96.8237 114.043 96.8914 114.043H97.0765C97.1086 114.043 97.1403 114.043 97.173 114.043H97.177C97.2348 114.043 97.2934 114.045 97.3499 114.047L97.3991 114.049L97.6209 114.057C97.6906 114.06 97.7607 114.065 97.8285 114.07H97.8328C97.9025 114.075 97.9709 114.081 98.039 114.087C98.1461 114.094 98.2499 114.107 98.3507 114.12L98.4208 114.128L98.5963 114.151L98.7639 114.179L98.9206 114.207C98.9668 114.215 99.0161 114.224 99.063 114.235C99.1252 114.249 99.1833 114.262 99.2382 114.275C99.2653 114.282 99.2911 114.288 99.3169 114.294C99.3608 114.304 99.4025 114.315 99.4392 114.325L99.423 114.326C99.4008 114.327 99.3777 114.33 99.3539 114.332C99.34 114.334 99.3258 114.335 99.3109 114.337L99.0587 114.36C99.0105 114.363 98.9615 114.369 98.912 114.375L98.8075 114.388L98.5937 114.413L98.4201 114.437C98.3742 114.444 98.3276 114.451 98.2803 114.457C98.2056 114.467 98.1283 114.478 98.0503 114.492C97.7961 114.531 97.5171 114.58 97.221 114.636C96.8901 114.7 96.59 114.762 96.3027 114.825C96.2456 114.838 96.1877 114.851 96.1299 114.863C96.0287 114.885 95.9243 114.907 95.8205 114.933C95.7679 114.946 95.7147 114.958 95.6615 114.97C95.6331 114.976 95.6047 114.983 95.5766 114.989C95.523 115.001 95.4695 115.014 95.4159 115.027C95.3868 115.034 95.3574 115.042 95.3283 115.049L95.0785 115.109L94.8289 115.172C94.7241 115.197 94.618 115.225 94.5152 115.252C94.4524 115.269 94.3896 115.286 94.3262 115.302C94.0095 115.385 93.6909 115.474 93.3828 115.56L93.3283 115.575L92.8411 115.716L92.3664 115.857L92.1347 115.926L91.9087 115.995C91.7956 116.029 91.6846 116.063 91.5758 116.097L91.4694 116.13L90.6778 116.377L90.8496 116.448C90.9144 116.475 90.9766 116.501 91.0354 116.526C91.1944 116.594 91.3296 116.653 91.4376 116.702C91.3193 116.695 91.1722 116.685 91 116.671C90.9217 116.665 90.8384 116.658 90.7498 116.649C90.6992 116.644 90.647 116.639 90.5945 116.635C90.536 116.629 90.4751 116.623 90.413 116.616C90.3185 116.607 90.22 116.597 90.1175 116.586L88.9838 116.461C88.7997 116.442 88.5706 116.417 88.3419 116.396C88.1657 116.377 87.9885 116.363 87.8008 116.347L87.658 116.336C87.1338 116.296 86.6664 116.277 86.2295 116.277H86.202C85.6249 116.278 85.1321 116.318 84.6958 116.398C84.5599 116.423 84.4396 116.448 84.3269 116.476C84.3167 116.479 84.3058 116.481 84.2949 116.484C84.2747 116.489 84.2542 116.493 84.2373 116.498L84.1521 116.521L84.0496 116.551L83.9762 116.575C83.7786 116.643 83.572 116.746 83.3621 116.88C83.1681 117.004 82.9744 117.154 82.786 117.327C82.5986 117.5 82.4224 117.682 82.2624 117.868C81.9415 118.244 81.647 118.655 81.3872 119.092C81.2586 119.305 81.1419 119.518 81.0404 119.725C80.9846 119.838 80.9373 119.94 80.8953 120.035L80.8629 120.111L80.8339 120.182C80.814 120.23 80.7995 120.271 80.7843 120.314L80.7777 120.332C80.7126 120.517 80.6557 120.717 80.6084 120.928C80.5688 121.105 80.5341 121.299 80.5023 121.521C80.4557 121.86 80.4253 122.214 80.4101 122.604C80.3992 122.883 80.3962 123.161 80.4012 123.455C80.4022 123.543 80.4042 123.63 80.4068 123.715H80.4071Z" fill="#F37326"/>
<path d="M103.411 113.349C103.411 113.349 106.874 120.252 92.5327 121.361C92.2412 122.168 91.3983 122.898 91.3983 122.898C91.3983 122.898 101.678 122.52 103.99 118.94C106.301 115.36 103.411 113.349 103.411 113.349Z" fill="url(#paint13_linear_113_240)"/>
<path d="M87.2772 108.785C87.2772 108.785 89.3705 106.425 92.6979 106.493C96.0254 106.56 104.492 111.476 104.083 117.175C105.954 109.661 95.7193 105.461 92.5327 105.544C89.3457 105.626 87.8362 107.858 87.2772 108.785Z" fill="#F78F39"/>
<path d="M91.1947 116.595C91.1947 116.595 97.568 114.629 99.7717 114.371C96.7004 114.046 90.338 116.169 90.338 116.169L91.1947 116.595Z" fill="#F78F39"/>
<path d="M80.4071 123.715C81.7861 123.929 83.1912 124.062 84.6178 124.108C84.5285 124.059 84.4409 124.008 84.3557 123.956C84.1573 123.835 83.9663 123.704 83.7713 123.554C83.6235 123.44 83.4837 123.321 83.3558 123.201C83.3019 123.15 83.2543 123.104 83.2143 123.063C83.2682 123.083 83.3297 123.106 83.3984 123.131L83.4285 123.142C83.5654 123.191 83.7207 123.247 83.9005 123.307C84.1157 123.379 84.3338 123.448 84.549 123.511C84.8015 123.586 85.0587 123.653 85.3142 123.713C85.5919 123.778 85.8784 123.834 86.1666 123.878C86.5154 123.928 86.8032 123.957 87.0723 123.968C87.1751 123.974 87.2875 123.976 87.426 123.976C87.4623 123.976 87.4984 123.976 87.5367 123.976C87.5625 123.975 87.5883 123.974 87.614 123.973C87.6646 123.972 87.7165 123.971 87.7671 123.967L87.8818 123.961C87.9069 123.96 87.932 123.957 87.9571 123.955C87.9707 123.954 87.9842 123.953 87.9975 123.952C88.0613 123.947 88.125 123.94 88.1869 123.934L88.2262 123.929C88.2549 123.926 88.283 123.922 88.3101 123.918L88.3425 123.914L88.4576 123.898L88.4632 123.897C88.6093 123.872 88.7603 123.846 88.9058 123.81C89.195 123.744 89.4832 123.656 89.7618 123.55C90.0193 123.451 90.2804 123.332 90.5379 123.196C90.7495 123.085 90.9703 122.955 91.2142 122.799C91.2469 122.778 91.2793 122.756 91.3117 122.735C91.3805 122.689 91.4456 122.647 91.5077 122.602C91.5239 122.591 91.5401 122.579 91.5563 122.569C91.5864 122.548 91.6161 122.528 91.6452 122.507L91.6812 122.48C91.7113 122.458 91.7407 122.436 91.7698 122.415C91.8227 122.379 91.8706 122.342 91.9169 122.306C91.9453 122.285 91.9734 122.263 92.0009 122.243C92.0498 122.208 92.0934 122.173 92.1357 122.14C92.1569 122.124 92.177 122.107 92.1972 122.092L92.2808 122.027L92.2983 122.014C92.3192 121.998 92.3393 121.983 92.3565 121.968C92.3575 121.967 92.3585 121.966 92.3595 121.965C92.3324 122.021 92.301 122.081 92.2626 122.15C92.2451 122.183 92.2263 122.217 92.2058 122.252L92.142 122.363L92.2679 122.354C92.3142 122.35 92.3615 122.346 92.4094 122.342C92.5291 122.116 92.6276 121.892 92.6199 121.411C92.615 121.089 93.0275 120.749 93.0635 120.29C93.0996 119.828 92.8312 119.624 92.807 119.203C92.7806 118.736 92.8731 118.469 92.697 117.998C92.5545 117.618 92.0676 117.312 91.9311 116.962C91.7298 116.444 91.4637 116.304 91.1121 116.242L90.6771 116.377L90.849 116.449C90.9137 116.476 90.9759 116.502 91.0347 116.527C91.1937 116.594 91.3289 116.654 91.437 116.702C91.3186 116.696 91.1716 116.686 90.9994 116.672C90.921 116.666 90.8377 116.658 90.7491 116.65C90.6986 116.645 90.6463 116.64 90.5938 116.636C90.5353 116.629 90.4745 116.623 90.4123 116.617C90.3178 116.608 90.2193 116.598 90.1168 116.586L88.9831 116.462C88.799 116.442 88.5699 116.418 88.3412 116.396C88.165 116.378 87.9879 116.363 87.8001 116.348L87.6573 116.336C87.1331 116.297 86.6657 116.278 86.2288 116.278H86.2014C85.6242 116.279 85.1314 116.319 84.6951 116.399C84.5593 116.424 84.439 116.449 84.3262 116.477C84.316 116.479 84.3051 116.482 84.2942 116.484C84.274 116.489 84.2535 116.494 84.2367 116.499L84.1514 116.522L84.0489 116.552L83.9756 116.576C83.7779 116.644 83.5713 116.746 83.3614 116.88C83.1674 117.005 82.9737 117.155 82.7853 117.328C82.5979 117.501 82.4217 117.683 82.2617 117.869C81.9408 118.244 81.6463 118.656 81.3865 119.093C81.2579 119.306 81.1412 119.519 81.0398 119.725C80.9839 119.839 80.9366 119.941 80.8947 120.036L80.8623 120.112L80.8332 120.183C80.8134 120.231 80.7988 120.272 80.7836 120.315L80.777 120.333C80.7119 120.518 80.655 120.718 80.6078 120.929C80.5681 121.106 80.5334 121.3 80.5017 121.522C80.4551 121.861 80.4246 122.215 80.4094 122.604C80.3985 122.884 80.3956 123.162 80.4005 123.455C80.4015 123.544 80.4035 123.631 80.4061 123.716L80.4071 123.715Z" fill="#7D291B"/>
<path d="M87.2772 108.785C87.2772 108.785 87.2872 108.744 87.3116 108.668C87.3367 108.591 87.3767 108.478 87.4395 108.335C87.5651 108.049 87.779 107.636 88.1479 107.17C88.2404 107.054 88.3426 106.935 88.4549 106.814C88.5676 106.694 88.6916 106.574 88.8261 106.453C88.9603 106.331 89.1077 106.214 89.2657 106.098C89.3447 106.04 89.4264 105.983 89.5113 105.927C89.5966 105.871 89.6845 105.817 89.7754 105.764C90.1383 105.551 90.5489 105.362 90.999 105.215C91.4489 105.068 91.9377 104.963 92.4514 104.907C92.5155 104.9 92.5803 104.894 92.6451 104.889C92.6775 104.886 92.7102 104.883 92.7429 104.88C92.7756 104.878 92.8084 104.876 92.8414 104.874C92.9872 104.867 93.1224 104.867 93.2612 104.87C93.5378 104.878 93.8142 104.904 94.0905 104.945C94.6435 105.027 95.1958 105.167 95.7488 105.345C96.3018 105.522 96.8551 105.738 97.4067 105.988C97.9581 106.238 98.5081 106.521 99.0501 106.84C99.5925 107.159 100.128 107.511 100.652 107.898C101.175 108.284 101.685 108.707 102.171 109.168C102.657 109.63 103.121 110.13 103.546 110.673C103.972 111.216 104.356 111.804 104.678 112.437C104.998 113.07 105.255 113.749 105.41 114.459C105.564 115.169 105.616 115.908 105.554 116.632C105.523 116.994 105.465 117.352 105.381 117.7C105.338 117.873 105.292 118.046 105.238 118.214C105.225 118.256 105.211 118.298 105.196 118.34L105.175 118.403L105.165 118.434L105.159 118.45L105.149 118.477L105.107 118.591C105.087 118.639 105.067 118.689 105.047 118.737C104.893 119.091 104.695 119.417 104.473 119.708C104.249 120 104.002 120.259 103.743 120.49C103.224 120.95 102.666 121.302 102.111 121.596C101.555 121.889 100.995 122.118 100.448 122.314C99.9003 122.51 99.3628 122.669 98.8406 122.802C98.3187 122.936 97.8123 123.047 97.3254 123.139C96.3513 123.324 95.4556 123.443 94.6607 123.524C94.2634 123.565 93.8912 123.597 93.5471 123.622C93.203 123.648 92.8867 123.667 92.6005 123.68C92.0286 123.706 91.5785 123.716 91.2704 123.719C91.1164 123.72 90.9974 123.719 90.9167 123.719C90.8334 123.718 90.7905 123.717 90.7905 123.717C90.7905 123.717 91.7255 122.327 92.0716 122.301C92.2084 122.291 92.3555 122.28 92.5119 122.267C93.0632 122.219 93.7325 122.158 94.4954 122.057C94.8768 122.007 95.2814 121.947 95.7058 121.878C96.1302 121.808 96.5748 121.727 97.0345 121.631C97.9534 121.439 98.9381 121.187 99.9277 120.826C100.422 120.645 100.914 120.433 101.389 120.182C101.862 119.93 102.315 119.636 102.704 119.287C103.093 118.939 103.414 118.538 103.608 118.09L103.638 118.018L103.679 117.91L103.708 117.823C103.72 117.79 103.731 117.756 103.741 117.723C103.784 117.59 103.821 117.455 103.854 117.319C103.92 117.047 103.968 116.771 103.994 116.491C104.045 115.932 104.01 115.361 103.891 114.797C103.775 114.233 103.575 113.677 103.313 113.144C103.052 112.61 102.727 112.1 102.363 111.616C101.998 111.133 101.593 110.678 101.161 110.252C100.295 109.402 99.3337 108.665 98.3448 108.051C97.3552 107.437 96.3398 106.935 95.3462 106.583C94.8497 106.407 94.3592 106.269 93.8866 106.174C93.6502 106.127 93.4185 106.09 93.1938 106.069C93.082 106.058 92.9687 106.051 92.8682 106.048L92.8219 106.047H92.7988L92.7872 106.046C92.7862 106.046 92.773 106.046 92.7823 106.046C92.7538 106.046 92.7254 106.046 92.697 106.046C92.6401 106.046 92.5836 106.047 92.5277 106.049C92.0789 106.059 91.6515 106.108 91.2512 106.189C90.851 106.27 90.4778 106.383 90.136 106.519C89.4521 106.791 88.8988 107.155 88.4748 107.502C88.0497 107.849 87.7519 108.178 87.5589 108.412C87.3662 108.646 87.2769 108.786 87.2769 108.786L87.2772 108.785Z" fill="#601D15"/>
<path d="M88.5957 115.7C88.5957 115.7 88.6383 115.683 88.7183 115.651C88.798 115.62 88.913 115.576 89.0604 115.521C89.2078 115.467 89.387 115.404 89.5932 115.335C89.7995 115.265 90.0332 115.191 90.289 115.112C90.4173 115.074 90.5508 115.035 90.689 114.994C90.8278 114.955 90.9712 114.915 91.119 114.873C91.4151 114.794 91.7278 114.712 92.0537 114.637C92.379 114.559 92.7171 114.486 93.0618 114.416C93.2347 114.383 93.4082 114.349 93.5834 114.317C93.7593 114.288 93.9344 114.256 94.1116 114.229C94.2881 114.2 94.4649 114.174 94.6418 114.151C94.73 114.139 94.8183 114.127 94.9062 114.115C94.9945 114.105 95.0824 114.095 95.17 114.084C95.52 114.044 95.8667 114.016 96.2026 113.997C96.2865 113.992 96.3698 113.989 96.4528 113.987C96.5354 113.984 96.6174 113.981 96.6983 113.979C96.7793 113.976 96.8596 113.977 96.939 113.977C97.0183 113.977 97.0966 113.976 97.1737 113.977C97.2507 113.977 97.3274 113.98 97.4024 113.983C97.4774 113.986 97.5515 113.989 97.6242 113.991C97.6966 113.994 97.7683 113.999 97.8384 114.004C97.9084 114.009 97.9772 114.015 98.0446 114.021C98.1788 114.03 98.308 114.048 98.43 114.063C98.4908 114.07 98.5503 114.078 98.6082 114.085C98.6657 114.095 98.7219 114.105 98.7761 114.114C98.8299 114.123 98.8822 114.133 98.9327 114.141C98.983 114.15 99.0316 114.159 99.0778 114.17C99.1707 114.191 99.2553 114.211 99.3317 114.229C99.4081 114.246 99.4758 114.266 99.5343 114.284C99.5925 114.302 99.6421 114.317 99.6824 114.33C99.7224 114.342 99.7531 114.352 99.7736 114.359C99.7941 114.366 99.8047 114.369 99.8047 114.369C99.8047 114.369 99.7934 114.37 99.772 114.372C99.7501 114.373 99.7181 114.376 99.6764 114.379C99.6348 114.381 99.5836 114.385 99.5234 114.389C99.4933 114.39 99.4613 114.392 99.4269 114.394C99.3928 114.396 99.3562 114.401 99.3175 114.404C99.2408 114.411 99.1562 114.419 99.0636 114.427C99.0177 114.43 98.9698 114.436 98.9202 114.443C98.8706 114.448 98.8194 114.454 98.7665 114.461C98.7136 114.467 98.6594 114.473 98.6032 114.48C98.5473 114.487 98.4898 114.496 98.4307 114.504C98.3127 114.522 98.1894 114.535 98.0605 114.558C97.8033 114.599 97.5257 114.647 97.2335 114.702C96.9413 114.759 96.6342 114.821 96.3176 114.891C96.1593 114.927 95.9983 114.959 95.836 114.999C95.7547 115.018 95.673 115.036 95.5907 115.055C95.5084 115.073 95.4261 115.095 95.3435 115.114C95.2609 115.134 95.1776 115.154 95.0943 115.174C95.011 115.195 94.9277 115.216 94.8441 115.237C94.6768 115.278 94.5099 115.324 94.3423 115.367C94.0078 115.455 93.6743 115.549 93.3461 115.641C93.1822 115.688 93.0199 115.735 92.8592 115.781C92.6989 115.829 92.5406 115.876 92.3849 115.922C92.3072 115.945 92.2299 115.968 92.1535 115.991C92.0772 116.014 92.0015 116.037 91.9268 116.06C91.7771 116.104 91.631 116.15 91.4885 116.194C91.2042 116.283 90.9352 116.367 90.687 116.444C89.7007 116.757 88.595 115.7 88.595 115.7H88.5957Z" fill="#601D15"/>
<path d="M82.9803 122.901C82.9803 122.901 83.0206 122.917 83.0963 122.946C83.1717 122.975 83.2821 123.016 83.4212 123.067C83.561 123.117 83.7289 123.178 83.922 123.243C84.1147 123.308 84.3318 123.377 84.5682 123.446C84.8042 123.516 85.06 123.584 85.3297 123.647C85.5994 123.71 85.8837 123.766 86.1765 123.811C86.4697 123.854 86.7712 123.888 87.0762 123.901C87.2286 123.908 87.3816 123.909 87.535 123.908C87.6114 123.905 87.6884 123.905 87.7647 123.9L87.8794 123.894C87.9178 123.892 87.9558 123.887 87.9938 123.884C88.0701 123.879 88.1458 123.869 88.2215 123.861C88.2595 123.858 88.2969 123.851 88.3346 123.846L88.4476 123.83C88.597 123.805 88.7464 123.779 88.8922 123.743C89.1847 123.676 89.469 123.589 89.7397 123.485C90.0104 123.382 90.2679 123.263 90.5085 123.135C90.7491 123.008 90.9729 122.873 91.1788 122.742C91.2799 122.674 91.3798 122.611 91.4713 122.545C91.5176 122.513 91.5635 122.483 91.6072 122.451C91.6501 122.419 91.6918 122.388 91.7334 122.358C91.8177 122.301 91.8911 122.24 91.9631 122.187C92.0355 122.135 92.0987 122.083 92.1578 122.037C92.1872 122.014 92.2153 121.993 92.2418 121.972C92.2682 121.952 92.2937 121.933 92.3162 121.915C92.3614 121.878 92.4008 121.847 92.4328 121.822C92.4646 121.797 92.4903 121.778 92.5072 121.766C92.5241 121.753 92.533 121.746 92.533 121.746C92.533 121.746 92.5287 121.756 92.5201 121.776C92.5115 121.795 92.4993 121.824 92.4818 121.862C92.4477 121.937 92.3971 122.047 92.3218 122.181C92.2857 122.249 92.2434 122.323 92.1942 122.401C92.1459 122.481 92.0921 122.566 92.0306 122.654C92.0005 122.699 91.9678 122.743 91.9344 122.79C91.9003 122.837 91.864 122.883 91.8273 122.931C91.7542 123.029 91.6696 123.124 91.582 123.225C91.4022 123.423 91.1933 123.627 90.9517 123.823C90.7104 124.018 90.4364 124.204 90.1337 124.365C89.8315 124.527 89.501 124.663 89.154 124.766C88.9808 124.817 88.8029 124.858 88.6231 124.892C88.4433 124.924 88.2615 124.949 88.0791 124.963C87.8966 124.979 87.7142 124.982 87.533 124.98L87.3975 124.976C87.3522 124.974 87.3073 124.972 87.2627 124.968C87.2177 124.965 87.1731 124.962 87.1285 124.959C87.0838 124.954 87.0395 124.949 86.9953 124.945C86.6409 124.907 86.2992 124.834 85.9769 124.743C85.6549 124.65 85.3528 124.537 85.0762 124.412C84.7992 124.286 84.547 124.151 84.3229 124.013C84.0981 123.876 83.9015 123.736 83.7326 123.606C83.5637 123.476 83.4235 123.354 83.3121 123.249C83.2563 123.197 83.2074 123.15 83.1664 123.107C83.1247 123.065 83.0904 123.027 83.0629 122.997C83.0352 122.966 83.0153 122.942 83.0014 122.926C82.9879 122.909 82.9809 122.901 82.9809 122.901L82.9803 122.901Z" fill="#601D15"/>
<path d="M79.0807 123.482C79.5418 123.572 80.0062 123.654 80.4739 123.725C80.4712 123.644 80.4693 123.554 80.4679 123.454C80.464 123.218 80.464 122.932 80.4769 122.606C80.4897 122.281 80.5152 121.916 80.5684 121.531C80.5962 121.338 80.6296 121.141 80.6735 120.943C80.7178 120.745 80.773 120.546 80.8404 120.355C80.8576 120.307 80.8735 120.262 80.8953 120.208C80.9049 120.184 80.9148 120.161 80.9244 120.137C80.935 120.112 80.9459 120.087 80.9565 120.062C81.0007 119.961 81.049 119.859 81.0999 119.755C81.202 119.547 81.3181 119.336 81.444 119.127C81.6939 118.707 81.9871 118.293 82.313 117.912C82.4762 117.722 82.6508 117.543 82.8309 117.377C83.0117 117.211 83.2018 117.062 83.3978 116.937C83.5941 116.811 83.7947 116.709 83.998 116.639L84.0704 116.615L84.1706 116.586L84.2548 116.563C84.2816 116.556 84.314 116.549 84.3434 116.541C84.4637 116.512 84.5854 116.487 84.708 116.464C85.1995 116.374 85.7062 116.345 86.2023 116.344C86.6991 116.343 87.187 116.367 87.6534 116.403C87.8861 116.422 88.1145 116.439 88.3353 116.462C88.5564 116.483 88.7706 116.506 88.9771 116.528C89.3926 116.574 89.7734 116.615 90.1109 116.652C90.2804 116.672 90.4404 116.686 90.5878 116.702C90.7359 116.715 90.8718 116.729 90.9954 116.738C91.4889 116.78 91.7748 116.781 91.7748 116.781C91.7748 116.781 91.71 116.751 91.5883 116.695C91.4667 116.641 91.2886 116.561 91.0608 116.464C90.9471 116.415 90.8202 116.363 90.6824 116.306C90.5439 116.251 90.3945 116.189 90.2332 116.128C90.1525 116.097 90.0692 116.066 89.9836 116.033C89.8973 116.002 89.8084 115.97 89.7175 115.937C89.5351 115.871 89.3414 115.807 89.1381 115.741C88.9348 115.677 88.7213 115.613 88.4985 115.551C88.3868 115.522 88.2731 115.491 88.1571 115.462C88.0989 115.448 88.0404 115.434 87.9812 115.419C87.9218 115.406 87.8619 115.392 87.8018 115.379C87.3192 115.271 86.8003 115.183 86.2512 115.138C85.9769 115.115 85.695 115.104 85.4071 115.106C85.1192 115.107 84.825 115.123 84.5262 115.156C84.3768 115.172 84.2267 115.195 84.076 115.223C84.0377 115.23 84.002 115.236 83.9613 115.245L83.8433 115.27L83.7418 115.293L83.7293 115.296L83.7068 115.302L83.6757 115.31L83.6136 115.326C83.2841 115.419 82.9734 115.554 82.6901 115.719C82.1216 116.048 81.6463 116.47 81.2351 116.917C81.0292 117.141 80.8388 117.372 80.6636 117.608C80.4881 117.845 80.3248 118.084 80.1748 118.328C80.0257 118.571 79.8882 118.817 79.7629 119.066C79.7001 119.19 79.6416 119.317 79.5857 119.445C79.5722 119.477 79.5583 119.509 79.5448 119.542C79.5312 119.576 79.5173 119.609 79.5038 119.643C79.4793 119.704 79.4542 119.774 79.4311 119.84C79.3365 120.108 79.2701 120.369 79.2182 120.62C79.1663 120.87 79.1299 121.111 79.1042 121.341C79.0519 121.801 79.04 122.217 79.0414 122.583C79.0433 122.767 79.0476 122.938 79.0552 123.095C79.0625 123.235 79.0708 123.364 79.08 123.482L79.0807 123.482Z" fill="#601D15"/>
</g>
<defs>
<linearGradient id="paint0_linear_113_240" x1="83.4608" y1="115.456" x2="99.2024" y2="115.427" gradientUnits="userSpaceOnUse">
<stop stop-color="#BF5327"/>
<stop offset="1" stop-color="#F37326"/>
</linearGradient>
<linearGradient id="paint1_linear_113_240" x1="78.0486" y1="61.2303" x2="75.709" y2="79.4186" gradientUnits="userSpaceOnUse">
<stop stop-color="#BF5327"/>
<stop offset="1" stop-color="#F37326"/>
</linearGradient>
<linearGradient id="paint2_linear_113_240" x1="84.9997" y1="56.86" x2="84.1781" y2="59.9369" gradientUnits="userSpaceOnUse">
<stop stop-color="#BF5327"/>
<stop offset="1" stop-color="#F37326"/>
</linearGradient>
<linearGradient id="paint3_linear_113_240" x1="72.212" y1="52.3422" x2="64.4336" y2="56.6696" gradientUnits="userSpaceOnUse">
<stop stop-color="#F37326"/>
<stop offset="1" stop-color="#BF5327"/>
</linearGradient>
<linearGradient id="paint4_linear_113_240" x1="60.2907" y1="67.197" x2="60.5259" y2="73.0655" gradientUnits="userSpaceOnUse">
<stop stop-color="#BF5327"/>
<stop offset="1" stop-color="#F37326"/>
</linearGradient>
<linearGradient id="paint5_linear_113_240" x1="90.1972" y1="69.983" x2="121.261" y2="62.1834" gradientUnits="userSpaceOnUse">
<stop stop-color="#BF5327"/>
<stop offset="1" stop-color="#F37326"/>
</linearGradient>
<linearGradient id="paint6_linear_113_240" x1="70.597" y1="93.0862" x2="124.27" y2="89.3352" gradientUnits="userSpaceOnUse">
<stop stop-color="#BF5327"/>
<stop offset="1" stop-color="#F37326"/>
</linearGradient>
<linearGradient id="paint7_linear_113_240" x1="84.6547" y1="103.219" x2="91.6132" y2="103.305" gradientUnits="userSpaceOnUse">
<stop stop-color="#D3473C"/>
<stop offset="1" stop-color="#EC554A"/>
</linearGradient>
<linearGradient id="paint8_linear_113_240" x1="85.6733" y1="75.996" x2="88.4887" y2="82.9661" gradientUnits="userSpaceOnUse">
<stop stop-color="#BF5327"/>
<stop offset="1" stop-color="#F37326"/>
</linearGradient>
<linearGradient id="paint9_linear_113_240" x1="42.9452" y1="83.7481" x2="48.9233" y2="83.6748" gradientUnits="userSpaceOnUse">
<stop stop-color="#502813"/>
<stop offset="0.27" stop-color="#5F2F15"/>
<stop offset="0.58" stop-color="#683416"/>
<stop offset="1" stop-color="#6C3617"/>
</linearGradient>
<linearGradient id="paint10_linear_113_240" x1="36.8774" y1="78.6915" x2="48.9201" y2="85.7498" gradientUnits="userSpaceOnUse">
<stop stop-color="white"/>
<stop offset="0.04" stop-color="#F0EBE8"/>
<stop offset="0.13" stop-color="#D1C1B7"/>
<stop offset="0.23" stop-color="#B69B8C"/>
<stop offset="0.34" stop-color="#9F7C68"/>
<stop offset="0.45" stop-color="#8C624A"/>
<stop offset="0.56" stop-color="#7E4E33"/>
<stop offset="0.68" stop-color="#734023"/>
<stop offset="0.82" stop-color="#6D381A"/>
<stop offset="1" stop-color="#6C3617"/>
</linearGradient>
<linearGradient id="paint11_linear_113_240" x1="84.2289" y1="79.5793" x2="86.7947" y2="75.1013" gradientUnits="userSpaceOnUse">
<stop stop-color="#58595B"/>
<stop offset="0.44" stop-color="#555557"/>
<stop offset="0.76" stop-color="#4C4C4E"/>
<stop offset="1" stop-color="#414042"/>
</linearGradient>
<linearGradient id="paint12_linear_113_240" x1="68.7592" y1="79.307" x2="71.1219" y2="75.1845" gradientUnits="userSpaceOnUse">
<stop stop-color="#58595B"/>
<stop offset="0.44" stop-color="#555557"/>
<stop offset="0.76" stop-color="#4C4C4E"/>
<stop offset="1" stop-color="#414042"/>
</linearGradient>
<linearGradient id="paint13_linear_113_240" x1="95.5974" y1="113.761" x2="99.9639" y2="122.762" gradientUnits="userSpaceOnUse">
<stop stop-color="#BF5327"/>
<stop offset="1" stop-color="#F37326"/>
</linearGradient>
<clipPath id="clip0_113_240">
<rect width="86.0361" height="89.4776" fill="white" transform="translate(40.3235 35.5034)"/>
</clipPath>
</defs>
</svg>
