<?xml version="1.0" encoding="utf-8"?>
<!-- Generator: Adobe Illustrator 26.0.0, SVG Export Plug-In . SVG Version: 6.00 Build 0)  -->
<svg version="1.1" id="Calque_1" xmlns="http://www.w3.org/2000/svg" xmlns:xlink="http://www.w3.org/1999/xlink" x="0px" y="0px"
	 viewBox="0 0 588.7 618" style="enable-background:new 0 0 588.7 618;" xml:space="preserve">
<style type="text/css">
	.st0{clip-path:url(#SVGID_00000099626109227983521930000016070882585615144343_);}
	.st1{fill:#E4CED9;}
	.st2{clip-path:url(#SVGID_00000064330725022928379780000015700087221280061606_);}
	.st3{fill:#FFFFFF;}
</style>
<g>
	<defs>
		<rect id="SVGID_1_" width="1512" height="618"/>
	</defs>
	<clipPath id="SVGID_00000067219841493659496950000004582476602682319282_">
		<use xlink:href="#SVGID_1_"  style="overflow:visible;"/>
	</clipPath>
	<g style="clip-path:url(#SVGID_00000067219841493659496950000004582476602682319282_);">
		<path class="st1" d="M389,531.4c18.2,0,37.3-7.9,50.1-20.8c6.9-6.4,11.8-14,14.7-22.8c4.4-8.4,6.5-17.5,6.1-27.3
			c-0.8-18.3-6.8-37.3-20.8-50.1c-13.9-12.7-30.9-20.8-50.1-20.8c-18.2,0-37.3,7.9-50.1,20.8c-6.9,6.4-11.8,14-14.7,22.8
			c-4.4,8.4-6.5,17.5-6.1,27.3c0.8,18.3,6.8,37.3,20.8,50.1C352.8,523.3,369.8,531.4,389,531.4z"/>
		<path class="st1" d="M455,544.8c14.8,0,29-13,28.3-28.3c-0.7-15.4-12.5-28.3-28.3-28.3c-14.8,0-29,13-28.3,28.3
			C427.3,531.9,439.1,544.8,455,544.8z"/>
		<path class="st1" d="M515,580.8c14.8,0,29-13,28.3-28.3c-0.7-15.4-12.5-28.3-28.3-28.3c-14.8,0-29,13-28.3,28.3
			C487.3,567.9,499.1,580.8,515,580.8z"/>
		<path class="st1" d="M546,668.8c14.8,0,29-13,28.3-28.3c-0.7-15.4-12.5-28.3-28.3-28.3c-14.8,0-29,13-28.3,28.3
			C518.3,655.9,530.1,668.8,546,668.8z"/>
		<path class="st1" d="M505,646.8c14.8,0,29-13,28.3-28.3c-0.7-15.4-12.5-28.3-28.3-28.3c-14.8,0-29,13-28.3,28.3
			C477.3,633.9,489.1,646.8,505,646.8z"/>
		<path class="st1" d="M567,607.8c11.1,0,21.8-9.8,21.3-21.3s-9.3-21.3-21.3-21.3c-11.1,0-21.8,9.8-21.3,21.3
			C546.3,598,555.1,607.8,567,607.8z"/>
		<path class="st1" d="M574,554.6c9.1,0,9.1-14.2,0-14.2S564.9,554.6,574,554.6z"/>
		<path class="st1" d="M477,478.6c9.1,0,9.1-14.2,0-14.2S467.9,478.6,477,478.6z"/>
		<path class="st1" d="M435,429.7c7.7,0,14.2-6.5,14.2-14.2s-6.5-14.2-14.2-14.2s-14.2,6.5-14.2,14.2S427.3,429.7,435,429.7z"/>
		<path class="st1" d="M487,545.7c7.7,0,14.2-6.5,14.2-14.2s-6.5-14.2-14.2-14.2s-14.2,6.5-14.2,14.2S479.3,545.7,487,545.7z"/>
		<path class="st1" d="M153,415c10.9,0,22.4-4.7,30.1-12.5c7.4-7.4,12.9-19.5,12.5-30.1c-1-23-18.7-42.5-42.5-42.5
			c-10.9,0-22.4,4.7-30.1,12.5c-7.4,7.4-12.9,19.5-12.5,30.1C111.5,395.5,129.2,415,153,415z"/>
		<path class="st1" d="M114.7,438.9c0.7,0.3,1.3,0.7,2,1c3.3,2.1,6.8,3.2,10.5,3.4c3.8,0.8,7.5,0.7,11.3-0.5
			c3.7-0.9,6.9-2.6,9.6-5.1c3.1-2,5.5-4.6,7.3-8c1-2.3,1.9-4.5,2.9-6.8c1.4-5,1.4-10,0-15.1c-1-2.3-1.9-4.5-2.9-6.8
			c-2.5-4.3-5.9-7.6-10.2-10.2c-0.7-0.3-1.3-0.7-2-1c-3.3-2.1-6.8-3.2-10.5-3.4c-3.8-0.8-7.5-0.7-11.3,0.5c-3.7,0.9-6.9,2.6-9.6,5.1
			c-3.1,2-5.5,4.6-7.3,8c-1,2.3-1.9,4.5-2.9,6.8c-1.4,5-1.4,10,0,15.1c1,2.3,1.9,4.5,2.9,6.8C107.1,433,110.5,436.3,114.7,438.9z"/>
		<path class="st1" d="M1,396.8c14.8,0,29-13,28.3-28.3c-0.7-15.4-12.5-28.3-28.3-28.3c-14.8,0-29,13-28.3,28.3
			C-26.7,383.9-14.9,396.8,1,396.8z"/>
		<path class="st1" d="M21,427.8c14.8,0,29-13,28.3-28.3c-0.7-15.4-12.5-28.3-28.3-28.3c-14.8,0-29,13-28.3,28.3
			C-6.7,414.9,5.1,427.8,21,427.8z"/>
		<path class="st1" d="M24,364.7c7.7,0,14.2-6.5,14.2-14.2s-6.5-14.2-14.2-14.2s-14.2,6.5-14.2,14.2S16.3,364.7,24,364.7z"/>
		<path class="st1" d="M391,393.7c7.7,0,14.2-6.5,14.2-14.2s-6.5-14.2-14.2-14.2s-14.2,6.5-14.2,14.2S383.3,393.7,391,393.7z"/>
		<path class="st1" d="M91,369.6c9.1,0,9.1-14.2,0-14.2C81.9,355.4,81.9,369.6,91,369.6z"/>
	</g>
</g>
<g>
	<defs>
		<rect id="SVGID_00000133526756793519983960000003861647530221197446_" y="21" width="1920" height="599"/>
	</defs>
	<clipPath id="SVGID_00000134234208619106443470000011067759904282764210_">
		<use xlink:href="#SVGID_00000133526756793519983960000003861647530221197446_"  style="overflow:visible;"/>
	</clipPath>
	<g style="clip-path:url(#SVGID_00000134234208619106443470000011067759904282764210_);">
		<path class="st3" d="M662,821.5c-0.1,0-0.1,0-0.2,0c-1.5-6.2-7.2-11-13.8-11c-3.8,0-7.3,1.6-9.9,4.2c-0.7-0.1-1.4-0.2-2.1-0.2
			c-6.1,0-11.4,4.1-13.4,9.6c-0.8-0.9-1.6-1.7-2.5-2.6c-3.8-3.5-7.9-6.5-12.3-9c4.9-2.3,8.4-7.3,8.4-12.9c0-7.7-6.5-14.2-14.2-14.2
			c-3.5,0-6.8,1.4-9.3,3.6c-3.8-11.3-13.9-19.8-26.7-19.8c-5.5,0-10.9,1.8-15.5,4.8c-1.1-1.2-2.2-2.4-3.4-3.6
			c-11.1-10.2-24.7-16.6-40.1-16.6c-1.9,0-3.8,0.1-5.7,0.3c0.9-0.8,1.9-1.7,2.8-2.5c9.8-9.8,17.2-26,16.6-40.1
			c-0.7-14.7-5.5-29.9-16.6-40.1c-11.1-10.2-24.7-16.6-40.1-16.6c-5.9,0-11.9,1.1-17.7,3c0-0.8,0.1-1.5,0-2.3
			c-0.7-15.4-12.5-28.3-28.3-28.3c-0.4,0-0.9,0-1.3,0c0.5-2.2,0.8-4.4,0.7-6.7c-0.5-11.7-7.5-22.1-17.9-26.3
			c1.3-2.7,1.9-5.6,1.8-8.7c-0.3-7.6-4.3-14.4-10.3-18.1c9.6-2,17.8-10.7,17.3-20.9c-0.5-10.8-8.3-20.1-19.2-21.2
			c0.3-1.6,0.4-3.2,0.3-4.8c-0.4-9.8-5.4-18.6-13-23.7c0-0.1,0-0.2,0-0.3c-0.7-15.4-12.5-28.3-28.3-28.3c-3.5,0-6.9,0.7-10.1,2
			c-0.3-0.3-0.5-0.5-0.8-0.8c-6.2-5.7-13.1-10.2-20.7-13c-2.6-5.5-6.1-10.5-10.6-14.6c-11.1-10.2-24.7-16.6-40.1-16.6
			c-1.6,0-3.2,0.1-4.8,0.2c1.6-3,2.5-6.3,2.4-9.9c-0.5-11.5-9.3-21.3-21.3-21.3c-10.1,0-19.7,8-21.1,18
			c-11.1,0.1-21.7,9.8-21.2,21.3c0,0.6,0.1,1.2,0.2,1.8c-2.1,3.3-3.3,7.1-3.2,11.2c0,0.4,0.1,0.8,0.1,1.3c-5.6,1.2-11,3.2-16,6
			c-6.2,2.8-11.9,6.7-16.6,11.3c-7,7-12.8,17.3-15.3,27.7c-8.7,2.1-16.5,7.8-21.2,15.4c-2-1.1-4.3-1.8-6.8-1.8
			c-7.7,0-14.2,6.5-14.2,14.2c0,7.7,6.5,14.2,14.2,14.2c1.4,0,2.8-0.2,4.1-0.6c1.8,5.4,4.8,10.3,8.8,14.2c-6.7,1.5-13.3,4.3-19,8
			c-0.3-0.3-0.5-0.5-0.8-0.8C103,545.4,89.4,539,74,539c-3.5,0-7,0.4-10.4,1.1c-0.5-0.5-1-1-1.5-1.4c-7.7-7.1-16.6-12.3-26.5-14.9
			c-2.6-8.4-7-16.1-13.5-22.1C11,491.4-2.6,485-18,485c-14.5,0-29.8,6.3-40.1,16.6c-9.8,9.8-17.2,26-16.6,40.1
			c0.7,14.7,5.5,29.9,16.6,40.1c7.7,7.1,16.6,12.3,26.5,14.9c0.7,2.1,1.4,4.3,2.4,6.3c-4.8,8.4-7.6,17.7-7.5,27.7
			c0.1,63,1.7,125.9,4.8,188.8c1.1,22.9,13.3,42.7,34.9,51.8c4.4,2.6,9.2,3.9,14.3,3.9c5,1.4,10,1.4,15.1,0
			c11.6-1.6,24.7-6.4,32.6-15.6c3-3.5,5.9-7,8.9-10.5c6.2,10,15.5,17.3,26.3,21.8c4.4,2.6,9.2,3.9,14.3,3.9c5,1.4,10,1.4,15.1,0
			c12.5-1.7,23.3-6.7,32.6-15.6c4.4-4.2,8.6-8.6,12.6-13.2c0.8,1.6,1.7,3.2,2.5,4.8c5,8.5,11.8,15.3,20.3,20.3
			c6.5,4.1,13.5,6.4,21.1,6.7c7.5,1.7,15.1,1.4,22.6-1c9.6-2.7,17.9-7.6,25-14.6c1.6-2,3.1-4,4.7-6c0.2,0.3,0.3,0.6,0.5,0.8
			c3,3.8,5.9,7.6,8.9,11.5c7.1,7,15.4,11.9,25,14.6c2,0.7,3.9,1.5,5.9,2.2c7.5,2.4,15.1,2.7,22.6,1c7.5-0.3,14.6-2.6,21.1-6.7
			c6.6-3.6,11.9-8.4,15.9-14.6c0.2-0.2,0.3-0.4,0.5-0.6c0.4,0,0.7-0.1,1.1-0.1c8.5-2.4,16-6.5,22.5-12.2
			c1.2,13.6,6.1,27.2,16.4,36.6c11.1,10.2,24.7,16.6,40.1,16.6c8.6,0,17.5-2.2,25.5-6.2c2.7,2.4,5.7,4.6,8.9,6.5
			c4.5,1.9,9,3.8,13.5,5.7c4.7,1.3,9.3,1.9,14,2c0.2,0,0.3,0,0.5,0c7.5,1.7,15.1,1.4,22.6-1c4.1-1,8-2.5,11.5-4.5
			c9.5,6.6,20.4,10.5,32.4,10.5c14.5,0,29.8-6.3,40.1-16.6c9.8-9.8,17.2-26,16.6-40.1c-0.3-6.4-1.4-12.9-3.4-19.1
			c0.9,0.2,1.8,0.3,2.7,0.3c3.8,0,7.3-1.6,9.9-4.2c0.7,0.1,1.4,0.2,2.1,0.2c0.1,0,0.1,0,0.2,0c1.5,6.2,7.2,11,13.8,11
			c7.7,0,14.2-6.5,14.2-14.2C676.2,828,669.7,821.5,662,821.5z"/>
		<path class="st3" d="M425,582.7c6.4,0,6.4-10,0-10S418.6,582.7,425,582.7z"/>
		<path class="st3" d="M427,603.9c7.7,0,14.2-6.5,14.2-14.2s-6.5-14.2-14.2-14.2s-14.2,6.5-14.2,14.2S419.3,603.9,427,603.9z"/>
		<path class="st3" d="M92,481c14.6,0,14.6-22.7,0-22.7C77.4,458.4,77.4,481,92,481z"/>
		<path class="st3" d="M328,449.8c9.1,0,9.1-14.2,0-14.2S318.9,449.8,328,449.8z"/>
		<path class="st3" d="M390,471.8c9.1,0,9.1-14.2,0-14.2S380.9,471.8,390,471.8z"/>
		<path class="st3" d="M150,435.8c9.1,0,9.1-14.2,0-14.2S140.9,435.8,150,435.8z"/>
	</g>
</g>
</svg>
