<svg width="65" height="65" viewBox="0 0 65 65" fill="none" xmlns="http://www.w3.org/2000/svg">
<rect width="65" height="65" rx="20" fill="#E9F9FF"/>
<path d="M33.6278 36.8486L41.393 30.6668L41.5841 30.5155C42.3689 29.894 42.5013 28.7541 41.8799 27.9693C41.7938 27.8607 41.6957 27.7622 41.5871 27.676L33.6279 21.3458C32.9674 20.8206 32.032 20.8206 31.3715 21.3458L23.4068 27.6803C22.6233 28.3034 22.4933 29.4436 23.1164 30.2271C23.2016 30.3341 23.2986 30.4312 23.4056 30.5165L23.5943 30.6668L31.371 36.8493C32.0316 37.3746 32.9674 37.3743 33.6278 36.8486Z" fill="#58CFFF"/>
<path opacity="0.5" fill-rule="evenodd" clip-rule="evenodd" d="M31.3597 39.9881L24.4476 34.4929C23.9759 34.1178 23.2894 34.1963 22.9144 34.668C22.9115 34.6716 22.9087 34.6752 22.9058 34.6789C22.5343 35.1586 22.6221 35.8486 23.1018 36.22C23.1035 36.2214 23.1052 36.2228 23.107 36.2241L31.3971 42.5648C32.047 43.0619 32.9492 43.0619 33.5991 42.565L41.8861 36.2292C42.3713 35.8582 42.4638 35.1641 42.0929 34.6789C42.0913 34.6769 42.0897 34.6748 42.0881 34.6727C41.7156 34.1926 41.0243 34.1053 40.5442 34.4779C40.5407 34.4805 40.5372 34.4833 40.5338 34.486L33.6159 39.9879C32.9556 40.5131 32.0202 40.5132 31.3597 39.9881Z" fill="#58CFFF"/>
</svg>
