<svg width="300" height="200" viewBox="0 0 300 200" fill="none" xmlns="http://www.w3.org/2000/svg">
<g clip-path="url(#clip0_1_2676)">
<path d="M296.1 100C296.1 89 287.1 80 276.1 80H224.1C213.1 80 204.1 71 204.1 60C204.1 49 213.1 40 224.1 40H232.1C243.1 40 252.1 31 252.1 20C252.1 9 243.1 0 232.1 0H44.1C33.1 0 24.1 9 24.1 20C24.1 31 33.1 40 44.1 40H50.1C61.1 40 70.1 49 70.1 60C70.1 71 61.1 80 50.1 80H45.1C34.1 80 25.1 89 25.1 100C25.1 111 34.1 120 45.1 120H60.1C71.1 120 80.1 129 80.1 140C80.1 151 71.1 160 60.1 160H31.1C20.1 160 11.1 169 11.1 180C11.1 191 20.1 200 31.1 200H230.1C241.1 200.8 250.7 192.5 251.5 181.5C252.3 170.5 244 160.9 233 160.1C232.1 160 231.1 160 230.2 160.1C219.2 160.1 209.2 151.1 209.2 140.1C209.3 129.1 218.2 120.2 229.2 120.1H276.2C287.2 120.1 296.2 111.1 296.2 100.1" fill="#EEF5FF"/>
<path d="M127.2 175.4C126.1 174.8 123.5 175 121.9 173.9C120.3 172.8 120.2 160.1 120.2 160.1H88.1999C88.1999 160.1 87.9999 172.8 86.3999 174C84.7999 175.2 82.1999 174.9 81.0999 175.6C79.9999 176.3 80.5999 177 82.9999 177H125.4C127.8 177 128.3 176 127.2 175.4Z" fill="#D2D3D5"/>
<path d="M123 158H87V163H123V158Z" fill="#BCBCBC"/>
<path d="M38.8 63H169.2C171.9 63 174 65.2 174 67.8V156.2C174 158.9 171.8 161 169.2 161H38.8C36.1 161 34 158.8 34 156.2V67.8C34 65.2 36.2 63 38.8 63Z" fill="#D2D3D5"/>
<path d="M174 149H34V68.1C34.2 65.2 36.6 62.9 39.5 63H169.2C172.1 63 174 65.2 174 68.1V149Z" fill="#393939"/>
<path d="M38.7 63H169.3C171.9 63 174 65.1 174 67.7V157.3C174 159.9 171.9 162 169.3 162H38.7C36.1 162 34 159.9 34 157.3V67.7C34 65.1 36.1 63 38.7 63Z" fill="#393939"/>
<path d="M131 176H80V177H131V176Z" fill="#898989"/>
<path d="M169 70H40V142H169V70Z" fill="#EFF0F5"/>
<path d="M107.7 156.6C107.6 156.8 107.5 157.1 107.3 157.3C107.2 157.5 107 157.7 106.8 157.9C106.6 158.1 106.4 158.2 106.2 158.2C106 158.2 105.8 158.1 105.6 158.1C105.4 158 105.2 158 105 158C104.8 158 104.6 158.1 104.4 158.1C104.2 158.2 104 158.2 103.8 158.2C103.6 158.2 103.3 158.1 103.2 157.9C103 157.7 102.8 157.5 102.7 157.3C102.5 157 102.3 156.6 102.2 156.2C102.1 155.8 102 155.4 102 154.9C102 154.5 102.1 154.1 102.3 153.7C102.5 153.4 102.7 153.2 102.9 153.1C103.2 152.9 103.5 152.9 103.8 152.9C104 152.9 104.3 153 104.5 153C104.7 153.1 104.8 153.1 105 153.1C105.2 153.1 105.4 153 105.6 152.9C105.9 152.8 106.1 152.8 106.4 152.8C106.9 152.8 107.4 153.1 107.7 153.5C107 153.9 106.7 154.8 107.1 155.6C107.2 155.7 107.3 155.9 107.4 156C107.5 156.1 107.7 156.2 107.9 156.3L107.7 156.6ZM106.4 151.3C106.4 151.7 106.3 152 106 152.3C105.7 152.6 105.3 152.8 104.9 152.8V152.7C104.9 152.3 105 152 105.3 151.7C105.4 151.5 105.6 151.4 105.8 151.3C106 151.2 106.2 151.2 106.4 151.1C106.3 151.2 106.3 151.3 106.4 151.3Z" fill="black"/>
<path d="M161 51H141V142H161V51Z" fill="#FCCC7A"/>
<path d="M165 49H156V149H165V49Z" fill="#F9B041"/>
<path d="M153.2 59C153.2 60.4 152.1 61.5 150.7 61.5C149.3 61.5 148.2 60.4 148.2 59C148.2 57.6 149.3 56.5 150.7 56.5C152.1 56.5 153.2 57.6 153.2 59Z" fill="#EEF5FF"/>
<path d="M151 66H141V67H151V66Z" fill="white"/>
<path d="M147 72H141V73H147V72Z" fill="white"/>
<path d="M147 78H141V79H147V78Z" fill="white"/>
<path d="M147 84H141V85H147V84Z" fill="white"/>
<path d="M151 90H141V91H151V90Z" fill="white"/>
<path d="M147 96H141V97H147V96Z" fill="white"/>
<path d="M147 102H141V103H147V102Z" fill="white"/>
<path d="M147 108H141V109H147V108Z" fill="white"/>
<path d="M151 114H141V115H151V114Z" fill="white"/>
<path d="M147 120H141V121H147V120Z" fill="white"/>
<path d="M147 126H141V127H147V126Z" fill="white"/>
<path d="M147 132H141V133H147V132Z" fill="white"/>
<path d="M151 138H141V139H151V138Z" fill="white"/>
<path d="M16.9 75H25.1C26.2 75 27 75.9 27 76.9V77.1C27 78.2 26.1 79 25.1 79H16.9C15.8 79 15 78.1 15 77.1V76.9C15 75.9 15.9 75 16.9 75Z" fill="#FFDA77"/>
<path d="M21 71C22.1 71 23 71.9 23 73V81C23 82.1 22.1 83 21 83C19.9 83 19 82.1 19 81V73C19 71.9 19.9 71 21 71Z" fill="#FFDA77"/>
<path d="M46.5 44.7C48.7091 44.7 50.5 42.9091 50.5 40.7C50.5 38.4908 48.7091 36.7 46.5 36.7C44.2909 36.7 42.5 38.4908 42.5 40.7C42.5 42.9091 44.2909 44.7 46.5 44.7Z" stroke="#A79FFF" stroke-width="3" stroke-miterlimit="10"/>
<path d="M24.6 55.8C25.9807 55.8 27.1 54.6808 27.1 53.3C27.1 51.9193 25.9807 50.8 24.6 50.8C23.2193 50.8 22.1 51.9193 22.1 53.3C22.1 54.6808 23.2193 55.8 24.6 55.8Z" fill="#40E088"/>
<path d="M120.5 21C122.157 21 123.5 19.6569 123.5 18C123.5 16.3431 122.157 15 120.5 15C118.843 15 117.5 16.3431 117.5 18C117.5 19.6569 118.843 21 120.5 21Z" fill="#E467A6"/>
<path d="M109.6 17.8L109.3 17.3C108.1 14.9 106.1 13 103.7 11.9L104.2 11.6C106.5 10.4 108.4 8.5 109.5 6.2L109.6 6C110.7 8.4 112.5 10.3 114.8 11.5L115.5 11.9L115.2 12C112.8 13.3 110.8 15.3 109.6 17.8Z" fill="#72EDFC"/>
</g>
<path d="M123 51H48V142H123V51Z" fill="#4D4F63"/>
<path d="M68 57H54V60H68V57Z" fill="#72EDFC"/>
<path d="M99 108H60V111H99V108Z" fill="#72EDFC"/>
<path d="M70 133H54V136H70V133Z" fill="#72EDFC"/>
<path d="M117 122H72V125H117V122Z" fill="#8A878E"/>
<path d="M68 64H54V67H68V64Z" fill="#FF896B"/>
<path d="M68 82H59V85H68V82Z" fill="#FF896B"/>
<path d="M91 82H71V85H91V82Z" fill="#FFF9FA"/>
<path d="M95 89H87V92H95V89Z" fill="#FF896B"/>
<path d="M111 108H102V111H111V108Z" fill="#FF896B"/>
<path d="M82 133H74V136H82V133Z" fill="#FFF9FA"/>
<path d="M83 89H65V92H83V89Z" fill="#FFF9FA"/>
<path d="M95 115H87V118H95V115Z" fill="#8A878E"/>
<path d="M107 115H98V118H107V115Z" fill="#8A878E"/>
<path d="M83 115H65V118H83V115Z" fill="#8A878E"/>
<path d="M117 89H98V92H117V89Z" fill="#FFF9FA"/>
<path d="M76 75H54V78H76V75Z" fill="#8A878E"/>
<path d="M61 101H54V104H61V101Z" fill="#FF896B"/>
<path d="M101 75H79V78H101V75Z" fill="#FFF9FA"/>
<defs>
<clipPath id="clip0_1_2676">
<rect width="300" height="200" fill="white"/>
</clipPath>
</defs>
</svg>
