<?xml version="1.0" encoding="UTF-8"?>
<svg id="Calque_1" data-name="Calque 1" xmlns="http://www.w3.org/2000/svg" xmlns:xlink="http://www.w3.org/1999/xlink" viewBox="0 0 342 240">
  <defs>
    <style>
      .cls-1, .cls-2 {
        fill: none;
      }

      .cls-2 {
        stroke: #a79fff;
        stroke-miterlimit: 10;
        stroke-width: 3px;
      }

      .cls-3 {
        clip-path: url(#clippath);
      }

      .cls-4 {
        fill: #f9b041;
      }

      .cls-5 {
        fill: #eef5ff;
      }

      .cls-6 {
        fill: #fff;
      }

      .cls-7 {
        fill: #fff9fa;
      }

      .cls-8 {
        fill: #ffda77;
      }

      .cls-9 {
        fill: #fccc7a;
      }

      .cls-10 {
        fill: #e467a6;
      }

      .cls-11 {
        fill: #eff0f5;
      }

      .cls-12 {
        fill: #ff896b;
      }

      .cls-13 {
        fill: #72edfc;
      }

      .cls-14 {
        fill: #8a878e;
      }

      .cls-15 {
        fill: #bcbcbc;
      }

      .cls-16 {
        fill: #d2d3d5;
      }

      .cls-17 {
        fill: #40e088;
      }

      .cls-18 {
        fill: #898989;
      }

      .cls-19 {
        fill: #393939;
      }

      .cls-20 {
        fill: #4d4f63;
      }
    </style>
    <clipPath id="clippath">
      <rect class="cls-1" x="21" y="20" width="300" height="200"/>
    </clipPath>
  </defs>
  <g class="cls-3">
    <g>
      <path class="cls-5" d="M317.1,120c0-11-9-20-20-20h-52c-11,0-20-9-20-20s9-20,20-20h8c11,0,20-9,20-20s-9-20-20-20H65.1c-11,0-20,9-20,20s9,20,20,20h6c11,0,20,9,20,20s-9,20-20,20h-5c-11,0-20,9-20,20s9,20,20,20h15c11,0,20,9,20,20s-9,20-20,20h-29c-11,0-20,9-20,20s9,20,20,20H251.1c11,.8,20.6-7.5,21.4-18.5s-7.5-20.6-18.5-21.4c-.9-.1-1.9-.1-2.8,0-11,0-21-9-21-20,.1-11,9-19.9,20-20h47c11,0,20-9,20-20"/>
      <path class="cls-16" d="M148.2,195.4c-1.1-.6-3.7-.4-5.3-1.5-1.6-1.1-1.7-13.8-1.7-13.8h-32s-.2,12.7-1.8,13.9-4.2,.9-5.3,1.6c-1.1,.7-.5,1.4,1.9,1.4h42.4c2.4,0,2.9-1,1.8-1.6Z"/>
      <path class="cls-15" d="M144,178h-36v5h36v-5Z"/>
      <path class="cls-16" d="M59.8,83H190.2c2.7,0,4.8,2.2,4.8,4.8v88.4c0,2.7-2.2,4.8-4.8,4.8H59.8c-2.7,0-4.8-2.2-4.8-4.8V87.8c0-2.6,2.2-4.8,4.8-4.8Z"/>
      <path class="cls-19" d="M195,169H55V88.1c.2-2.9,2.6-5.2,5.5-5.1H190.2c2.9,0,4.8,2.2,4.8,5.1v80.9Z"/>
      <path class="cls-19" d="M59.7,83H190.3c2.6,0,4.7,2.1,4.7,4.7v89.6c0,2.6-2.1,4.7-4.7,4.7H59.7c-2.6,0-4.7-2.1-4.7-4.7V87.7c0-2.6,2.1-4.7,4.7-4.7Z"/>
      <path class="cls-18" d="M152,196h-51v1h51v-1Z"/>
      <path class="cls-11" d="M190,90H61v72H190V90Z"/>
      <path class="cls-6" d="M128.7,176.6c-.1,.2-.2,.5-.4,.7-.1,.2-.3,.4-.5,.6-.2,.2-.4,.3-.6,.3s-.4-.1-.6-.1c-.2-.1-.4-.1-.6-.1s-.4,.1-.6,.1c-.2,.1-.4,.1-.6,.1s-.5-.1-.6-.3c-.2-.2-.4-.4-.5-.6-.2-.3-.4-.7-.5-1.1-.1-.4-.2-.8-.2-1.3,0-.4,.1-.8,.3-1.2,.2-.3,.4-.5,.6-.6,.3-.2,.6-.2,.9-.2,.2,0,.5,.1,.7,.1,.2,.1,.3,.1,.5,.1s.4-.1,.6-.2c.3-.1,.5-.1,.8-.1,.5,0,1,.3,1.3,.7-.7,.4-1,1.3-.6,2.1,.1,.1,.2,.3,.3,.4,.1,.1,.3,.2,.5,.3l-.2,.3Zm-1.3-5.3c0,.4-.1,.7-.4,1s-.7,.5-1.1,.5v-.1c0-.4,.1-.7,.4-1,.1-.2,.3-.3,.5-.4,.2-.1,.4-.1,.6-.2-.1,.1-.1,.2,0,.2Z"/>
      <path class="cls-9" d="M182,71h-20v91h20V71Z"/>
      <path class="cls-4" d="M186,69h-9v100h9V69Z"/>
      <path class="cls-5" d="M174.2,79c0,1.4-1.1,2.5-2.5,2.5s-2.5-1.1-2.5-2.5,1.1-2.5,2.5-2.5,2.5,1.1,2.5,2.5Z"/>
      <path class="cls-6" d="M172,86h-10v1h10v-1Z"/>
      <path class="cls-6" d="M168,92h-6v1h6v-1Z"/>
      <path class="cls-6" d="M168,98h-6v1h6v-1Z"/>
      <path class="cls-6" d="M168,104h-6v1h6v-1Z"/>
      <path class="cls-6" d="M172,110h-10v1h10v-1Z"/>
      <path class="cls-6" d="M168,116h-6v1h6v-1Z"/>
      <path class="cls-6" d="M168,122h-6v1h6v-1Z"/>
      <path class="cls-6" d="M168,128h-6v1h6v-1Z"/>
      <path class="cls-6" d="M172,134h-10v1h10v-1Z"/>
      <path class="cls-6" d="M168,140h-6v1h6v-1Z"/>
      <path class="cls-6" d="M168,146h-6v1h6v-1Z"/>
      <path class="cls-6" d="M168,152h-6v1h6v-1Z"/>
      <path class="cls-6" d="M172,158h-10v1h10v-1Z"/>
      <path class="cls-8" d="M37.9,95h8.2c1.1,0,1.9,.9,1.9,1.9v.2c0,1.1-.9,1.9-1.9,1.9h-8.2c-1.1,0-1.9-.9-1.9-1.9v-.2c0-1,.9-1.9,1.9-1.9Z"/>
      <path class="cls-8" d="M42,91c1.1,0,2,.9,2,2v8c0,1.1-.9,2-2,2s-2-.9-2-2v-8c0-1.1,.9-2,2-2Z"/>
      <path class="cls-2" d="M67.5,64.7c2.21,0,4-1.79,4-4s-1.79-4-4-4-4,1.79-4,4,1.79,4,4,4Z"/>
      <path class="cls-17" d="M45.6,75.8c1.38,0,2.5-1.12,2.5-2.5s-1.12-2.5-2.5-2.5-2.5,1.12-2.5,2.5,1.12,2.5,2.5,2.5Z"/>
      <path class="cls-10" d="M141.5,41c1.66,0,3-1.34,3-3s-1.34-3-3-3-3,1.34-3,3,1.34,3,3,3Z"/>
      <path class="cls-13" d="M130.6,42.8l-.3-.5c-1.2-2.4-3.2-4.3-5.6-5.4l.5-.3c2.3-1.2,4.2-3.1,5.3-5.4l.1-.2c1.1,2.4,2.9,4.3,5.2,5.5l.7,.4-.3,.1c-2.4,1.3-4.4,3.3-5.6,5.8Z"/>
    </g>
  </g>
  <path class="cls-20" d="M132.24,67.07l-72.44,19.41,23.55,87.9,72.44-19.41-23.55-87.9Z"/>
  <path class="cls-13" d="M80.66,87.1l-13.52,3.62,.78,2.9,13.52-3.62-.78-2.9Z"/>
  <path class="cls-13" d="M123.81,128.34l-37.67,10.09,.78,2.9,37.67-10.09-.78-2.9Z"/>
  <path class="cls-13" d="M102.27,160l-15.46,4.14,.78,2.9,15.45-4.14-.78-2.9Z"/>
  <path class="cls-14" d="M144.82,137.21l-43.47,11.65,.78,2.9,43.47-11.65-.78-2.9Z"/>
  <path class="cls-12" d="M82.48,93.87l-13.52,3.62,.78,2.9,13.52-3.62-.78-2.9Z"/>
  <path class="cls-12" d="M87.14,111.25l-8.69,2.33,.78,2.9,8.69-2.33-.78-2.9Z"/>
  <path class="cls-7" d="M109.35,105.3l-19.32,5.18,.78,2.9,19.32-5.18-.78-2.9Z"/>
  <path class="cls-12" d="M115.03,111.03l-7.73,2.07,.78,2.9,7.73-2.07-.78-2.9Z"/>
  <path class="cls-12" d="M135.4,125.24l-8.69,2.33,.78,2.9,8.69-2.33-.78-2.9Z"/>
  <path class="cls-7" d="M113.86,156.89l-7.73,2.07,.78,2.9,7.73-2.07-.78-2.9Z"/>
  <path class="cls-7" d="M103.44,114.13l-17.39,4.66,.78,2.9,17.39-4.66-.78-2.9Z"/>
  <path class="cls-14" d="M121.76,136.14l-7.73,2.07,.78,2.9,7.73-2.07-.78-2.9Z"/>
  <path class="cls-14" d="M133.35,133.03l-8.69,2.33,.78,2.9,8.69-2.33-.78-2.9Z"/>
  <path class="cls-14" d="M110.17,139.24l-17.39,4.66,.78,2.9,17.39-4.66-.78-2.9Z"/>
  <path class="cls-7" d="M136.28,105.33l-18.35,4.92,.78,2.9,18.35-4.92-.78-2.9Z"/>
  <path class="cls-14" d="M93.05,102.42l-21.25,5.69,.78,2.9,21.25-5.69-.78-2.9Z"/>
  <path class="cls-12" d="M85.29,131.42l-6.76,1.81,.78,2.9,6.76-1.81-.78-2.9Z"/>
  <path class="cls-7" d="M117.2,95.95l-21.25,5.69,.78,2.9,21.25-5.69-.78-2.9Z"/>
  <path class="cls-20" d="M182.79,71H107.79v91h75V71Z"/>
  <path class="cls-13" d="M127.79,77h-14v3h14v-3Z"/>
  <path class="cls-13" d="M158.79,128h-39v3h39v-3Z"/>
  <path class="cls-13" d="M129.79,153h-16v3h16v-3Z"/>
  <path class="cls-14" d="M176.79,142h-45v3h45v-3Z"/>
  <path class="cls-12" d="M127.79,84h-14v3h14v-3Z"/>
  <path class="cls-12" d="M127.79,102h-9v3h9v-3Z"/>
  <path class="cls-7" d="M150.79,102h-20v3h20v-3Z"/>
  <path class="cls-12" d="M154.79,109h-8v3h8v-3Z"/>
  <path class="cls-12" d="M170.79,128h-9v3h9v-3Z"/>
  <path class="cls-7" d="M141.79,153h-8v3h8v-3Z"/>
  <path class="cls-7" d="M142.79,109h-18v3h18v-3Z"/>
  <path class="cls-14" d="M154.79,135h-8v3h8v-3Z"/>
  <path class="cls-14" d="M166.79,135h-9v3h9v-3Z"/>
  <path class="cls-14" d="M142.79,135h-18v3h18v-3Z"/>
  <path class="cls-7" d="M176.79,109h-19v3h19v-3Z"/>
  <path class="cls-14" d="M135.79,95h-22v3h22v-3Z"/>
  <path class="cls-12" d="M120.79,121h-7v3h7v-3Z"/>
  <path class="cls-7" d="M160.79,95h-22v3h22v-3Z"/>
</svg>