<?xml version="1.0" encoding="UTF-8"?>
<svg id="Calque_1" data-name="Calque 1" xmlns="http://www.w3.org/2000/svg" xmlns:xlink="http://www.w3.org/1999/xlink" viewBox="0 0 301 200">
  <defs>
    <style>
      .cls-1, .cls-2, .cls-3, .cls-4, .cls-5 {
        fill: none;
      }

      .cls-2 {
        stroke: #40e088;
        stroke-width: 3px;
      }

      .cls-2, .cls-4, .cls-5 {
        stroke-miterlimit: 10;
      }

      .cls-6 {
        clip-path: url(#clippath);
      }

      .cls-7 {
        fill: #eef5ff;
      }

      .cls-8 {
        fill: #fff;
      }

      .cls-9 {
        fill: #ffda77;
      }

      .cls-10 {
        fill: #e467a6;
      }

      .cls-11 {
        fill: #fc7476;
      }

      .cls-12 {
        fill: #ff216a;
      }

      .cls-13 {
        fill: #feaf91;
      }

      .cls-14 {
        fill: #8c93a0;
      }

      .cls-15 {
        fill: #b2b8c6;
      }

      .cls-16 {
        fill: #a79fff;
      }

      .cls-17 {
        fill: #b2b2b2;
      }

      .cls-18 {
        fill: #e06969;
      }

      .cls-19 {
        fill: #d9dade;
      }

      .cls-20 {
        fill: #565352;
      }

      .cls-21 {
        fill: rgba(255, 33, 106, .5);
      }

      .cls-22 {
        fill: #adadad;
      }

      .cls-22, .cls-23, .cls-24, .cls-25, .cls-26 {
        isolation: isolate;
        opacity: .3;
      }

      .cls-23 {
        fill: #ff896b;
      }

      .cls-24 {
        fill: #72edfc;
      }

      .cls-25 {
        fill: #fccc7a;
      }

      .cls-26 {
        fill: #9b99f2;
      }

      .cls-27 {
        clip-path: url(#clippath-1);
      }

      .cls-3 {
        stroke: #565352;
        stroke-linecap: round;
        stroke-linejoin: bevel;
      }

      .cls-3, .cls-4 {
        stroke-width: 2px;
      }

      .cls-4 {
        stroke: #a79fff;
      }

      .cls-5 {
        stroke: #ddd;
      }

      .cls-28 {
        fill: url(#Dégradé_sans_nom);
      }
    </style>
    <clipPath id="clippath">
      <rect class="cls-1" x=".05" y="-.1" width="300" height="200"/>
    </clipPath>
    <clipPath id="clippath-1">
      <rect class="cls-1" x="56.05" y="-50.1" width="200" height="300" transform="translate(19.16 224.78) rotate(-75)"/>
    </clipPath>
    <linearGradient id="Dégradé_sans_nom" data-name="Dégradé sans nom" x1="45.63" y1="118.85" x2="142.44" y2="118.85" gradientTransform="translate(0 202) scale(1 -1)" gradientUnits="userSpaceOnUse">
      <stop offset="0" stop-color="#ffb192"/>
      <stop offset="1" stop-color="#e5907f"/>
    </linearGradient>
  </defs>
  <g class="cls-6">
    <path class="cls-7" d="M293.6,97.45c0-11-9-20-20-20h-52c-11,0-20-9-20-20s9-20,20-20h8c11,0,20-9,20-20s-9-20-20-20H41.6c-11,0-20,9-20,20s9,20,20,20h6c11,0,20,9,20,20s-9,20-20,20h-5c-11,0-20,9-20,20s9,20,20,20h15c11,0,20,9,20,20s-9,20-20,20H28.6c-11,0-20,9-20,20s9,20,20,20H227.6c11,0,20-9,20-20s-9-20-20-20-21-9-21-20,9-20,20-20h47c11,0,20-8.9,20-20Z"/>
  </g>
  <g class="cls-27">
    <g>
      <path class="cls-8" d="M110.77,41.7l143.54,38.46c3.09,.83,4.83,3.99,4.03,6.98l-25.78,96.21c-.83,3.09-3.99,4.83-6.98,4.03l-143.54-38.46c-3.09-.83-4.83-3.99-4.03-6.98l25.78-96.21c.8-2.99,3.99-4.83,6.98-4.03Z"/>
      <path class="cls-19" d="M271.38,79.04L66.6,24.17l-5.44,20.28,204.78,54.87,5.44-20.28Z"/>
      <path class="cls-17" d="M247.72,89.27c1.49,.4,3.03-.49,3.43-1.98,.4-1.49-.49-3.03-1.98-3.43-1.49-.4-3.03,.49-3.43,1.98-.4,1.49,.49,3.03,1.98,3.43Z"/>
      <path class="cls-17" d="M239.22,86.99c1.49,.4,3.03-.49,3.43-1.98,.4-1.49-.49-3.03-1.98-3.43-1.49-.4-3.03,.49-3.43,1.98-.4,1.49,.49,3.03,1.98,3.43Z"/>
      <path class="cls-17" d="M231.01,84.79c1.49,.4,3.03-.49,3.43-1.98,.4-1.49-.49-3.03-1.98-3.43-1.49-.4-3.03,.49-3.43,1.98-.4,1.49,.49,3.03,1.98,3.43Z"/>
      <path class="cls-5" d="M110.77,41.7l143.54,38.46c3.09,.83,4.83,3.99,4.03,6.98l-25.78,96.21c-.83,3.09-3.99,4.83-6.98,4.03l-143.54-38.46c-3.09-.83-4.83-3.99-4.03-6.98l25.78-96.21c.8-2.99,3.99-4.83,6.98-4.03Z"/>
      <path class="cls-26" d="M143.73,111.09l-31.88-8.54-5.95,22.22,31.88,8.54,5.95-22.22Z"/>
      <path class="cls-24" d="M181.68,151.08l-28.98-7.76-5.95,22.22,28.98,7.76,5.95-22.22Z"/>
      <path class="cls-25" d="M233.03,136.37l-31.2-8.36-13.07,48.78,31.2,8.36,13.07-48.78Z"/>
      <path class="cls-23" d="M129.33,140.88l-25.6-6.86-.88,3.28,25.6,6.86,.88-3.28Z"/>
      <path class="cls-22" d="M144.54,150.96l-42.31-11.34-.88,3.28,42.31,11.34,.88-3.28Z"/>
      <path class="cls-22" d="M143.07,156.47l-42.31-11.34-.88,3.28,42.31,11.34,.88-3.28Z"/>
      <path class="cls-24" d="M242.61,100.63l-112.53-30.15-7.51,28.01,112.53,30.15,7.51-28.01Z"/>
      <path class="cls-25" d="M174.32,122.5l-25.6-6.86-.88,3.28,25.6,6.86,.88-3.29Z"/>
      <path class="cls-22" d="M189.53,132.58l-42.31-11.34-.88,3.28,42.31,11.34,.88-3.28Z"/>
      <path class="cls-22" d="M188.03,138.18l-42.31-11.34-.88,3.28,42.31,11.34,.88-3.28Z"/>
    </g>
  </g>
  <path class="cls-28" d="M94.05,32.3c-52.9,0-55.7,58.7-40.2,75.8,8.3,9.1,11.8,16.2,13.2,20.8,1,3.1,3.9,5.2,7.1,5.1h39.7c3.2,.1,6.1-2,7.1-5.1,1.4-4.6,4.9-11.7,13.2-20.8,15.6-17.2,12.8-75.8-40.1-75.8Z"/>
  <path class="cls-14" d="M92.45,167.9h-8.5c-4.9,0-8.9-6-8.9-13h27.2c.1,7-4.8,13-9.8,13Z"/>
  <path class="cls-15" d="M68.45,133.9h40.1c2.5,0,4.4,2,4.4,4.4v3.1c0,2.5-2,4.4-4.4,4.4h-40.1c-2.5,0-4.4-2-4.4-4.4v-3.1c0-2.4,2-4.4,4.4-4.4Z"/>
  <path class="cls-19" d="M75.45,133.9h15.1c2.5,0,4.4,2,4.4,4.4v3.1c0,2.5-2,4.4-4.4,4.4h-15.1c-2.5,0-4.4-2-4.4-4.4v-3.1c0-2.4,2-4.4,4.4-4.4Z"/>
  <path class="cls-15" d="M68.45,145.9h40.1c2.5,0,4.4,2,4.4,4.4v3.1c0,2.5-2,4.4-4.4,4.4h-40.1c-2.5,0-4.4-2-4.4-4.4v-3.1c0-2.4,2-4.4,4.4-4.4Z"/>
  <path class="cls-19" d="M75.45,145.9h11.1c2.5,0,4.4,2,4.4,4.4v3.1c0,2.5-2,4.4-4.4,4.4h-11.1c-2.5,0-4.4-2-4.4-4.4v-3.1c0-2.4,2-4.4,4.4-4.4Z"/>
  <path class="cls-3" d="M75.95,64.9s0,4.1-4.8,4.1-4.8-4.1-4.8-4.1"/>
  <path class="cls-3" d="M103.05,64.9s0,4.1,4.9,4.1,4.8-4.1,4.8-4.1"/>
  <path class="cls-20" d="M95.75,92.5c-4.4,.4-13.7-2.3-14-5.4l-.2-1.3c-.1-.9,.5-1.6,1.4-1.7l18.3-1.8c.9-.1,1.6,.5,1.7,1.4l.3,1.3c.4,3.1-1.1,6.8-7.5,7.5Z"/>
  <path class="cls-18" d="M95.05,99.8c3.7,0,6.7-3,6.7-6.7s-3-6.7-6.7-6.7-6.7,3-6.7,6.7,3,6.7,6.7,6.7Z"/>
  <path class="cls-12" d="M64.05,83.1c2.98,0,5.4-2.42,5.4-5.4s-2.42-5.4-5.4-5.4-5.4,2.42-5.4,5.4,2.42,5.4,5.4,5.4Z"/>
  <path class="cls-21" d="M64.05,83.1c2.98,0,5.4-2.42,5.4-5.4s-2.42-5.4-5.4-5.4-5.4,2.42-5.4,5.4,2.42,5.4,5.4,5.4Z"/>
  <path class="cls-12" d="M114.75,83.3c2.98,0,5.4-2.42,5.4-5.4s-2.42-5.4-5.4-5.4-5.4,2.42-5.4,5.4,2.42,5.4,5.4,5.4Z"/>
  <path class="cls-21" d="M114.75,83.3c2.98,0,5.4-2.42,5.4-5.4s-2.42-5.4-5.4-5.4-5.4,2.42-5.4,5.4,2.42,5.4,5.4,5.4Z"/>
  <path class="cls-13" d="M88.65,7.2h.1c1.6,0,2.9,1.3,2.9,2.9v14.1c0,1.6-1.3,2.9-2.9,2.9h-.1c-1.6,0-2.9-1.3-2.9-2.9V10.2c-.1-1.7,1.2-3,2.9-3Z"/>
  <path class="cls-13" d="M163.65,87.2v.1c0,1.6-1.3,2.9-2.9,2.9h-14.1c-1.6,0-2.9-1.3-2.9-2.9v-.1c0-1.6,1.3-2.9,2.9-2.9h14.1c1.6-.1,2.9,1.2,2.9,2.9Z"/>
  <path class="cls-13" d="M32.65,87.2v.1c0,1.6-1.3,2.9-2.9,2.9H15.65c-1.6,0-2.9-1.3-2.9-2.9v-.1c0-1.6,1.3-2.9,2.9-2.9h14.1c1.6-.1,2.9,1.2,2.9,2.9Z"/>
  <path class="cls-13" d="M44.55,44.5c-1.2,1.2-3.1,1.2-4.2,.1l-10-10c-1.1-1.1-1.1-3,0-4.1l.1-.1c1.1-1.1,3-1.1,4.1,0l10,10c1.2,1.1,1.2,3,0,4.1Z"/>
  <path class="cls-13" d="M141.95,28.4c1.2,1.2,1.2,3.1,.1,4.2l-10,10c-1.1,1.1-3,1.1-4.1,0l-.1-.1c-1.1-1.1-1.1-3,0-4.1l10-10c1.1-1.2,2.9-1.2,4.1,0Z"/>
  <path class="cls-13" d="M48.45,121.8c1.2,1.2,1.2,3.1,.1,4.2l-10,10c-1.1,1.1-3,1.1-4.1,0l-.1-.1c-1.1-1.1-1.1-3,0-4.1l10-10c1.1-1.1,3-1.1,4.1,0Z"/>
  <path class="cls-13" d="M141.55,136c-1.2,1.2-3.1,1.2-4.2,.1l-10-10c-1.1-1.1-1.1-3,0-4.1l.1-.1c1.1-1.1,3-1.1,4.1,0l10,10c1.2,1.1,1.2,2.9,0,4.1Z"/>
  <path class="cls-9" d="M20.95,69.9h8.2c1.1,0,1.9,.9,1.9,1.9v.2c0,1.1-.9,1.9-1.9,1.9h-8.2c-1.1,0-1.9-.9-1.9-1.9v-.2c0-1,.9-1.9,1.9-1.9Z"/>
  <path class="cls-9" d="M25.05,65.9c1.1,0,2,.9,2,2v8c0,1.1-.9,2-2,2s-2-.9-2-2v-8c0-1.1,.9-2,2-2Z"/>
  <path class="cls-11" d="M48.75,25.5h5.3c.7,0,1.3,.6,1.3,1.3s-.6,1.3-1.3,1.3h-5.3c-.7,0-1.3-.6-1.3-1.3-.1-.7,.5-1.3,1.3-1.3Z"/>
  <path class="cls-11" d="M52.75,24.1v5.5c0,.7-.6,1.3-1.3,1.3h-.2c-.7,0-1.3-.6-1.3-1.3v-5.5c0-.7,.6-1.3,1.3-1.3h.2c.7,.1,1.3,.6,1.3,1.3Z"/>
  <path class="cls-2" d="M20.85,109.1c2.21,0,4-1.79,4-4s-1.79-4-4-4-4,1.79-4,4,1.79,4,4,4Z"/>
  <path class="cls-4" d="M7.85,35.1c2.21,0,4-1.79,4-4s-1.79-4-4-4-4,1.79-4,4,1.79,4,4,4Z"/>
  <path class="cls-16" d="M115.15,23.6l-.3-.5c-1.2-2.4-3.2-4.3-5.6-5.4l.5-.3c2.3-1.2,4.2-3.1,5.3-5.4l.1-.2c1.1,2.4,2.9,4.3,5.2,5.5l.7,.3-.3,.1c-2.4,1.4-4.4,3.4-5.6,5.9Z"/>
  <path class="cls-10" d="M39.05,114.5l-.2-.3c-.7-1.4-1.9-2.5-3.3-3.2l.3-.2c1.4-.7,2.5-1.8,3.1-3.2l.1-.1c.6,1.4,1.7,2.6,3.1,3.3l.4,.2-.2,.1c-1.4,.8-2.6,2-3.3,3.4Z"/>
  <path class="cls-11" d="M14.05,22.5l-.1-.3c-.7-1.4-1.9-2.5-3.4-3.2l.3-.1c1.4-.7,2.5-1.8,3.1-3.2l.1-.1c.6,1.4,1.7,2.6,3.1,3.3l.4,.2-.2,.1c-1.4,.7-2.6,1.9-3.3,3.3Z"/>
</svg>