<?xml version="1.0" encoding="UTF-8"?>
<svg id="Calque_1" data-name="Calque 1" xmlns="http://www.w3.org/2000/svg" xmlns:xlink="http://www.w3.org/1999/xlink" viewBox="0 0 301 200">
  <defs>
    <style>
      .cls-1, .cls-2, .cls-3, .cls-4, .cls-5 {
        fill: none;
      }

      .cls-2 {
        stroke: #40e088;
        stroke-width: 3px;
      }

      .cls-2, .cls-4, .cls-5 {
        stroke-miterlimit: 10;
      }

      .cls-6 {
        clip-path: url(#clippath);
      }

      .cls-7 {
        fill: #eef5ff;
      }

      .cls-8 {
        fill: #fff;
      }

      .cls-9 {
        fill: #fff0f0;
      }

      .cls-10 {
        fill: #ffda77;
      }

      .cls-11 {
        fill: #e467a6;
      }

      .cls-12 {
        fill: #fc7476;
      }

      .cls-13 {
        fill: #feaf91;
      }

      .cls-14 {
        fill: #8c93a0;
      }

      .cls-15 {
        fill: #b2b8c6;
      }

      .cls-16 {
        fill: #a79fff;
      }

      .cls-17 {
        fill: #b2b2b2;
      }

      .cls-18 {
        fill: #e06969;
      }

      .cls-19 {
        fill: #d9dade;
      }

      .cls-20 {
        fill: #565352;
      }

      .cls-21 {
        fill: #adadad;
      }

      .cls-21, .cls-22, .cls-23, .cls-24, .cls-25 {
        isolation: isolate;
        opacity: .3;
      }

      .cls-22 {
        fill: #ff896b;
      }

      .cls-23 {
        fill: #72edfc;
      }

      .cls-24 {
        fill: #fccc7a;
      }

      .cls-25 {
        fill: #9b99f2;
      }

      .cls-3 {
        stroke: #565352;
        stroke-linecap: round;
        stroke-linejoin: bevel;
      }

      .cls-3, .cls-4 {
        stroke-width: 2px;
      }

      .cls-4 {
        stroke: #a79fff;
      }

      .cls-5 {
        stroke: #ddd;
      }

      .cls-26 {
        fill: url(#Dégradé_sans_nom);
      }
    </style>
    <clipPath id="clippath">
      <rect class="cls-1" x=".08" width="300" height="200"/>
    </clipPath>
    <linearGradient id="Dégradé_sans_nom" data-name="Dégradé sans nom" x1="39.65" y1="118.75" x2="136.47" y2="118.75" gradientTransform="translate(0 202) scale(1 -1)" gradientUnits="userSpaceOnUse">
      <stop offset="0" stop-color="#ffb192"/>
      <stop offset="1" stop-color="#e5907f"/>
    </linearGradient>
  </defs>
  <g class="cls-6">
    <path class="cls-7" d="M296.18,100.1c0-11-9-20-20-20h-52c-11,0-20-9-20-20s9-20,20-20h8c11,0,20-9,20-20S243.18,.1,232.18,.1H44.18C33.18,.1,24.18,9.1,24.18,20.1s9,20,20,20h6c11,0,20,9,20,20s-9,20-20,20h-5c-11,0-20,9-20,20s9,20,20,20h15c11,0,20,9,20,20s-9,20-20,20H31.18c-11,0-20,9-20,20s9,20,20,20H230.18c11,0,20-9,20-20s-9-20-20-20-21-9-21-20,9-20,20-20h47c11,0,20-8.9,20-20Z"/>
  </g>
  <path class="cls-8" d="M91.28,55.5H239.88c3.2,0,5.7,2.6,5.7,5.7v99.6c0,3.2-2.6,5.7-5.7,5.7H91.28c-3.2,0-5.7-2.6-5.7-5.7V61.2c0-3.1,2.6-5.7,5.7-5.7Z"/>
  <path class="cls-19" d="M256.08,50H44.08v21h212v-21Z"/>
  <path class="cls-17" d="M235.88,66c1.55,0,2.8-1.25,2.8-2.8s-1.25-2.8-2.8-2.8-2.8,1.25-2.8,2.8,1.25,2.8,2.8,2.8Z"/>
  <path class="cls-17" d="M227.08,66c1.55,0,2.8-1.25,2.8-2.8s-1.25-2.8-2.8-2.8-2.8,1.25-2.8,2.8,1.25,2.8,2.8,2.8Z"/>
  <path class="cls-17" d="M218.58,66c1.55,0,2.8-1.25,2.8-2.8s-1.25-2.8-2.8-2.8-2.8,1.25-2.8,2.8,1.25,2.8,2.8,2.8Z"/>
  <path class="cls-5" d="M91.28,55.5H239.88c3.2,0,5.7,2.6,5.7,5.7v99.6c0,3.2-2.6,5.7-5.7,5.7H91.28c-3.2,0-5.7-2.6-5.7-5.7V61.2c0-3.1,2.6-5.7,5.7-5.7Z"/>
  <path class="cls-25" d="M141.08,114h-33v23h33v-23Z"/>
  <path class="cls-23" d="M188.08,142.8h-30v23h30v-23Z"/>
  <path class="cls-24" d="M233.88,115.3h-32.3v50.5h32.3v-50.5Z"/>
  <path class="cls-22" d="M134.88,146.5h-26.5v3.4h26.5v-3.4Z"/>
  <path class="cls-21" d="M152.18,152.3h-43.8v3.4h43.8v-3.4Z"/>
  <path class="cls-21" d="M152.18,158h-43.8v3.4h43.8v-3.4Z"/>
  <path class="cls-23" d="M233.88,78.3H117.38v29h116.5v-29Z"/>
  <path class="cls-24" d="M173.58,117.1h-26.5v3.4h26.5v-3.4Z"/>
  <path class="cls-21" d="M190.88,122.9h-43.8v3.4h43.8v-3.4Z"/>
  <path class="cls-21" d="M190.88,128.7h-43.8v3.4h43.8v-3.4Z"/>
  <path class="cls-26" d="M88.08,32.4c-52.9,0-55.7,58.7-40.2,75.8,8.3,9.1,11.8,16.2,13.2,20.8,1,3.1,3.9,5.2,7.1,5.1h39.7c3.2,.1,6.1-2,7.1-5.1,1.4-4.6,4.9-11.7,13.2-20.8,15.6-17.2,12.8-75.8-40.1-75.8Z"/>
  <path class="cls-14" d="M92.48,168h-8.5c-4.9,0-8.9-6-8.9-13h27.2c.1,7-4.8,13-9.8,13Z"/>
  <path class="cls-15" d="M68.48,134h40.1c2.5,0,4.4,2,4.4,4.4v3.1c0,2.5-2,4.4-4.4,4.4h-40.1c-2.5,0-4.4-2-4.4-4.4v-3.1c0-2.4,2-4.4,4.4-4.4Z"/>
  <path class="cls-19" d="M75.48,134h15.1c2.5,0,4.4,2,4.4,4.4v3.1c0,2.5-2,4.4-4.4,4.4h-15.1c-2.5,0-4.4-2-4.4-4.4v-3.1c0-2.4,2-4.4,4.4-4.4Z"/>
  <path class="cls-15" d="M68.48,146h40.1c2.5,0,4.4,2,4.4,4.4v3.1c0,2.5-2,4.4-4.4,4.4h-40.1c-2.5,0-4.4-2-4.4-4.4v-3.1c0-2.4,2-4.4,4.4-4.4Z"/>
  <path class="cls-19" d="M75.48,146h11.1c2.5,0,4.4,2,4.4,4.4v3.1c0,2.5-2,4.4-4.4,4.4h-11.1c-2.5,0-4.4-2-4.4-4.4v-3.1c0-2.4,2-4.4,4.4-4.4Z"/>
  <path class="cls-3" d="M66.38,69.1s0-4.1,4.8-4.1,4.8,4.1,4.8,4.1"/>
  <path class="cls-3" d="M103.08,69.1s0-4.1,4.9-4.1,4.8,4.1,4.8,4.1"/>
  <path class="cls-20" d="M95.78,92.6c-4.4,.4-13.7-2.3-14-5.4l-.2-1.3c-.1-.9,.5-1.6,1.4-1.7l18.3-1.8c.9-.1,1.6,.5,1.7,1.4l.3,1.3c.4,3.1-1.1,6.8-7.5,7.5Z"/>
  <path class="cls-18" d="M95.08,99.9c3.7,0,6.7-3,6.7-6.7s-3-6.7-6.7-6.7-6.7,3-6.7,6.7,3,6.7,6.7,6.7Z"/>
  <path class="cls-9" d="M64.08,83.2c2.98,0,5.4-2.42,5.4-5.4s-2.42-5.4-5.4-5.4-5.4,2.42-5.4,5.4,2.42,5.4,5.4,5.4Z"/>
  <path class="cls-9" d="M114.78,83.4c2.98,0,5.4-2.42,5.4-5.4s-2.42-5.4-5.4-5.4-5.4,2.42-5.4,5.4,2.42,5.4,5.4,5.4Z"/>
  <path class="cls-13" d="M88.68,7.3h.1c1.6,0,2.9,1.3,2.9,2.9v14.1c0,1.6-1.3,2.9-2.9,2.9h-.1c-1.6,0-2.9-1.3-2.9-2.9V10.3c-.1-1.7,1.2-3,2.9-3Z"/>
  <path class="cls-13" d="M163.68,87.3v.1c0,1.6-1.3,2.9-2.9,2.9h-14.1c-1.6,0-2.9-1.3-2.9-2.9v-.1c0-1.6,1.3-2.9,2.9-2.9h14.1c1.6-.1,2.9,1.2,2.9,2.9Z"/>
  <path class="cls-13" d="M32.68,87.3v.1c0,1.6-1.3,2.9-2.9,2.9H15.68c-1.6,0-2.9-1.3-2.9-2.9v-.1c0-1.6,1.3-2.9,2.9-2.9h14.1c1.6-.1,2.9,1.2,2.9,2.9Z"/>
  <path class="cls-13" d="M44.58,44.6c-1.2,1.2-3.1,1.2-4.2,.1l-10-10c-1.1-1.1-1.1-3,0-4.1l.1-.1c1.1-1.1,3-1.1,4.1,0l10,10c1.2,1.1,1.2,3,0,4.1Z"/>
  <path class="cls-13" d="M141.98,28.5c1.2,1.2,1.2,3.1,.1,4.2l-10,10c-1.1,1.1-3,1.1-4.1,0l-.1-.1c-1.1-1.1-1.1-3,0-4.1l10-10c1.1-1.2,2.9-1.2,4.1,0Z"/>
  <path class="cls-13" d="M48.48,121.9c1.2,1.2,1.2,3.1,.1,4.2l-10,10c-1.1,1.1-3,1.1-4.1,0l-.1-.1c-1.1-1.1-1.1-3,0-4.1l10-10c1.1-1.1,3-1.1,4.1,0Z"/>
  <path class="cls-13" d="M141.58,136.1c-1.2,1.2-3.1,1.2-4.2,.1l-10-10c-1.1-1.1-1.1-3,0-4.1l.1-.1c1.1-1.1,3-1.1,4.1,0l10,10c1.2,1.1,1.2,2.9,0,4.1Z"/>
  <path class="cls-10" d="M20.98,70h8.2c1.1,0,1.9,.9,1.9,1.9v.2c0,1.1-.9,1.9-1.9,1.9h-8.2c-1.1,0-1.9-.9-1.9-1.9v-.2c0-1,.9-1.9,1.9-1.9Z"/>
  <path class="cls-10" d="M25.08,66c1.1,0,2,.9,2,2v8c0,1.1-.9,2-2,2s-2-.9-2-2v-8c0-1.1,.9-2,2-2Z"/>
  <path class="cls-12" d="M48.78,25.6h5.3c.7,0,1.3,.6,1.3,1.3s-.6,1.3-1.3,1.3h-5.3c-.7,0-1.3-.6-1.3-1.3-.1-.7,.5-1.3,1.3-1.3Z"/>
  <path class="cls-12" d="M52.78,24.2v5.5c0,.7-.6,1.3-1.3,1.3h-.2c-.7,0-1.3-.6-1.3-1.3v-5.5c0-.7,.6-1.3,1.3-1.3h.2c.7,.1,1.3,.6,1.3,1.3Z"/>
  <path class="cls-2" d="M20.88,109.2c2.21,0,4-1.79,4-4s-1.79-4-4-4-4,1.79-4,4,1.79,4,4,4Z"/>
  <path class="cls-4" d="M7.88,35.2c2.21,0,4-1.79,4-4s-1.79-4-4-4-4,1.79-4,4,1.79,4,4,4Z"/>
  <path class="cls-16" d="M115.18,23.7l-.3-.5c-1.2-2.4-3.2-4.3-5.6-5.4l.5-.3c2.3-1.2,4.2-3.1,5.3-5.4l.1-.2c1.1,2.4,2.9,4.3,5.2,5.5l.7,.3-.3,.1c-2.4,1.4-4.4,3.4-5.6,5.9Z"/>
  <path class="cls-11" d="M39.08,114.6l-.2-.3c-.7-1.4-1.9-2.5-3.3-3.2l.3-.2c1.4-.7,2.5-1.8,3.1-3.2l.1-.1c.6,1.4,1.7,2.6,3.1,3.3l.4,.2-.2,.1c-1.4,.8-2.6,2-3.3,3.4Z"/>
  <path class="cls-12" d="M14.08,22.6l-.1-.3c-.7-1.4-1.9-2.5-3.4-3.2l.3-.1c1.4-.7,2.5-1.8,3.1-3.2l.1-.1c.6,1.4,1.7,2.6,3.1,3.3l.4,.2-.2,.1c-1.4,.7-2.6,1.9-3.3,3.3Z"/>
</svg>