<svg width="66" height="66" viewBox="0 0 66 66" fill="none" xmlns="http://www.w3.org/2000/svg">
<rect x="0.282959" y="0.427734" width="65" height="65" rx="20" fill="#FFF4E4"/>
<path d="M31.8635 22.5912L23.6646 30.7902C23.1768 31.2779 22.9518 31.9288 22.9894 32.5672C22.9937 32.6413 22.9988 32.7134 23.0052 32.7838C23.0052 32.8028 38.0498 32.8028 38.0498 32.8028C38.4258 32.4269 39.0966 31.756 40.0624 30.7902L31.8635 22.5912ZM33.5033 20.9514L41.7022 29.1504C42.6079 30.056 42.6079 31.5243 41.7022 32.4299L33.5033 40.6289C31.692 42.4401 28.7554 42.4401 26.9442 40.6289L22.0248 35.7095C20.2135 33.8983 20.2135 30.9617 22.0248 29.1504L30.2237 20.9514C31.1293 20.0458 32.5977 20.0458 33.5033 20.9514Z" fill="#FFC261"/>
<path opacity="0.5" fill-rule="evenodd" clip-rule="evenodd" d="M42.6387 44.3645C44.5599 44.3645 46.1173 42.8072 46.1173 40.886C46.1173 39.6053 44.9578 37.6727 42.6387 35.0885C40.3197 37.6727 39.1602 39.6053 39.1602 40.886C39.1602 42.8072 40.7176 44.3645 42.6387 44.3645Z" fill="#FFC261"/>
</svg>
