<svg width="66" height="66" viewBox="0 0 66 66" fill="none" xmlns="http://www.w3.org/2000/svg">
<rect x="0.282959" y="0.427734" width="65" height="65" rx="20" fill="#FFF5F6"/>
<path d="M25.533 28.3398V35.5898C25.533 37.5919 27.1559 39.2148 29.158 39.2148H36.408V40.2035C36.408 41.9124 35.4806 42.8398 33.7716 42.8398H24.5443C22.8354 42.8398 21.908 41.9124 21.908 40.2035V30.9762C21.908 29.2672 22.8354 28.3398 24.5443 28.3398H25.533Z" fill="#F66565"/>
<path opacity="0.5" fill-rule="evenodd" clip-rule="evenodd" d="M30.586 22.2982H39.8133C41.5222 22.2982 42.4496 23.2256 42.4496 24.9346V34.1619C42.4496 35.8708 41.5222 36.7982 39.8133 36.7982H30.586C28.877 36.7982 27.9496 35.8708 27.9496 34.1619V24.9346C27.9496 23.2256 28.877 22.2982 30.586 22.2982Z" fill="#F66565"/>
</svg>
