<?xml version="1.0" encoding="UTF-8"?>
<svg id="Calque_1" data-name="Calque 1" xmlns="http://www.w3.org/2000/svg" xmlns:xlink="http://www.w3.org/1999/xlink" viewBox="0 0 300 200">
  <defs>
    <style>
      .cls-1, .cls-2, .cls-3, .cls-4, .cls-5, .cls-6 {
        fill: none;
      }

      .cls-2 {
        stroke: #a79fff;
      }

      .cls-2, .cls-3, .cls-4, .cls-5, .cls-6 {
        stroke-miterlimit: 10;
        stroke-width: 3px;
      }

      .cls-7 {
        clip-path: url(#clippath);
      }

      .cls-3 {
        stroke: url(#Dégradé_sans_nom-4);
      }

      .cls-4 {
        stroke: url(#Dégradé_sans_nom-6);
      }

      .cls-5 {
        stroke: url(#Dégradé_sans_nom-5);
      }

      .cls-6 {
        stroke: url(#Dégradé_sans_nom-3);
      }

      .cls-8 {
        fill: #676787;
      }

      .cls-9 {
        fill: #eef5ff;
      }

      .cls-10 {
        fill: #f6d17f;
      }

      .cls-11 {
        fill: #e567a6;
      }

      .cls-12 {
        fill: #eec161;
      }

      .cls-13 {
        fill: #fff;
      }

      .cls-14 {
        fill: #fff7f3;
      }

      .cls-15 {
        fill: #ffdecc;
      }

      .cls-16 {
        fill: #ffe3dc;
      }

      .cls-17 {
        fill: #ffda77;
      }

      .cls-18 {
        fill: #e467a6;
      }

      .cls-19 {
        fill: #fae2a1;
      }

      .cls-20 {
        fill: #fc7476;
      }

      .cls-21 {
        fill: #edcdbe;
      }

      .cls-22 {
        fill: #e69180;
      }

      .cls-23 {
        fill: #9290e0;
      }

      .cls-24 {
        fill: #a7a0ff;
      }

      .cls-25 {
        fill: #ce5296;
      }

      .cls-26 {
        fill: #e2baa6;
      }

      .cls-27 {
        fill: #40e088;
      }

      .cls-28 {
        fill: #565352;
      }

      .cls-29 {
        fill: #4b4b66;
      }

      .cls-30 {
        fill: #4bb1e4;
      }

      .cls-31 {
        fill: rgba(255, 33, 106, .5);
      }

      .cls-32 {
        fill: url(#Dégradé_sans_nom_10);
      }

      .cls-33 {
        fill: url(#Dégradé_sans_nom-10);
      }

      .cls-34 {
        fill: url(#Dégradé_sans_nom-11);
      }

      .cls-35 {
        fill: url(#Dégradé_sans_nom);
      }

      .cls-36 {
        fill: url(#Dégradé_sans_nom-2);
      }

      .cls-37 {
        fill: url(#Dégradé_sans_nom-7);
      }

      .cls-38 {
        fill: url(#Dégradé_sans_nom-8);
      }

      .cls-39 {
        fill: url(#Dégradé_sans_nom-9);
      }
    </style>
    <clipPath id="clippath">
      <rect class="cls-1" width="300" height="200"/>
    </clipPath>
    <linearGradient id="Dégradé_sans_nom" data-name="Dégradé sans nom" x1="170" y1="70.5" x2="188" y2="70.5" gradientTransform="translate(0 202) scale(1 -1)" gradientUnits="userSpaceOnUse">
      <stop offset="0" stop-color="#ffb192"/>
      <stop offset="1" stop-color="#e5907f"/>
    </linearGradient>
    <linearGradient id="Dégradé_sans_nom-2" data-name="Dégradé sans nom" x1="263.88" y1="70.35" x2="246" y2="70.35" xlink:href="#Dégradé_sans_nom"/>
    <linearGradient id="Dégradé_sans_nom-3" data-name="Dégradé sans nom" x1="272" y1="138.5" x2="290" y2="138.5" xlink:href="#Dégradé_sans_nom"/>
    <linearGradient id="Dégradé_sans_nom-4" data-name="Dégradé sans nom" x1="142" y1="138.5" x2="160" y2="138.5" xlink:href="#Dégradé_sans_nom"/>
    <linearGradient id="Dégradé_sans_nom-5" data-name="Dégradé sans nom" x1="141.36" y1="145.5" x2="144.36" y2="145.5" xlink:href="#Dégradé_sans_nom"/>
    <linearGradient id="Dégradé_sans_nom-6" data-name="Dégradé sans nom" x1="287.36" y1="131.5" x2="290.36" y2="131.5" xlink:href="#Dégradé_sans_nom"/>
    <linearGradient id="Dégradé_sans_nom-7" data-name="Dégradé sans nom" x1="158.78" y1="138.8" x2="176.52" y2="138.8" xlink:href="#Dégradé_sans_nom"/>
    <linearGradient id="Dégradé_sans_nom-8" data-name="Dégradé sans nom" x1="256.78" y1="138.8" x2="274.52" y2="138.8" xlink:href="#Dégradé_sans_nom"/>
    <linearGradient id="Dégradé_sans_nom-9" data-name="Dégradé sans nom" x1="210.08" y1="140" x2="244.76" y2="47.34" xlink:href="#Dégradé_sans_nom"/>
    <linearGradient id="Dégradé_sans_nom-10" data-name="Dégradé sans nom" x1="186.93" y1="43.18" x2="194.55" y2="22.82" xlink:href="#Dégradé_sans_nom"/>
    <linearGradient id="Dégradé_sans_nom-11" data-name="Dégradé sans nom" x1="248.47" y1="43.18" x2="240.85" y2="22.82" xlink:href="#Dégradé_sans_nom"/>
    <linearGradient id="Dégradé_sans_nom_10" data-name="Dégradé sans nom 10" x1="87.1" y1="90.25" x2="143.04" y2="90.25" gradientTransform="translate(0 202) scale(1 -1)" gradientUnits="userSpaceOnUse">
      <stop offset="0" stop-color="#efc2e9"/>
      <stop offset="1" stop-color="#efaee9"/>
    </linearGradient>
  </defs>
  <g class="cls-7">
    <g>
      <path class="cls-9" d="M296.1,100.1c0-11-9-20-20-20h-52c-11,0-20-9-20-20s9-20,20-20h8c11,0,20-9,20-20S243.1,.1,232.1,.1H44.1C33.1,.1,24.1,9.1,24.1,20.1s9,20,20,20h6c11,0,20,9,20,20s-9,20-20,20h-5c-11,0-20,9-20,20s9,20,20,20h15c11,0,20,9,20,20s-9,20-20,20H31.1c-11,0-20,9-20,20s9,20,20,20H230.1c11,0,20-9,20-20s-9-20-20-20-21-9-21-20,9-20,20-20h47c11,0,20-8.9,20-20Z"/>
      <path class="cls-35" d="M181.9,160c5,0,6.1-4.7,6.1-9.6v-47c0-.1-.1-.3-.2-.4h-6.1c-6.5,.1-11.8,5.4-11.8,11.9l2,35.2c.1,5,5.1,9.9,10,9.9Z"/>
      <path class="cls-36" d="M251.9,160.3c-4.9,0-5.9-5-5.9-9.9v-47c0-.1,0-.3,.1-.4h6.1c6.5,.1,11.8,5.4,11.8,11.9l-2,35.4c-.1,4.9-5.1,10-10.1,10Z"/>
      <path class="cls-6" d="M272,63.5h18"/>
      <path class="cls-3" d="M160,63.5h-18"/>
      <path class="cls-5" d="M142.86,65v-17"/>
      <path class="cls-4" d="M288.86,79v-17"/>
      <path class="cls-11" d="M142.86,52c2.21,0,4-1.79,4-4s-1.79-4-4-4-4,1.79-4,4,1.79,4,4,4Z"/>
      <path class="cls-37" d="M167.6,72.1c4.92,0,8.9-3.98,8.9-8.9s-3.99-8.9-8.9-8.9-8.9,3.98-8.9,8.9,3.98,8.9,8.9,8.9Z"/>
      <path class="cls-38" d="M265.6,72.1c4.92,0,8.9-3.98,8.9-8.9s-3.98-8.9-8.9-8.9-8.9,3.98-8.9,8.9,3.98,8.9,8.9,8.9Z"/>
      <path class="cls-39" d="M252.6,97.5c8.7-7.9,14.1-19.1,14.1-32.6-.8-27.3-23.6-48.9-50.9-48.1-26.2,.7-47.3,21.8-48.1,48.1-.1,13.7,5.3,25.1,14.3,33.1-2.4,1-3.9,3.3-4,5.9v.1c.1,2.9,2.1,5.4,4.9,6.2l3.1,36.1c0,18.8,12.3,34,31.1,34s31-15.4,31-34.2l3-36.1h.8c3.2,.1,5.9-2.4,6-5.6v-.5c1.1-3.4-2.1-6.1-5.3-6.4Z"/>
      <path class="cls-33" d="M196.2,201.1c9.66,0,17.5-7.84,17.5-17.5s-7.84-17.5-17.5-17.5-17.5,7.83-17.5,17.5,7.83,17.5,17.5,17.5Z"/>
      <path class="cls-34" d="M239.2,201.1c9.67,0,17.5-7.84,17.5-17.5s-7.83-17.5-17.5-17.5-17.5,7.83-17.5,17.5,7.83,17.5,17.5,17.5Z"/>
      <path class="cls-15" d="M209.1,180.9c-.8-6.5-6.3-11.4-12.9-11.4s-12.1,4.9-12.9,11.4c-.9,.2-1.6,1.1-1.6,2.1,0,1.1,.9,2,2,2.1h25.1c1.1,0,2-.9,2-2.1-.1-1-.8-1.9-1.7-2.1Z"/>
      <path class="cls-26" d="M213,181h-33v5h33v-5Z"/>
      <path class="cls-15" d="M251.1,180.9c-.8-6.5-6.3-11.4-12.9-11.4s-12.1,4.9-12.9,11.4c-.9,.2-1.6,1.1-1.6,2.1,0,1.1,.9,2,2,2.1h25.1c1.1,0,2-.9,2-2.1,0-1-.7-1.9-1.7-2.1Z"/>
      <path class="cls-26" d="M258,181h-36v5h36v-5Z"/>
      <path class="cls-15" d="M191.6,79.8s8.2,9.9,26.8,9.9,26.8-9.9,26.8-9.9c0,0,3.4-4,3.4-18.1s-3.4-18.1-3.4-18.1c0,0-8.6-6.9-26.8-6.9s-26.8,6.9-26.8,6.9c0,0-3.4,5.5-3.4,18.1s3.4,18.1,3.4,18.1Z"/>
      <path class="cls-28" d="M209.6,65.7c1.38,0,2.5-1.12,2.5-2.5s-1.12-2.5-2.5-2.5-2.5,1.12-2.5,2.5,1.12,2.5,2.5,2.5Z"/>
      <path class="cls-28" d="M228.4,65.7c1.38,0,2.5-1.12,2.5-2.5s-1.12-2.5-2.5-2.5-2.5,1.12-2.5,2.5,1.12,2.5,2.5,2.5Z"/>
      <path class="cls-15" d="M259,104c0,3.9-3.1,7-7,7h-67c-3.9,0-7-3.1-7-7s3.1-7,7-7h67c3.9,0,7,3.1,7,7Z"/>
      <path class="cls-26" d="M265,104h-93v9h93v-9Z"/>
      <path class="cls-14" d="M222.6,41.9c-.4-.5-.3-1.2,.2-1.6,.3-.2,.6-.3,.9-.2,4.7,.9,13.8,2.9,17.5,5.1,3.7,2.2,3.7,8.3,3.4,11.2-.1,.6-.6,1.1-1.2,1-.1,0-.2,0-.4-.1-3.6-1.6-13.4-6.5-20.4-15.4Z"/>
      <path class="cls-21" d="M211.7,84.3c.9,.5-.1,2-1.1,1.8-4.7-.9-13.7-4.9-16.5-8.1-2.6-2.9-4.7-16.3-4.4-19.2,.1-.6,.6-1.1,1.2-1,.1,0,.2,0,.4,.1,3.5,1.6,5.3,18.2,20.4,26.4Z"/>
      <path class="cls-28" d="M219.2,72c-2.7,0-5-2-5.4-4.7-.1-.4,.2-.7,.5-.7h9.6c.4,0,.6,.3,.6,.7v.1c-.3,2.6-2.6,4.6-5.3,4.6Z"/>
      <path class="cls-17" d="M28.9,59h8.2c1.1,0,1.9,.9,1.9,1.9v.2c0,1.1-.9,1.9-1.9,1.9h-8.2c-1.1,0-1.9-.9-1.9-1.9v-.2c0-1,.9-1.9,1.9-1.9Z"/>
      <path class="cls-17" d="M33,55c1.1,0,2,.9,2,2v8c0,1.1-.9,2-2,2s-2-.9-2-2v-8c0-1.1,.9-2,2-2Z"/>
      <path class="cls-20" d="M98.4,31h5.3c.7,0,1.3,.6,1.3,1.3s-.6,1.3-1.3,1.3h-5.3c-.7,0-1.3-.6-1.3-1.3s.6-1.3,1.3-1.3Z"/>
      <path class="cls-20" d="M102.4,29.6v5.5c0,.7-.6,1.3-1.3,1.3h-.1c-.7,0-1.3-.6-1.3-1.3v-5.5c0-.7,.6-1.3,1.3-1.3h.2c.7,0,1.2,.6,1.2,1.3Z"/>
      <path class="cls-2" d="M26.8,92.2c2.21,0,4-1.79,4-4s-1.79-4-4-4-4,1.79-4,4,1.79,4,4,4Z"/>
      <path class="cls-30" d="M35.6,39.8c1.38,0,2.5-1.12,2.5-2.5s-1.12-2.5-2.5-2.5-2.5,1.12-2.5,2.5,1.12,2.5,2.5,2.5Z"/>
      <path class="cls-27" d="M64.8,29.1l-.3-.5c-1.2-2.4-3.2-4.3-5.6-5.4l.5-.3c2.3-1.2,4.2-3.1,5.3-5.4l.1-.2c1.1,2.4,2.9,4.3,5.2,5.5l.7,.4-.3,.1c-2.5,1.3-4.4,3.3-5.6,5.8Z"/>
      <path class="cls-18" d="M47,109.6l-.2-.3c-.7-1.4-1.9-2.5-3.3-3.2l.3-.2c1.4-.7,2.5-1.8,3.1-3.2l.1-.1c.6,1.4,1.7,2.6,3.1,3.3l.4,.2-.2,.1c-1.4,.8-2.6,2-3.3,3.4Z"/>
      <path class="cls-11" d="M288.86,82c2.21,0,4-1.79,4-4s-1.79-4-4-4-4,1.79-4,4,1.79,4,4,4Z"/>
    </g>
  </g>
  <path class="cls-24" d="M78.8,122.6c3.8-1.2,7.7-1.7,11.7-1.7,6.1,0,38,10.2,37,14.8-1,4.6-24.8,3.5-40.8-2.7-3-1.5-5.6-3.7-7.5-6.5-3-4.6-.4-3.9-.4-3.9Z"/>
  <path class="cls-23" d="M79.65,100.99l-5.37,22.26,73.88,17.82,5.37-22.26-73.88-17.82Z"/>
  <path class="cls-8" d="M59.8,114.9c3.6,1.7,7.8,1.7,11.5,.2,3-1.3,16.1,.1,13.9,10.5-2,9.3-13.5,7.5-16.3,5.4-3.7-2.8-10-10.2-9.1-16.1Z"/>
  <path class="cls-29" d="M58,126.2s6-5.7,12.4-6.5c3.6-.3,6.6-2.8,7.7-6.2l-21.9-6.8,1.8,19.5Z"/>
  <path class="cls-13" d="M132.4,58.1l-8.8,11.9-12.4-4.4s-1.3-3.1-.3-11.8c.4-3.7,1.3-7.3,2.6-10.8,.5-1.1,1.7-1.7,2.9-1.2,.1,.1,.3,.1,.4,.2,3,2.1,5.9,4.4,8.6,6.9,5.8,5.2,7,9.2,7,9.2Z"/>
  <path class="cls-22" d="M122.86,42.5l-16.5-14.5,2.44,20.98,14.06-6.48Z"/>
  <path class="cls-16" d="M150.6,126.5l-11.9,4.1c-2.6,.9-5.5-.5-6.4-3.1l-21.3-62.5,4.8,1.4,2.2-3.8,4.7,1.6,2.6-4.1,4.4,1.4,2.6-3.8,21.3,62.5c1,2.5-.3,5.3-2.8,6.2q-.1,.1-.2,.1Z"/>
  <path class="cls-19" d="M110.9,64.7l4.2,.9,2.5-3.2,20.7,60.6-7.3,2.5-20.1-60.8Z"/>
  <path class="cls-10" d="M117.6,62.4l4.6,.8,2.7-3.2,20.7,60.5-7.3,2.5-20.7-60.6Z"/>
  <path class="cls-12" d="M124.9,60l4.7,.7,2.6-3.2,20.7,60.5-7.3,2.5-20.7-60.5Z"/>
  <path class="cls-31" d="M129.7,128.3s-11.1,12.7,13.2,30.7l1.3-2.2c5.4,5,12,8.6,19.1,10.5-.3-4-2.7-14.8-7.7-20.5,2.5-.7,2.9-1.1,2.9-1.1,0,0-10.3-25.8-28.8-17.4Z"/>
  <path class="cls-16" d="M134.1,133.9s-5.6,6.4,6.6,15.4l.7-1.1c2.7,2.5,6,4.3,9.6,5.3-.1-2-1.4-7.4-3.9-10.3l1.5-.5s-5.2-13-14.5-8.8Z"/>
  <path class="cls-11" d="M128.7,141.5s1.3,5.7-1.6,20.9c-5.1-4.6-16.2-15.6-18.6-19.6-2.6-3.9-3-8.7-1.3-13,1.8-4.3,23.2,.8,21.5,11.7Z"/>
  <path class="cls-11" d="M143,129.3s5.5,2.2,20.9,1.5c-3.8-5.7-13-18.3-16.6-21.3-3.6-3-8.1-4.4-12.6-3.2-4.5,1.2-2.7,23,8.3,23Z"/>
  <path class="cls-11" d="M57.8,88.4l.3-5.4c.8-13-1.7-25.9-7.2-37.7l-3.7-7.9,2.3-2,49.3,57.1-11.6,10-1.3-1c-7.1-5.6-15.3-9.7-24.1-12l-4-1.1Z"/>
  <path class="cls-25" d="M100.8,51.4l-5.4-.5c-13-1.1-25.4-5.5-36.3-12.6l-7.2-4.8-2.3,2,49.3,57.1,11.6-10-.8-1.4c-4.5-7.9-7.3-16.6-8.4-25.6l-.5-4.2Z"/>
  <path class="cls-9" d="M76.6,64.5l-26.5-30.7-2.3,2,26.4,30.7c-1.9,2.8-1.3,6.6,1.5,8.5,2.8,1.9,6.6,1.3,8.5-1.5,1.6-2.3,1.4-5.4-.4-7.5-1.8-2.1-4.7-2.8-7.2-1.5Z"/>
  <path class="cls-32" d="M136.6,136.5c-7.8,6.7-19.5,5.8-26.2-2-.3-.3-.5-.6-.8-.9l-22.5-30.9,23.4-20.2,27.2,26.8c7.2,7.3,7.1,19.2-.2,26.4-.3,.3-.6,.5-.9,.8Z"/>
  <path class="cls-11" d="M146.7,148.2l-18.4-16c-2.8-2.4-5-5.3-6.5-8.7-1-2.2-1.6-4.3-.7-5.1,.9-.8,2.9,.1,4.9,1.4,3,2,5.6,4.6,7.6,7.7l13.1,20.7Z"/>
</svg>