<?xml version="1.0" encoding="utf-8"?>
<!-- Generator: Adobe Illustrator 26.0.0, SVG Export Plug-In . SVG Version: 6.00 Build 0)  -->
<svg version="1.1" id="Calque_1" xmlns="http://www.w3.org/2000/svg" xmlns:xlink="http://www.w3.org/1999/xlink" x="0px" y="0px"
	 viewBox="0 0 274.4 661.1" style="enable-background:new 0 0 274.4 661.1;" xml:space="preserve">
<style type="text/css">
	.st0{clip-path:url(#SVGID_00000136411738843524511070000008673108275751413437_);}
	.st1{opacity:0.4;fill:#8D72A0;fill-opacity:0.5;enable-background:new    ;}
	.st2{fill:none;}
	.st3{fill:url(#SVGID_00000101790436373254758330000012972634695166404513_);}
	.st4{fill:#2CC8DC;}
	.st5{fill:url(#SVGID_00000041261772587471758240000003671252062530968221_);}
	.st6{clip-path:url(#SVGID_00000002348232333413460660000002573659127569673143_);}
	.st7{fill:#EFEFEB;}
	.st8{fill:#D3D3CF;}
	.st9{fill:#C3BEBA;}
	.st10{fill:#DBD7D7;}
	.st11{fill:#FFFFFF;}
	.st12{fill:#F3F3EF;}
	.st13{fill:#2CC2DB;}
	.st14{fill:#E7E7E7;}
	.st15{fill:#DD3B46;}
	.st16{fill:#BBBBBB;}
</style>
<g>
	<defs>
		<rect id="SVGID_1_" y="-77.4" width="445" height="750"/>
	</defs>
	<clipPath id="SVGID_00000134228832841721706100000015902783530917579668_">
		<use xlink:href="#SVGID_1_"  style="overflow:visible;"/>
	</clipPath>
	<g style="clip-path:url(#SVGID_00000134228832841721706100000015902783530917579668_);">
		<path class="st1" d="M70,501.8c112.8,0,204.2-91.4,204.2-204.2c0-112.8-91.4-204.2-204.2-204.2c-112.8,0-204.2,91.4-204.2,204.2
			C-134.2,410.4-42.8,501.8,70,501.8z"/>
		<rect x="-344" y="-115.4" class="st2" width="828" height="827"/>
		
			<linearGradient id="SVGID_00000083782165701335806500000001530395538004896942_" gradientUnits="userSpaceOnUse" x1="96.619" y1="310.0868" x2="226.116" y2="362.4068" gradientTransform="matrix(1 0 0 -1 0 597.2258)">
			<stop  offset="0" style="stop-color:#0CEEF4"/>
			<stop  offset="1" style="stop-color:#0CF8F4"/>
		</linearGradient>
		<path style="fill:url(#SVGID_00000083782165701335806500000001530395538004896942_);" d="M70.2,471c95.7,0,173.2-77.5,173.2-173.2
			S165.9,124.6,70.2,124.6c-95.7,0-173.2,77.5-173.2,173.2S-25.5,471,70.2,471z"/>
		<path class="st4" d="M133.9,321.6l-0.2-0.6c-1.5-4.2-6.2-6.4-10.4-4.8l-2.6,1c-3.3,2-4.8,6-3.4,9.7c1.5,4.2,6.2,6.4,10.4,4.8
			l4.4-1.6C134.1,328,135,324.7,133.9,321.6z"/>
		
			<linearGradient id="SVGID_00000152237693316302520110000013900798831230423710_" gradientUnits="userSpaceOnUse" x1="13.2716" y1="305.3099" x2="167.8266" y2="367.7549" gradientTransform="matrix(1 0 0 -1 0 597.2258)">
			<stop  offset="0" style="stop-color:#2CC8DC"/>
			<stop  offset="0.9946" style="stop-color:#2CBEDC"/>
		</linearGradient>
		<path style="fill:url(#SVGID_00000152237693316302520110000013900798831230423710_);" d="M142.2,600.3l-0.2-0.6
			c-1.5-4.2-6.2-6.4-10.4-4.8l-23.6,8.6c-4.2,1.5-8.8-0.6-10.4-4.8c-1.5-4.2,0.6-8.8,4.8-10.4l34.9-12.7c4.2-1.5,6.4-6.2,4.8-10.4
			l-0.2-0.6c-1.5-4.2-6.2-6.4-10.4-4.8l-46.1,16.8c-4.2,1.5-8.8-0.6-10.4-4.8l-0.2-0.6c-1.5-4.2,0.6-8.8,4.8-10.4l40.5-14.8
			c4.2-1.5,6.4-6.2,4.8-10.4l-0.2-0.6c-1.5-4.2-6.2-6.4-10.4-4.8l-64.2,23.4c-4.2,1.5-8.8-0.6-10.4-4.8c-1.5-4.2,0.6-8.8,4.8-10.4
			l52.9-19.3c4.2-1.5,6.4-6.2,4.8-10.4l-0.2-0.6c-1.5-4.2-6.2-6.4-10.4-4.8l-40.2,14.9c-4.2,1.5-8.8-0.6-10.4-4.8l-0.2-0.6
			c-1.5-4.2,0.6-8.8,4.8-10.4l57.4-20.9c4.2-1.5,6.4-6.2,4.8-10.4c-1.5-4.2-6.2-6.4-10.4-4.8l-79.9,29.1c-4.2,1.5-8.8-0.6-10.4-4.8
			L6.9,490c-1.5-4.2,0.6-8.8,4.8-10.4l46.2-16.8c4.2-1.5,6.4-6.2,4.8-10.4l-0.2-0.6c-1.5-4.2-6.2-6.4-10.4-4.8l-12.4,4.5
			c-4.2,1.5-8.8-0.6-10.4-4.8c-1.5-4.2,0.6-8.8,4.8-10.4L69,423.6c4.2-1.5,6.4-6.2,4.8-10.4l-0.2-0.6c-1.2-3.2-4.1-5.2-7.3-5.3
			c-1.1-0.1-2.2,0.1-3.3,0.5l-23.6,8.6c-4.2,1.5-8.8-0.6-10.4-4.8c-1.5-4.2,0.6-8.8,4.8-10.4l34.9-12.7c4.2-1.5,6.4-6.2,4.8-10.4
			l-0.2-0.6c-1.5-4.2-6.2-6.4-10.4-4.8l-46.2,16.8c-4.2,1.5-8.8-0.6-10.4-4.8l-0.2-0.6c-1.5-4.2,0.6-8.8,4.8-10.4l40.5-14.8
			c4.2-1.5,6.4-6.2,4.8-10.4l-0.2-0.6c-1.5-4.2-6.2-6.4-10.4-4.8l-64.2,23.4c-4.2,1.5-8.8-0.6-10.4-4.8c-1.5-4.2,0.6-8.8,4.8-10.4
			L28.7,332c4.2-1.5,6.4-6.2,4.8-10.4l-0.2-0.6c-1.5-4.2-6.2-6.4-10.4-4.8L-17.6,331c-4.2,1.5-8.8-0.6-10.4-4.8l-0.2-0.6
			c-1.5-4.2,0.6-8.8,4.8-10.4L34,294.3c4.2-1.5,6.4-6.2,4.8-10.4c-1.5-4.2-6.2-6.4-10.4-4.8l-79.9,29.1c-4.2,1.5-8.8-0.6-10.4-4.8
			l-0.2-0.6c-1.5-4.2,0.6-8.8,4.8-10.4l46.2-16.8c4.2-1.5,6.4-6.2,4.8-10.4l0.7-0.2c-1.5-4.2-6.2-6.4-10.4-4.8l-12.4,4.5
			c-4.2,1.5-8.8-0.6-10.4-4.8c-1.4-3.9,0.3-8.1,3.9-10l99.4-36.2l31.6-11.5c3.3-2,4.8-6,3.4-9.7c-1.5-4.2-6.2-6.4-10.4-4.8
			L9.2,216.8c-4.2,1.5-8.8-0.6-10.4-4.8l-0.2-0.6c-1.5-4.2,0.6-8.8,4.8-10.4l46.2-16.8c4.2-1.5,6.4-6.2,4.8-10.4l-0.2-0.6
			c-1.5-4.2-6.2-6.4-10.4-4.8l-12.4,4.5c-4.2,1.5-8.8-0.6-10.4-4.8c-1.5-4.2,0.6-8.8,4.8-10.4L60.7,145c4.2-1.5,6.4-6.2,4.8-10.4
			l-0.2-0.6c-1.2-3.2-4.1-5.2-7.3-5.3c-1.1-0.1-2.2,0.1-3.3,0.5l-23.6,8.6c-4.2,1.5-8.8-0.6-10.4-4.8c-1.5-4.2,0.6-8.8,4.8-10.4
			l34.9-12.7c4.2-1.5,6.4-6.2,4.8-10.4L65,98.9c-1.5-4.2-6.2-6.4-10.4-4.8L8.8,111c-4.2,1.5-8.8-0.6-10.4-4.8l-0.2-0.6
			c-1.5-4.2,0.6-8.8,4.8-10.4l40.5-14.8c4.2-1.5,6.4-6.2,4.8-10.4l-0.2-0.6c-1.5-4.2-6.2-6.4-10.4-4.8L-26.5,88
			c-4.2,1.5-8.8-0.6-10.4-4.8c-1.5-4.2,0.6-8.8,4.8-10.4l52.9-19.3c4.2-1.5,6.4-6.2,4.8-10.4l-0.2-0.6c-1.5-4.2-6.2-6.4-10.4-4.8
			l-40.5,14.8c-4.2,1.5-8.8-0.6-10.4-4.8l-0.2-0.6c-1.5-4.2,0.6-8.8,4.8-10.4l57.4-20.9c4.2-1.5,6.4-6.2,4.8-10.4
			C29.4,1.2,24.7-1,20.5,0.6l-79.9,29.1c-4.2,1.5-8.8-0.6-10.4-4.8l-0.2-0.6c-1.5-4.2,0.6-8.8,4.8-10.4L-19-2.9
			c4.2-1.5,6.4-6.2,4.8-10.4l-0.2-0.6c-1.5-4.2-6.2-6.4-10.4-4.8l-12.4,4.5c-4.2,1.5-8.8-0.6-10.4-4.8c-1.5-4.2,0.6-8.8,4.8-10.4
			l34.9-12.7c4.2-1.5,6.4-6.2,4.8-10.4l-0.2-0.6c-1.5-4.2-6.2-6.4-10.4-4.8l-76.2,27.7l-133.8,48.7c-4.2,1.5-6.4,6.2-4.8,10.4
			l68.9,187.8c0.2,0.6,0.5,1.2,0.9,1.8l18.9,51.8l-74.8,27.2c-4.2,1.5-6.4,6.2-4.8,10.4l68.2,187.5c0.2,0.6,0.5,1.2,0.9,1.8
			l67.4,185.2c1.5,4.2,6.2,6.4,10.4,4.8l133.8-48.7l76.2-27.7C141.5,609.1,143.7,604.5,142.2,600.3z"/>
	</g>
</g>
<g>
	<defs>
		<rect id="SVGID_00000183932078380604044950000011049215374831719045_" y="200.6" width="232" height="296"/>
	</defs>
	<clipPath id="SVGID_00000177481927560546518030000011702475411058325666_">
		<use xlink:href="#SVGID_00000183932078380604044950000011049215374831719045_"  style="overflow:visible;"/>
	</clipPath>
	<g style="clip-path:url(#SVGID_00000177481927560546518030000011702475411058325666_);">
		<path class="st7" d="M118.8,291.6l81.3-42.6l-25.4-48.5l-81.3,42.6L118.8,291.6z"/>
		<path class="st8" d="M121.1,283.5l71-37.2l-19.7-37.5l-71,37.2L121.1,283.5z"/>
		<path class="st7" d="M109,267.5l76.8-40.2l-1.1-2.1L108,265.4L109,267.5z"/>
		<path class="st7" d="M178.4,256.9l-22.1-42.2l-2.1,1.1l22.1,42.2L178.4,256.9z"/>
		<path class="st7" d="M159.2,267L137,224.8l-2.1,1.1l22.1,42.2L159.2,267z"/>
		<path class="st7" d="M139.9,277.1l-22.1-42.2l-2.1,1.1l22.1,42.2L139.9,277.1z"/>
		<path class="st7" d="M-26.6,367.8l81.3-42.6l-25.4-48.5L-52,319.3L-26.6,367.8z"/>
		<path class="st8" d="M-24.3,359.6l71-37.2L27,284.9l-71,37.2L-24.3,359.6z"/>
		<path class="st7" d="M-36.4,343.7l76.8-40.2l-1.1-2.1l-76.8,40.2L-36.4,343.7z"/>
		<path class="st7" d="M33,333l-22.1-42.2l-2.1,1.1l22.1,42.2L33,333z"/>
		<path class="st9" d="M53.6,249l3.2-1.7l-7.1-13.5l-3.2,1.7L53.6,249z"/>
		<path class="st7" d="M13.7,343.1l-22.1-42.2l-2.1,1.1l22.1,42.2L13.7,343.1z"/>
		<path class="st9" d="M130,395.8l4.3-2.3l-5-18.9l-12,6.3L130,395.8z"/>
		<path class="st10" d="M72.1,280.3c10.8-5.6,14.9-18.9,9.3-29.7c-5.6-10.8-18.9-14.9-29.7-9.3c-10.8,5.6-14.9,18.9-9.3,29.7
			C48,281.8,61.3,285.9,72.1,280.3z"/>
		<path class="st9" d="M96.6,335.2l6.6-3.5l-7.1-13.5l-6.6,3.5L96.6,335.2z"/>
		<path class="st9" d="M111.2,269l-2.9-5.6l-70.6,37l2.9,5.6L111.2,269z"/>
		<path class="st10" d="M94.7,323.4c10.8-5.6,14.9-18.9,9.3-29.7c-5.6-10.8-18.9-14.9-29.7-9.3c-10.8,5.6-14.9,18.9-9.3,29.7
			C70.7,324.9,84,329.1,94.7,323.4z"/>
		<path class="st11" d="M116.1,304.4L90.2,318l-35-66.7l17.5-9.2c2.2-1.2,4.8-1.4,7.2-0.7c2.4,0.7,4.4,2.4,5.6,4.6L116.1,304.4
			L116.1,304.4z"/>
		<path class="st12" d="M91.4,317.3l-27.1,14.2l-30.5-58.1c-1.2-2.3-1.4-4.9-0.7-7.4c0.8-2.5,2.5-4.5,4.8-5.7l18.5-9.7L91.4,317.3z"
			/>
		<path class="st13" d="M49.5,237.3c3.1-1.6,4.3-5.5,2.7-8.6c-1.6-3.1-5.5-4.3-8.7-2.7c-3.1,1.6-4.3,5.5-2.7,8.6
			C42.5,237.7,46.4,238.9,49.5,237.3z"/>
		<path class="st14" d="M76.1,406.4c-6.7-12.9-8-27.9-3.6-41.8c4.4-13.9,14.1-25.4,26.9-32.2c12.9-6.7,27.9-8.1,41.8-3.8
			c13.9,4.3,25.5,13.9,32.4,26.7L76.1,406.4z"/>
		<path class="st11" d="M69,423.3l125.9-66l-9.7-18.5l-125.9,66L69,423.3z"/>
		<rect x="37" y="301.8" class="st2" width="195" height="194.8"/>
		<path class="st15" d="M137.7,405.3c3.3-1.7,4.6-5.9,2.9-9.2c-1.7-3.3-5.9-4.6-9.2-2.9c-3.3,1.7-4.6,5.8-2.9,9.2
			C130.3,405.8,134.4,407.1,137.7,405.3z"/>
		<path class="st15" d="M47.2,299l13-6.8l-3-5.7l-13,6.8L47.2,299z"/>
		<path class="st9" d="M36.5,278.6l51.8-27.1l-1.2-2.3l-51.8,27.1L36.5,278.6z"/>
		<path class="st9" d="M39.1,283.6l51.8-27.1l-1.2-2.3l-51.8,27.1L39.1,283.6z"/>
		<path class="st13" d="M50.2,304.6l13-6.8l-3-5.7l-13,6.8L50.2,304.6z"/>
		<path class="st16" d="M9.8,293.9l-7.5,26.8l17-8.8L9.8,293.9z"/>
		<path class="st16" d="M27,285l-5.7,25.8l15.1-7.9L27,285z"/>
		<path class="st16" d="M1,324.1l-7.8,26.4l17-8.9L1,324.1z"/>
		<path class="st16" d="M20.3,314l-7.7,26.5l17-8.8L20.3,314z"/>
		<path class="st16" d="M37.4,305l-5.9,25.5l15.1-7.9L37.4,305z"/>
		<path class="st16" d="M116.7,237.9l-5.8,26l15.3-8L116.7,237.9z"/>
		<path class="st16" d="M136,227.9l-7.6,26.8l17-8.9L136,227.9z"/>
		<path class="st16" d="M155.2,217.7l-7.6,26.8l17-8.8L155.2,217.7z"/>
		<path class="st16" d="M172.4,209l-5.7,25.8l15.1-7.9L172.4,209z"/>
		<path class="st16" d="M127.2,257.9l-6,25.6l15.3-8L127.2,257.9z"/>
		<path class="st16" d="M146.4,247.9l-7.8,26.4l17-8.9L146.4,247.9z"/>
		<path class="st16" d="M165.7,237.7l-7.7,26.5l17-8.9L165.7,237.7z"/>
		<path class="st16" d="M182.8,228.7l-5.9,25.5l15.1-7.9L182.8,228.7z"/>
	</g>
</g>
</svg>
