<svg width="60" height="57" viewBox="0 0 60 57" fill="none" xmlns="http://www.w3.org/2000/svg">
<g clip-path="url(#clip0_128_403)">
<path d="M10.625 0H49.375C55.25 0 60 4.62821 60 10.3526V46.6474C60 52.3718 55.25 57 49.375 57H10.625C4.75 57 0 52.3718 0 46.6474V10.3526C0 4.62821 4.75 0 10.625 0Z" fill="#330000"/>
<path d="M28.9999 34.1026H19.6999L17.7999 39.8269C17.7499 40.0462 17.5499 40.1923 17.3249 40.168H12.6249C12.3499 40.168 12.2749 40.0218 12.3499 39.7295L20.3999 17.1487C20.4749 16.9052 20.5499 16.6372 20.6499 16.3449C20.7499 15.8334 20.7999 15.2975 20.7999 14.7616C20.7749 14.6398 20.8749 14.518 20.9999 14.4936H27.4749C27.6749 14.4936 27.7749 14.5667 27.7999 14.6885L36.9249 39.7782C36.9999 40.0462 36.9249 40.168 36.6749 40.168H31.4499C31.2749 40.1923 31.0999 40.0705 31.0499 39.9L28.9999 34.1026ZM21.1499 29.1577H27.4999C27.3499 28.6462 27.1499 28.0372 26.9249 27.4039C26.6999 26.7462 26.4749 26.0398 26.2499 25.309C25.9999 24.5539 25.7749 23.8231 25.5249 23.068C25.2749 22.3128 25.0499 21.6064 24.8499 20.9C24.6499 20.218 24.4749 19.5846 24.2999 19H24.2499C24.0249 20.0475 23.7499 21.0949 23.3999 22.1423C23.0249 23.3116 22.6499 24.5295 22.2499 25.7475C21.8999 26.9898 21.5249 28.1346 21.1499 29.1577ZM42.4999 18.7564C41.6749 18.7808 40.8749 18.4641 40.2749 17.9039C39.6999 17.2949 39.3999 16.4911 39.4249 15.6628C39.3999 14.8346 39.7249 14.0552 40.3249 13.4949C40.9249 12.9346 41.7249 12.6423 42.5499 12.6423C43.5249 12.6423 44.2749 12.9346 44.8249 13.4949C45.3749 14.0795 45.6749 14.859 45.6499 15.6628C45.6749 16.4911 45.3749 17.2949 44.7749 17.9039C44.1999 18.4885 43.3499 18.8052 42.4999 18.7564ZM39.6999 39.9V21.1436C39.6999 20.9 39.7999 20.8026 40.0249 20.8026H44.9749C45.1999 20.8026 45.2999 20.9244 45.2999 21.1436V39.9C45.2999 40.168 45.1999 40.2898 44.9749 40.2898H40.0749C39.8249 40.2898 39.6999 40.1436 39.6999 39.9Z" fill="#FF9A00"/>
</g>
<defs>
<clipPath id="clip0_128_403">
<rect width="60" height="57" fill="white"/>
</clipPath>
</defs>
</svg>
