<svg width="132" height="132" viewBox="0 0 132 132" fill="none" xmlns="http://www.w3.org/2000/svg">
<circle cx="66" cy="66" r="66" fill="#9C19CA"/>
<g clip-path="url(#clip0_144_322)">
<path d="M47.6384 29.8776C47.11 29.9361 46.0526 30.1418 45.2896 30.3179C37.1555 32.1679 31.9437 37.5707 30.1677 45.9386C29.7711 47.8323 29.6098 52.017 29.8591 54.3953C30.329 58.8731 31.6359 63.4981 33.7789 68.2252L34.5574 69.9723L34.2784 71.015C33.5147 73.8484 33.3238 75.4195 33.3238 79.1187C33.3238 82.8624 33.4851 84.0516 34.2932 86.5624C35.996 91.7742 39.8425 95.7088 45.0395 97.5292C47.6532 98.4394 48.9593 98.6303 52.6297 98.6303C56.1388 98.6303 57.2399 98.5126 60.4256 97.7497L61.967 97.3827L63.7437 98.19C73.2424 102.477 82.3155 103.417 89.5091 100.833C94.7209 98.9529 98.964 94.7105 100.843 89.4987C103.104 83.1858 102.648 75.2285 99.5509 66.9627C99.243 66.1702 98.6407 64.7168 98.2004 63.7474L97.4078 61.9855L97.7897 60.4293C98.5237 57.3901 98.7591 55.2027 98.6851 52.0318C98.597 48.8749 98.3476 47.3335 97.5403 45.0291C95.7051 39.8173 91.7853 35.9856 86.5439 34.2821C84.1359 33.4896 82.8587 33.3275 79.2763 33.3275C75.694 33.3127 74.7542 33.4304 71.5685 34.1941L70.0271 34.5759L68.2651 33.7834C63.7141 31.7136 58.8694 30.3187 54.6558 29.8636C53.0263 29.6867 49.0473 29.7015 47.6384 29.8776ZM55.4927 32.1383C57.7682 32.4469 59.7063 32.9161 62.0262 33.6798C64.1552 34.3694 66.871 35.4417 66.871 35.5882C66.871 35.6319 66.4603 35.8228 65.9608 36.0137C65.4472 36.2046 64.2432 36.733 63.2738 37.2029C56.0359 40.6091 48.9008 46.3641 43.6305 53.0145C42.471 54.4678 42.4118 54.5263 41.9863 54.4234C41.7517 54.3502 41.1205 54.3058 40.5914 54.3206C39.3141 54.3206 38.0953 54.8785 37.0971 55.8916C35.5113 57.5078 35.071 59.6219 35.9516 61.5304C36.1721 62.0299 36.5243 62.5871 36.7152 62.764C36.9062 62.9401 37.0675 63.1458 37.0675 63.2191C37.0675 63.2923 36.7737 64.0264 36.4215 64.8486C36.0692 65.6707 35.7458 66.478 35.6874 66.6394C35.5409 67.036 34.8068 65.3185 33.7641 62.2349C31.8705 56.568 31.371 51.1068 32.3108 46.4818C32.7955 44.059 33.8818 41.4461 35.1738 39.508C35.9664 38.3336 38.3447 35.9553 39.5191 35.1627C43.7623 32.3145 49.2827 31.2725 55.4927 32.1383ZM82.9319 35.677C86.4847 36.2786 89.4943 37.7912 91.8438 40.1252C94.0164 42.2978 95.4994 45.1172 96.175 48.3466C96.7329 51.0335 96.7033 54.7039 96.1165 57.8163L95.8671 59.1232L94.5751 57.0823C89.6267 49.2568 82.7262 42.357 74.9451 37.4382C73.8144 36.7189 72.8894 36.1166 72.8894 36.0877C72.8894 36.0145 75.6348 35.5742 76.8536 35.4417C78.4394 35.2804 81.244 35.3832 82.9319 35.677ZM72.8901 38.8035C81.2729 43.9717 89.2301 52.1635 94.0897 60.5906C94.5448 61.3831 94.9118 62.1468 94.9118 62.3081C94.9118 62.6752 93.8107 65.5086 92.9589 67.329C91.9755 69.4284 88.9067 74.6402 88.6425 74.6402C88.5981 74.6402 88.2022 74.5374 87.7471 74.4057C85.5153 73.7448 82.8431 75.1249 81.7428 77.5033C81.1552 78.7517 81.1552 80.2198 81.7428 81.4675L82.1535 82.3481L80.8614 83.5965C75.8117 88.4412 69.0732 92.6696 63.1858 94.6809L62.2312 95.0184L60.6898 94.123C56.0359 91.4508 52.1746 88.4412 47.8434 84.1248C43.4833 79.7647 40.063 75.3159 37.4197 70.5739L36.9942 69.7962L37.4197 68.5774C37.6543 67.9166 38.1094 66.7422 38.4476 65.9785C38.9611 64.8338 39.1232 64.5984 39.3578 64.6428C39.5043 64.6724 40.1355 64.7013 40.7379 64.7013C42.1616 64.7309 43.2924 64.2462 44.3787 63.1451C45.9645 61.5304 46.4048 59.4014 45.539 57.5374C45.3044 57.0527 44.9514 56.4799 44.7465 56.2601L44.3646 55.8635L44.7753 55.3055C47.7553 51.3125 53.1876 46.1295 57.6217 43.0615C61.0575 40.6683 65.1238 38.5541 68.5449 37.3361L69.7044 36.9395L70.5266 37.3946C70.9817 37.6439 72.0384 38.2752 72.8901 38.8035ZM42.4554 57.0527C43.336 57.6254 43.7327 58.5504 43.6446 59.7396C43.4981 61.4275 42.6463 62.2793 40.9584 62.4258C39.7692 62.5139 38.8442 62.1172 38.2715 61.2366C37.934 60.7231 37.8748 60.4877 37.8748 59.5191C37.8748 58.5504 37.9333 58.3151 38.2715 57.8015C38.8442 56.935 39.6812 56.5539 40.8992 56.6124C41.6481 56.656 42.0003 56.7441 42.4554 57.0527ZM98.2152 69.7222C99.5368 73.6716 100.109 76.9749 100.094 80.6594C100.079 84.3735 99.5065 87.1633 98.156 89.9967C97.2606 91.8763 96.4821 93.0211 95.1464 94.4308C92.4454 97.2939 88.7306 99.1727 84.4142 99.8483C82.6226 100.127 78.9086 100.157 77.0001 99.9068C74.695 99.5982 72.199 99.0262 69.9531 98.2773C67.8241 97.5876 65.1083 96.5006 65.1083 96.3689C65.1083 96.3245 65.519 96.1343 66.0333 95.9434C71.2163 93.932 76.9853 90.2468 82.0358 85.681C83.0052 84.8145 83.9006 84.1248 84.0323 84.1396C84.164 84.1544 84.6635 84.3009 85.1482 84.4771C86.8073 85.0787 88.701 84.5651 90.1691 83.1266C91.755 81.5555 92.2101 79.3681 91.3435 77.5033C91.123 77.0193 90.8292 76.5198 90.7123 76.3874C90.5214 76.1817 90.6242 75.9471 91.755 74.1851C93.1203 72.0414 94.8674 68.7091 95.7191 66.6386C96.0277 65.9045 96.3067 65.2585 96.3356 65.1853C96.4532 64.9951 97.3634 67.1685 98.2152 69.7222ZM37.5078 75.0228C42.2941 82.6278 49.2967 89.6304 57.0926 94.5633C59.4266 96.0314 59.4414 95.8849 56.7404 96.3104C54.6558 96.6338 50.941 96.6338 49.1206 96.3104C45.4354 95.6496 42.4843 94.1674 40.1355 91.8327C37.7424 89.4247 36.2305 86.3567 35.6578 82.6715C35.3492 80.763 35.4373 76.505 35.8191 74.4501C35.9656 73.6723 36.1277 73.0263 36.1713 73.0263C36.215 73.0263 36.8181 73.9217 37.5078 75.0228ZM88.2614 77.0193C89.128 77.5921 89.5239 78.5023 89.4506 79.6915C89.3329 81.4971 88.1586 82.5101 86.3382 82.3925C84.5326 82.2748 83.5195 81.1004 83.6372 79.28C83.7548 77.4744 84.87 76.4902 86.7052 76.5783C87.4541 76.6227 87.8063 76.7108 88.2614 77.0193Z" fill="white"/>
<path d="M64.008 48.5079C60.9688 48.9926 58.3707 50.3579 56.0804 52.6771C54.1134 54.6588 52.8947 56.8026 52.2338 59.4599C51.8668 60.9577 51.8964 64.2167 52.3071 65.7144C53.2469 69.1643 55.3167 72.1887 58.0325 74.0239C58.9131 74.6403 58.9427 74.6699 58.9427 75.3011C58.9427 75.8147 58.8398 76.0937 58.4439 76.608C57.695 77.5914 57.607 78.6637 58.1797 79.6619C58.4003 80.0438 58.4003 80.1022 58.1361 80.5425C57.9452 80.8659 57.8571 81.3062 57.8423 81.8494C57.8423 82.8476 58.327 83.6698 59.2661 84.2862L59.8825 84.6969H65.9897H72.0969L72.7133 84.2862C73.6531 83.6698 74.1371 82.8476 74.1371 81.8494C74.1223 81.3062 74.0342 80.8659 73.8433 80.5425C73.5791 80.1022 73.5791 80.043 73.7989 79.6619C74.3717 78.6637 74.2836 77.5922 73.5347 76.608C73.1381 76.0937 73.0352 75.8154 73.0352 75.3011C73.0352 74.6699 73.0648 74.6403 73.9602 74.0239C76.6324 72.2035 78.7466 69.1495 79.6716 65.7144C80.0823 64.2167 80.1119 60.9577 79.7448 59.4599C79.0551 56.7145 77.9096 54.7032 75.825 52.6186C73.7553 50.5489 71.6847 49.3597 69.057 48.7285C67.8841 48.4495 65.1676 48.3318 64.008 48.5079ZM69.1465 51.0772C70.4822 51.4443 72.3026 52.3693 73.4186 53.2647C75.973 55.3056 77.4856 58.2856 77.6906 61.677C77.9696 66.4344 75.6208 70.6621 71.4953 72.8206L70.688 73.2461V74.3036V75.3751H68.926H67.1641V71.1912V67.0065L67.8982 66.6394C68.9556 66.1111 69.5424 65.5235 70.1152 64.4816C70.8197 63.1459 70.8197 61.7658 70.1152 60.4293C69.5424 59.3867 68.9556 58.8147 67.8545 58.2419C66.7682 57.6691 65.212 57.6691 64.1256 58.2419C63.0245 58.8147 62.437 59.3874 61.8649 60.4293C61.4246 61.2515 61.3654 61.4861 61.3654 62.4555C61.3654 63.4241 61.4239 63.6594 61.8649 64.4816C62.4377 65.5242 63.0245 66.1111 64.082 66.6394L64.8161 67.0065V71.1904V75.3744H63.0541H61.2922V74.3029V73.2454L60.4848 72.8199C57.769 71.4102 55.7866 69.0614 54.8031 66.1251C54.3628 64.8035 54.3332 64.5985 54.3332 62.528C54.3332 60.0031 54.5093 59.1366 55.4195 57.2281C57.0202 53.9099 60.1763 51.5175 63.8171 50.8567C64.9182 50.6665 68.0891 50.7982 69.1465 51.0772ZM67.4283 60.4885C68.0743 60.9732 68.3681 61.6777 68.2948 62.6464C68.2067 64.1145 67.3261 64.8634 65.7988 64.7606C64.3306 64.6725 63.5817 63.7919 63.6846 62.2645C63.7431 61.2959 64.0664 60.752 64.8301 60.3561C65.4909 60.0038 66.8562 60.0771 67.4283 60.4885ZM71.7891 78.3114V78.8257H65.9897H60.1911L60.1474 78.4883C60.0297 77.6958 59.7952 77.7246 66.02 77.7542L71.7898 77.7979V78.3114H71.7891ZM71.7891 81.8346V82.3481H65.9897H60.1911L60.1474 82.0107C60.0297 81.2182 59.7952 81.247 66.02 81.2766L71.7898 81.321V81.8346H71.7891Z" fill="white"/>
</g>
<defs>
<clipPath id="clip0_144_322">
<rect width="74" height="74" fill="white" transform="translate(29 29)"/>
</clipPath>
</defs>
</svg>
