<svg width="132" height="132" viewBox="0 0 132 132" fill="none" xmlns="http://www.w3.org/2000/svg">
<circle cx="66" cy="66" r="66" fill="#FFAF00"/>
<g clip-path="url(#clip0_144_323)">
<path fill-rule="evenodd" clip-rule="evenodd" d="M103 31.5907C103 34.1194 100.897 36.1788 98.3112 36.1788C96.1326 36.1788 94.3153 34.7093 93.7906 32.7358H78.4065C90.8914 37.7443 99.4835 49.7886 99.4835 63.7154C99.4835 73.2554 95.289 82.3507 87.9775 88.6689C87.7541 88.8607 87.4779 88.9565 87.2043 88.9565C86.8779 88.9565 86.5541 88.8264 86.3259 88.5682C85.8967 88.094 85.9417 87.3688 86.4286 86.9488C93.236 81.0656 97.1389 72.5967 97.1389 63.7154C97.1389 48.1642 85.643 35.1368 70.1862 32.8956V35.0312C70.1862 35.6652 69.6615 36.1788 69.0139 36.1788H61.9835C61.3385 36.1788 60.8112 35.6652 60.8112 35.0312V32.8956C45.3569 35.1368 33.8584 48.1642 33.8584 63.7154H36.2028C36.8504 63.7154 37.375 64.229 37.375 64.8629V71.744C37.375 72.3779 36.8504 72.8919 36.2028 72.8919H29.1722C28.5246 72.8919 28 72.3779 28 71.744V64.8629C28 64.229 28.5246 63.7154 29.1722 63.7154H31.5166C31.5166 49.7886 40.1084 37.7443 52.5909 32.7358H37.2093C36.6847 34.7093 34.8649 36.1788 32.6863 36.1788C30.1034 36.1788 28 34.1194 28 31.5907C28 29.0569 30.1034 27 32.6863 27C34.8649 27 36.6847 28.4671 37.2093 30.443H60.8112V28.1477C60.8112 27.5136 61.3385 27 61.9835 27H69.0139C69.6615 27 70.1862 27.5136 70.1862 28.1477V30.443H93.7906C94.3153 28.4671 96.1326 27 98.3112 27C100.897 27 103 29.0569 103 31.5907ZM32.6863 33.8835C31.3936 33.8835 30.3444 32.8538 30.3444 31.5907C30.3444 30.325 31.3936 29.2953 32.6863 29.2953C33.9814 29.2953 35.0306 30.325 35.0306 31.5907C35.0306 32.8538 33.9814 33.8835 32.6863 33.8835ZM63.1558 33.8835H67.842V29.2953H63.1558V33.8835ZM100.656 31.5907C100.656 30.325 99.6038 29.2953 98.3112 29.2953C97.0186 29.2953 95.967 30.325 95.967 31.5907C95.967 32.8538 97.0186 33.8835 98.3112 33.8835C99.6038 33.8835 100.656 32.8538 100.656 31.5907ZM30.3444 70.5988H35.0306V66.0108H30.3444V70.5988Z" fill="white"/>
<path fill-rule="evenodd" clip-rule="evenodd" d="M65.7423 40.096C66.4509 40.1762 67.0736 40.5793 67.4338 41.2428L82.8527 69.5595C83.8929 71.4724 83.5088 73.9161 81.939 75.3786C79.6559 77.5017 75.9079 81.9212 75.5596 88.201C76.8336 88.6943 77.7521 89.9739 77.7521 91.4811V94.9865C77.7521 96.509 76.8193 97.7961 75.5238 98.2793V102H73.2956V98.4945H65.499V96.1559H74.4097C75.0252 96.1559 75.5238 95.6302 75.5238 94.9865V91.4811C75.5238 90.8351 75.0252 90.3091 74.4097 90.3091H56.5907C55.9752 90.3091 55.4765 90.8351 55.4765 91.4811V94.9865C55.4765 95.6302 55.9752 96.1559 56.5907 96.1559H59.9307V98.4945H57.7024V102H55.4765V98.2793C54.1811 97.7961 53.2483 96.509 53.2483 94.9865V91.4811C53.2483 89.548 54.7465 87.973 56.5907 87.973H73.3385C73.7632 80.9048 77.9215 75.9919 80.4599 73.6307C81.2568 72.8873 81.4476 71.6903 80.9203 70.7213L66.6131 44.4478V64.7595C68.5289 65.2828 69.9556 67.0981 69.9556 69.269C69.9556 71.848 67.9563 73.9438 65.499 73.9438C63.0441 73.9438 61.0448 71.848 61.0448 69.269C61.0448 67.0981 62.4691 65.2828 64.3873 64.7595V44.4478L50.08 70.7213C49.5528 71.6903 49.7412 72.8873 50.5405 73.6307C52.5397 75.4888 55.226 78.6062 56.679 82.9053C56.8841 83.5138 56.5811 84.1823 56.0014 84.4001C55.4169 84.613 54.7847 84.2974 54.5795 83.6889C53.284 79.858 50.8649 77.056 49.0637 75.3786C47.4915 73.9161 47.1074 71.4724 48.1452 69.5595L63.5666 41.2428C63.9268 40.5793 64.5495 40.1762 65.2557 40.096C65.3391 40.076 65.4131 40.0435 65.499 40.0435C65.5873 40.0435 65.6612 40.076 65.7423 40.096ZM65.499 71.6076C66.73 71.6076 67.7273 70.5585 67.7273 69.269C67.7273 67.9795 66.73 66.9303 65.499 66.9303C64.2704 66.9303 63.2731 67.9795 63.2731 69.269C63.2731 70.5585 64.2704 71.6076 65.499 71.6076Z" fill="white"/>
</g>
<defs>
<clipPath id="clip0_144_323">
<rect width="75" height="75" fill="white" transform="translate(28 27)"/>
</clipPath>
</defs>
</svg>
