<svg width="71" height="71" viewBox="0 0 71 71" fill="none" xmlns="http://www.w3.org/2000/svg">
<g clip-path="url(#clip0_161_2622)">
<path d="M31.3525 68.5357H42.374V31.9712L43.8405 12.5917L42.374 11.1602L40.4 12.5917L38.5205 25.9512L31.832 28.6742L29.431 30.7742C28.8045 32.3352 26.225 44.1057 26.225 44.1057C26.225 44.1057 24.608 48.0467 26.225 48.5262C27.0195 49.3172 29.0495 49.3557 29.431 47.0387L31.349 38.0262L31.3525 68.5357Z" fill="#9BE5A7"/>
<path d="M35.2551 28.1915C34.3434 28.1949 33.4511 27.9277 32.6914 27.4237C31.9316 26.9197 31.3386 26.2016 30.9872 25.3603C30.6359 24.5189 30.5422 23.5923 30.718 22.6976C30.8937 21.803 31.331 20.9807 31.9745 20.3348C32.6179 19.6889 33.4386 19.2484 34.3326 19.0693C35.2265 18.8901 36.1535 18.9803 36.9962 19.3284C37.8388 19.6765 38.5592 20.2669 39.0661 21.0247C39.573 21.7825 39.8436 22.6737 39.8436 23.5855C39.8445 24.8043 39.362 25.9737 38.5017 26.8372C37.6415 27.7007 36.4739 28.1878 35.2551 28.1915ZM35.2551 21.321C34.8068 21.3189 34.3679 21.4499 33.9942 21.6975C33.6204 21.945 33.3285 22.298 33.1555 22.7116C32.9825 23.1252 32.9361 23.5808 33.0223 24.0208C33.1085 24.4607 33.3234 24.8652 33.6396 25.183C33.9559 25.5007 34.3594 25.7174 34.7989 25.8056C35.2385 25.8939 35.6943 25.8497 36.1087 25.6786C36.5231 25.5075 36.8774 25.2173 37.1267 24.8446C37.376 24.472 37.5091 24.0338 37.5091 23.5855C37.5091 22.9867 37.272 22.4123 36.8496 21.9879C36.4271 21.5635 35.8539 21.3237 35.2551 21.321Z" fill="#24914A"/>
<path d="M41.9925 69.2146C41.6876 69.2146 41.3948 69.0952 41.1769 68.8819C40.959 68.6686 40.8334 68.3784 40.827 68.0736L40.6345 31.9326C40.6245 31.5903 40.6374 31.2477 40.673 30.9071L42.4685 13.0571C42.4796 12.993 42.4778 12.9274 42.4631 12.864C42.4485 12.8007 42.4212 12.7409 42.3831 12.6883C42.3449 12.6356 42.2966 12.5912 42.241 12.5575C42.1853 12.5239 42.1235 12.5017 42.0592 12.4923C41.9948 12.483 41.9293 12.4866 41.8664 12.503C41.8035 12.5194 41.7445 12.5483 41.6929 12.5879C41.6413 12.6275 41.5982 12.677 41.5661 12.7336C41.534 12.7901 41.5136 12.8525 41.506 12.9171C41.5042 12.9322 41.5042 12.9475 41.506 12.9626V12.9871L40.911 18.1286C40.9063 18.2858 40.87 18.4404 40.8042 18.5832C40.7384 18.726 40.6445 18.8541 40.5281 18.9598C40.4116 19.0655 40.275 19.1466 40.1265 19.1982C39.978 19.2499 39.8206 19.271 39.6637 19.2604C39.5068 19.2498 39.3536 19.2077 39.2134 19.1365C39.0732 19.0654 38.9488 18.9666 38.8476 18.8462C38.7464 18.7259 38.6706 18.5863 38.6246 18.4359C38.5786 18.2856 38.5634 18.1275 38.58 17.9711C38.5766 17.9326 38.5766 17.894 38.58 17.8556L39.175 12.7316C39.2395 11.9862 39.5975 11.2969 40.1702 10.8155C40.7428 10.334 41.4833 10.0998 42.2287 10.1643C42.9741 10.2288 43.6634 10.5868 44.1448 11.1595C44.6263 11.7322 44.8605 12.4727 44.796 13.2181C44.7977 13.2437 44.7977 13.2694 44.796 13.2951L43.0005 31.1451C42.9754 31.3869 42.9661 31.6301 42.9725 31.8731L43.1685 68.0176C43.1751 68.3264 43.0591 68.6254 42.846 68.849C42.6328 69.0727 42.3398 69.2028 42.031 69.2111L41.9925 69.2146Z" fill="#24914A"/>
<path d="M25.847 49.4502C25.6931 49.4502 25.5409 49.4198 25.3988 49.3608C25.2567 49.3019 25.1277 49.2155 25.0191 49.1065C24.9105 48.9976 24.8245 48.8683 24.7659 48.7261C24.7074 48.5839 24.6775 48.4315 24.678 48.2777C24.6728 48.2101 24.6728 48.1422 24.678 48.0747L27.7055 32.8147C27.8618 31.805 28.3093 30.8628 28.9931 30.1037C29.677 29.3446 30.5675 28.8016 31.5555 28.5412L32.7455 28.2297C33.0444 28.1429 33.3655 28.1784 33.6382 28.3283C33.9109 28.4783 34.1129 28.7305 34.1997 29.0294C34.2865 29.3283 34.251 29.6494 34.101 29.9222C33.951 30.1949 33.6989 30.3969 33.4 30.4837H33.365L32.175 30.7952C31.624 30.939 31.1272 31.241 30.7459 31.664C30.3647 32.0869 30.1156 32.6123 30.0295 33.1752V33.1997L27.002 48.4702C26.9571 48.744 26.8163 48.993 26.6047 49.1725C26.3931 49.3521 26.1245 49.4505 25.847 49.4502Z" fill="#24914A"/>
<path d="M31.3805 8.378C31.1253 8.3781 30.877 8.29518 30.6731 8.14175C30.4691 7.98833 30.3206 7.77273 30.25 7.5275L28.8255 2.4735C28.7599 2.18245 28.808 1.87733 28.9601 1.62062C29.1121 1.36391 29.3566 1.17506 29.6433 1.09274C29.9301 1.01042 30.2375 1.04087 30.5026 1.17784C30.7676 1.31482 30.9703 1.54796 31.069 1.8295L32.504 6.8835C32.5893 7.1824 32.5524 7.50293 32.4015 7.77464C32.2505 8.04635 31.9978 8.24701 31.699 8.3325C31.5952 8.36067 31.4881 8.37479 31.3805 8.3745V8.378Z" fill="#FFD63B"/>
<path d="M37.761 8.45126C37.7039 8.45477 37.6466 8.45477 37.5895 8.45126C37.2831 8.40541 37.0073 8.24015 36.8224 7.9916C36.6375 7.74305 36.5584 7.43141 36.6025 7.12476L37.3515 1.92726C37.3745 1.77559 37.4271 1.62992 37.5064 1.49859C37.5857 1.36725 37.6901 1.25281 37.8136 1.16181C37.9371 1.07081 38.0773 1.00503 38.2262 0.968214C38.3751 0.931402 38.5298 0.924283 38.6815 0.947264C38.8332 0.970246 38.9789 1.02288 39.1102 1.10215C39.2415 1.18143 39.356 1.2858 39.447 1.4093C39.538 1.5328 39.6038 1.67302 39.6406 1.82194C39.6774 1.97087 39.6845 2.12559 39.6615 2.27726L38.9125 7.47126C38.8684 7.74484 38.7283 7.99374 38.5173 8.17334C38.3062 8.35293 38.0381 8.45147 37.761 8.45126Z" fill="#FFD63B"/>
<path d="M27.632 12.6235C27.4087 12.6224 27.1903 12.558 27.002 12.438L22.599 9.59949C22.3544 9.42493 22.1862 9.16316 22.1291 8.86819C22.0719 8.57323 22.1302 8.26757 22.2918 8.01431C22.4535 7.76105 22.7062 7.57951 22.9978 7.50716C23.2894 7.43481 23.5977 7.47717 23.859 7.62549L28.2655 10.464C28.4795 10.5998 28.6435 10.8015 28.7329 11.0386C28.8223 11.2758 28.8322 11.5356 28.7612 11.7789C28.6901 12.0222 28.5418 12.2357 28.3388 12.3874C28.1358 12.5392 27.8889 12.6208 27.6355 12.62L27.632 12.6235Z" fill="#FFD63B"/>
<path d="M31.65 69.1625C31.4972 69.1625 31.3458 69.1323 31.2046 69.0737C31.0633 69.015 30.9351 68.9291 30.8271 68.8209C30.7192 68.7126 30.6337 68.5841 30.5755 68.4427C30.5173 68.3013 30.4876 68.1498 30.488 67.997V37.8515C30.488 37.5433 30.6105 37.2477 30.8284 37.0298C31.0463 36.8119 31.3419 36.6895 31.65 36.6895C31.9582 36.6895 32.2538 36.8119 32.4717 37.0298C32.6896 37.2477 32.812 37.5433 32.812 37.8515V68.0075C32.8102 68.3144 32.687 68.6082 32.4692 68.8246C32.2515 69.041 31.957 69.1625 31.65 69.1625Z" fill="#24914A"/>
<path d="M37.0155 69.2183C36.707 69.2174 36.4114 69.0942 36.1936 68.8757C35.9758 68.6572 35.8535 68.3613 35.8535 68.0528V47.6513C35.8491 47.4987 35.8749 47.3467 35.9292 47.2041C35.9836 47.0614 36.0655 46.9309 36.1703 46.8199C36.2751 46.7089 36.4008 46.6196 36.5401 46.5572C36.6794 46.4948 36.8297 46.4604 36.9823 46.456C37.1348 46.4517 37.2868 46.4774 37.4295 46.5318C37.5721 46.5861 37.7027 46.6681 37.8136 46.7729C37.9246 46.8777 38.0139 47.0033 38.0763 47.1426C38.1388 47.282 38.1731 47.4322 38.1775 47.5848V68.0528C38.178 68.2057 38.1482 68.3572 38.0901 68.4985C38.0319 68.6399 37.9463 68.7684 37.8384 68.8767C37.7305 68.985 37.6022 69.0709 37.461 69.1295C37.3198 69.1881 37.1684 69.2183 37.0155 69.2183Z" fill="#24914A"/>
<path d="M60.7698 33.2732C59.847 33.2767 58.944 33.0062 58.175 32.496C57.406 31.9859 56.8058 31.259 56.4503 30.4074C56.0947 29.5559 55.9999 28.6179 56.1778 27.7125C56.3557 26.807 56.7983 25.9746 57.4496 25.3209C58.1009 24.6671 58.9316 24.2214 59.8364 24.0401C60.7412 23.8588 61.6795 23.9501 62.5323 24.3024C63.3852 24.6547 64.1144 25.2523 64.6274 26.0193C65.1405 26.7863 65.4143 27.6884 65.4143 28.6112C65.4162 29.8452 64.928 31.0294 64.0571 31.9036C63.1862 32.7778 62.0038 33.2704 60.7698 33.2732ZM60.7698 26.1857C60.289 26.1836 59.8183 26.3243 59.4175 26.5899C59.0167 26.8556 58.7037 27.2342 58.5183 27.6778C58.3328 28.1215 58.2832 28.6102 58.3757 29.0821C58.4683 29.554 58.6988 29.9877 59.0381 30.3285C59.3773 30.6693 59.8101 30.9016 60.2816 30.9962C60.753 31.0908 61.242 31.0433 61.6864 30.8598C62.1309 30.6762 62.5109 30.3649 62.7782 29.9653C63.0456 29.5656 63.1883 29.0955 63.1883 28.6147C63.1893 28.2963 63.1274 27.9809 63.0063 27.6865C62.8852 27.3921 62.7073 27.1244 62.4827 26.8988C62.258 26.6732 61.9911 26.4941 61.6972 26.3717C61.4033 26.2494 61.0882 26.1861 60.7698 26.1857Z" fill="#9BE5A7"/>
<path d="M60.7699 69.2146C60.4753 69.2165 60.192 69.1015 59.9821 68.8948C59.7721 68.6882 59.6527 68.4067 59.6499 68.1121V51.9456C59.6658 51.6617 59.7899 51.3946 59.9965 51.1993C60.2032 51.0039 60.4768 50.895 60.7612 50.895C61.0455 50.895 61.3191 51.0039 61.5258 51.1993C61.7324 51.3946 61.8565 51.6617 61.8724 51.9456V68.1121C61.8697 68.4037 61.7526 68.6825 61.5465 68.8887C61.3403 69.0949 61.0615 69.2119 60.7699 69.2146Z" fill="#9BE5A7"/>
<path d="M57.2384 69.211C56.948 69.2111 56.6691 69.0977 56.4612 68.8949C56.2532 68.6922 56.1327 68.4163 56.1254 68.126L55.6984 52.3935C55.3605 52.841 54.8826 53.1627 54.3407 53.3072C53.7989 53.4518 53.2242 53.411 52.7082 53.1912C52.1923 52.9715 51.7646 52.5854 51.4934 52.0946C51.2222 51.6037 51.1229 51.0363 51.2114 50.4825L53.2869 38.131C53.4374 37.2508 53.8312 36.4303 54.4238 35.7623C55.0163 35.0942 55.784 34.6054 56.6399 34.351L58.6769 33.756C58.9582 33.6631 59.2648 33.6859 59.5293 33.8191C59.7939 33.9523 59.9946 34.1852 60.0874 34.4665C60.1803 34.7477 60.1576 35.0544 60.0243 35.3189C59.8911 35.5834 59.6582 35.7841 59.3769 35.877L59.2999 35.912L57.2629 36.507C56.8085 36.6418 56.4008 36.9011 56.086 37.2555C55.7712 37.6099 55.5618 38.0453 55.4814 38.5125L53.4059 50.8535C53.4036 50.8916 53.4088 50.9299 53.4212 50.966C53.4337 51.0022 53.4531 51.0355 53.4785 51.0642C53.5039 51.0928 53.5346 51.1161 53.569 51.1328C53.6034 51.1495 53.6408 51.1592 53.6789 51.1615C53.7461 51.1659 53.8127 51.1466 53.8671 51.107C53.9215 51.0673 53.9602 51.0098 53.9764 50.9445L55.4499 42.394C55.4979 42.1227 55.6448 41.8788 55.8622 41.7096C56.0796 41.5403 56.3521 41.4578 56.6269 41.4778C56.9016 41.4978 57.1592 41.619 57.3498 41.818C57.5403 42.017 57.6503 42.2796 57.6584 42.555L58.3584 68.0595C58.3626 68.2057 58.338 68.3512 58.2859 68.4879C58.2338 68.6245 58.1553 68.7495 58.0549 68.8558C57.9544 68.9621 57.834 69.0476 57.7005 69.1073C57.5671 69.167 57.4231 69.1999 57.2769 69.204L57.2384 69.211Z" fill="#9BE5A7"/>
<path d="M64.4416 69.2146H64.4101C64.2639 69.2105 64.1199 69.1777 63.9865 69.1179C63.853 69.0582 63.7326 68.9727 63.6321 68.8665C63.5317 68.7602 63.4532 68.6351 63.4011 68.4985C63.349 68.3618 63.3244 68.2163 63.3286 68.0701L64.0286 42.5621C64.0367 42.2867 64.1467 42.0241 64.3372 41.8251C64.5278 41.6262 64.7854 41.5049 65.0602 41.4849C65.3349 41.4649 65.6074 41.5475 65.8248 41.7167C66.0422 41.8859 66.1891 42.1298 66.2371 42.4011L67.7001 50.9236C67.7067 50.9624 67.7212 50.9995 67.7426 51.0326C67.764 51.0657 67.792 51.0941 67.8247 51.116C67.8575 51.1379 67.8943 51.153 67.9331 51.1602C67.9718 51.1674 68.0116 51.1667 68.0501 51.1581C68.1216 51.1413 68.1841 51.098 68.2251 51.037C68.266 50.9759 68.2822 50.9016 68.2706 50.8291L66.1951 38.5056C66.1156 38.0382 65.907 37.6023 65.5928 37.2473C65.2786 36.8923 64.8713 36.6322 64.4171 36.4966L62.3766 35.9121C62.0897 35.8383 61.844 35.6536 61.6933 35.3986C61.5427 35.1436 61.4995 34.8392 61.5733 34.5523C61.6471 34.2655 61.8318 34.0197 62.0868 33.8691C62.3418 33.7185 62.6462 33.6753 62.9331 33.7491H62.9996L65.0366 34.3441C65.8927 34.5981 66.6606 35.0869 67.2532 35.755C67.8458 36.423 68.2395 37.2437 68.3896 38.1241L70.4686 50.4616C70.5595 51.0165 70.462 51.5858 70.1916 52.0788C69.9212 52.5718 69.4935 52.96 68.9767 53.1816C68.4599 53.4031 67.8838 53.4452 67.3403 53.3011C66.7968 53.157 66.3172 52.8351 65.9781 52.3866L65.5476 68.1366C65.5394 68.4248 65.4194 68.6984 65.2129 68.8996C65.0065 69.1008 64.7298 69.2138 64.4416 69.2146Z" fill="#9BE5A7"/>
<path d="M10.0901 34.2707C9.1672 34.2742 8.264 34.0036 7.49496 33.4933C6.72593 32.983 6.12566 32.2559 5.77023 31.4042C5.41479 30.5524 5.32017 29.6143 5.49836 28.7087C5.67654 27.8031 6.11952 26.9708 6.77116 26.3172C7.4228 25.6636 8.25378 25.2181 9.15883 25.0372C10.0639 24.8563 11.0022 24.9481 11.8551 25.301C12.7079 25.6538 13.4368 26.2519 13.9494 27.0194C14.4621 27.7869 14.7353 28.6893 14.7346 29.6122C14.7356 30.2231 14.6162 30.8281 14.3833 31.3928C14.1503 31.9575 13.8085 32.4708 13.3772 32.9034C12.9459 33.336 12.4337 33.6794 11.8697 33.914C11.3057 34.1486 10.701 34.2698 10.0901 34.2707ZM10.0901 27.1797C9.60959 27.1784 9.13942 27.3196 8.73913 27.5855C8.33884 27.8514 8.02642 28.23 7.8414 28.6735C7.65637 29.1171 7.60707 29.6055 7.69972 30.077C7.79236 30.5486 8.0228 30.982 8.36187 31.3226C8.70095 31.6631 9.13341 31.8954 9.60455 31.9901C10.0757 32.0848 10.5643 32.0376 11.0086 31.8545C11.4529 31.6714 11.833 31.3606 12.1006 30.9615C12.3682 30.5624 12.5115 30.0928 12.5121 29.6122C12.5122 28.9673 12.2579 28.3483 11.8045 27.8897C11.3511 27.431 10.7351 27.1696 10.0901 27.1622V27.1797Z" fill="#9BE5A7"/>
<path d="M10.0935 70.2122C9.94702 70.2122 9.802 70.1833 9.66674 70.1271C9.53147 70.071 9.40862 69.9887 9.30522 69.885C9.20183 69.7812 9.11992 69.6581 9.06419 69.5227C9.00846 69.3873 8.98001 69.2421 8.98047 69.0957V52.9432C8.99642 52.6593 9.12044 52.3922 9.32709 52.1968C9.53374 52.0014 9.80734 51.8926 10.0917 51.8926C10.3761 51.8926 10.6497 52.0014 10.8564 52.1968C11.063 52.3922 11.187 52.6593 11.203 52.9432V69.0957C11.2034 69.2419 11.1751 69.3867 11.1196 69.5219C11.0641 69.6571 10.9825 69.7801 10.8795 69.8837C10.7764 69.9874 10.654 70.0698 10.5191 70.1261C10.3843 70.1825 10.2396 70.2117 10.0935 70.2122Z" fill="#9BE5A7"/>
<path d="M6.55853 70.2124C6.26752 70.2134 5.9877 70.1004 5.77901 69.8976C5.57031 69.6948 5.44935 69.4183 5.44203 69.1274L5.01503 53.4124C4.67516 53.8596 4.19549 54.1801 3.65237 54.3231C3.10926 54.4661 2.53392 54.4233 2.01793 54.2016C1.50194 53.9798 1.07497 53.5918 0.804982 53.0993C0.534991 52.6069 0.4375 52.0382 0.528027 51.4839L2.60003 39.1289C2.75127 38.2491 3.14533 37.4289 3.73777 36.761C4.33021 36.0931 5.09747 35.6041 5.95303 35.3489L7.99003 34.7574C8.27129 34.6646 8.57791 34.6873 8.84243 34.8206C9.10695 34.9538 9.3077 35.1867 9.40053 35.4679C9.49335 35.7492 9.47065 36.0558 9.3374 36.3203C9.20416 36.5849 8.97129 36.7856 8.69003 36.8784L8.62353 36.8994L6.58653 37.4944C6.13272 37.6298 5.72578 37.8893 5.41161 38.2437C5.09745 38.5981 4.88857 39.0332 4.80853 39.4999L2.72253 51.8409C2.71817 51.8789 2.72145 51.9174 2.73218 51.9541C2.74291 51.9908 2.76086 52.025 2.78499 52.0547C2.80912 52.0844 2.83893 52.1089 2.87269 52.1269C2.90644 52.1449 2.94344 52.156 2.98153 52.1594C3.05237 52.1672 3.12361 52.1487 3.18169 52.1074C3.23977 52.0661 3.28064 52.0049 3.29653 51.9354L4.75953 43.4129C4.80345 43.1377 4.94904 42.889 5.16751 42.7159C5.38598 42.5428 5.66144 42.458 5.93942 42.4783C6.2174 42.4985 6.47767 42.6223 6.66878 42.8252C6.85989 43.028 6.96792 43.2952 6.97153 43.5739L7.67153 69.0749C7.67812 69.369 7.56807 69.6536 7.36542 69.8668C7.16278 70.0799 6.88401 70.2042 6.59003 70.2124H6.55853Z" fill="#9BE5A7"/>
<path d="M13.7614 70.2124H13.7299C13.5837 70.2083 13.4398 70.1755 13.3063 70.1157C13.1728 70.056 13.0524 69.9705 12.952 69.8642C12.8516 69.758 12.773 69.6329 12.721 69.4963C12.6689 69.3596 12.6442 69.2141 12.6484 69.0679L13.3484 43.5634C13.3637 43.2935 13.4766 43.0384 13.6661 42.8457C13.8557 42.653 14.1089 42.5358 14.3785 42.5161C14.648 42.4964 14.9156 42.5755 15.1311 42.7386C15.3467 42.9016 15.4956 43.1376 15.5499 43.4024L17.0164 51.9214C17.0226 51.9605 17.0368 51.998 17.058 52.0315C17.0793 52.065 17.1072 52.0937 17.14 52.116C17.1727 52.1383 17.2098 52.1537 17.2487 52.1611C17.2876 52.1686 17.3277 52.168 17.3664 52.1594H17.3839C17.455 52.1419 17.5171 52.0984 17.5579 52.0376C17.5987 51.9767 17.6153 51.9028 17.6044 51.8304L15.5324 39.5034C15.4527 39.0356 15.2436 38.5994 14.9287 38.2443C14.6138 37.8893 14.2058 37.6295 13.7509 37.4944L11.6999 36.8994C11.4301 36.8054 11.2065 36.6115 11.0753 36.3577C10.9441 36.1038 10.9153 35.8093 10.9946 35.5348C11.074 35.2603 11.2556 35.0267 11.5021 34.8821C11.7485 34.7375 12.041 34.6928 12.3194 34.7574L14.3564 35.3524C15.213 35.6062 15.9814 36.0948 16.5746 36.7629C17.1678 37.431 17.5622 38.2518 17.7129 39.1324L19.7884 51.4699C19.8852 52.0256 19.7922 52.5978 19.5243 53.0943C19.2565 53.5908 18.8294 53.9827 18.3117 54.207C17.7941 54.4312 17.216 54.4748 16.6706 54.3307C16.1252 54.1865 15.6442 53.8631 15.3049 53.4124L14.8744 69.1624C14.8583 69.4465 14.734 69.7137 14.527 69.909C14.3199 70.1043 14.046 70.2128 13.7614 70.2124Z" fill="#9BE5A7"/>
</g>
<defs>
<clipPath id="clip0_161_2622">
<rect width="70" height="70" fill="white" transform="translate(0.5 0.5625)"/>
</clipPath>
</defs>
</svg>
