<svg width="71" height="79" viewBox="0 0 71 79" fill="none" xmlns="http://www.w3.org/2000/svg">
<g clip-path="url(#clip0_161_2605)" filter="url(#filter0_d_161_2605)">
<path d="M32.462 21.3138L38.3 17.5303L43.76 21.3138L40.694 28.4538L47.589 56.3908L38.3 68.0598L28.01 56.3908L35.36 28.4538L32.462 21.3138Z" fill="#D1F7FF"/>
<path d="M36.382 30.0078L30.544 55.5998L38.216 66.5863L45.8845 55.5998L40.05 30.0078H36.382ZM21.15 9.36481L30.201 21.9123L36.151 17.5688L21.731 4.65731L21.15 9.36481ZM46.9135 8.03831L52.1635 3.33081H24.139L29.389 8.03831H46.9135ZM38.104 15.8853L43.83 10.7123H32.378L38.1005 15.9028L38.104 15.8853ZM41.7685 21.9123L38.104 19.2558L34.45 21.9123L36.2805 27.3443H39.945L41.7685 21.9123ZM46.35 25.0623C46.1005 25.0399 45.8602 24.9571 45.65 24.8208L43.9315 23.4943L42.213 28.6848L48.3975 55.6033C48.4485 55.79 48.4542 55.9862 48.414 56.1756C48.3738 56.3649 48.289 56.5419 48.1665 56.6918L39.1225 69.6068C39.0446 69.7483 38.9384 69.8723 38.8105 69.9709C38.6827 70.0695 38.5358 70.1408 38.3792 70.1802C38.2226 70.2196 38.0595 70.2263 37.9001 70.1999C37.7408 70.1735 37.5886 70.1146 37.453 70.0268C37.2906 69.9192 37.1552 69.7754 37.0575 69.6068L28.0135 56.6918C27.8965 56.539 27.8152 56.3619 27.7759 56.1735C27.7365 55.9851 27.74 55.7902 27.786 55.6033L33.9775 28.8003L32.378 23.6133L30.6595 24.9398C30.4485 25.0744 30.2086 25.1572 29.9595 25.1813C29.5764 25.146 29.217 24.9804 28.941 24.7123L18.868 10.7123C18.7466 10.5867 18.6612 10.4308 18.6205 10.2609C18.5799 10.091 18.5856 9.91327 18.637 9.74632L19.554 2.12331C19.5727 1.88557 19.6577 1.65784 19.7994 1.46603C19.9411 1.27422 20.1338 1.12603 20.3555 1.03831C20.483 0.942782 20.6414 0.897891 20.8 0.912314H55.73C56.0537 0.91632 56.3636 1.04336 56.597 1.26763C56.8304 1.4919 56.9697 1.79659 56.9865 2.11981L57.9 9.72882C57.9484 10.068 57.8672 10.4129 57.6725 10.6948L47.603 24.7123C47.2211 24.9377 46.7865 25.0584 46.343 25.0623H46.35ZM40.1585 17.5758L46.1085 21.9193L55.156 9.36481L54.5855 4.65731L40.1585 17.5758Z" fill="#9981FF"/>
<path d="M24.4995 37.0537C30.9325 37.2007 36.0215 42.3702 35.878 48.6037C36.0215 54.8372 30.9325 60.0032 24.4995 60.1537C18.0665 60.0032 12.974 54.8372 13.121 48.6037C12.974 42.3702 18.0665 37.2007 24.4995 37.0537Z" fill="#5134CC"/>
<path d="M22.4905 54.2526C22.3095 54.2504 22.1308 54.2115 21.9653 54.1381C21.7998 54.0647 21.651 53.9583 21.528 53.8256L17.958 50.0001C17.7026 49.7244 17.5608 49.3625 17.5608 48.9868C17.5608 48.6111 17.7026 48.2492 17.958 47.9736C18.0808 47.8416 18.2295 47.7363 18.3948 47.6644C18.5601 47.5924 18.7385 47.5553 18.9187 47.5553C19.099 47.5553 19.2774 47.5924 19.4427 47.6644C19.608 47.7363 19.7567 47.8416 19.8795 47.9736L22.4905 50.7736L29.2525 43.6441C29.375 43.5116 29.5236 43.406 29.689 43.3337C29.8543 43.2614 30.0328 43.2241 30.2132 43.2241C30.3937 43.2241 30.5722 43.2614 30.7375 43.3337C30.9028 43.406 31.0514 43.5116 31.174 43.6441C31.4286 43.9201 31.5699 44.2818 31.5699 44.6573C31.5699 45.0328 31.4286 45.3945 31.174 45.6706L23.4495 53.8326C23.327 53.9646 23.1787 54.0701 23.0137 54.1423C22.8487 54.2146 22.6706 54.2521 22.4905 54.2526Z" fill="white"/>
</g>
<defs>
<filter id="filter0_d_161_2605" x="-3.5" y="0.5625" width="78" height="78" filterUnits="userSpaceOnUse" color-interpolation-filters="sRGB">
<feFlood flood-opacity="0" result="BackgroundImageFix"/>
<feColorMatrix in="SourceAlpha" type="matrix" values="0 0 0 0 0 0 0 0 0 0 0 0 0 0 0 0 0 0 127 0" result="hardAlpha"/>
<feOffset dy="4"/>
<feGaussianBlur stdDeviation="2"/>
<feComposite in2="hardAlpha" operator="out"/>
<feColorMatrix type="matrix" values="0 0 0 0 0 0 0 0 0 0 0 0 0 0 0 0 0 0 0.25 0"/>
<feBlend mode="normal" in2="BackgroundImageFix" result="effect1_dropShadow_161_2605"/>
<feBlend mode="normal" in="SourceGraphic" in2="effect1_dropShadow_161_2605" result="shape"/>
</filter>
<clipPath id="clip0_161_2605">
<rect width="70" height="70" fill="white" transform="translate(0.5 0.5625)"/>
</clipPath>
</defs>
</svg>
