<?xml version="1.0" encoding="utf-8"?>
<!-- Generator: Adobe Illustrator 26.0.0, SVG Export Plug-In . SVG Version: 6.00 Build 0)  -->
<svg version="1.1" id="Calque_1" xmlns="http://www.w3.org/2000/svg" xmlns:xlink="http://www.w3.org/1999/xlink" x="0px" y="0px"
	 viewBox="0 0 375 420" style="enable-background:new 0 0 375 420;" xml:space="preserve">
<style type="text/css">
	.st0{fill-rule:evenodd;clip-rule:evenodd;fill:url(#SVGID_1_);}
	.st1{fill-rule:evenodd;clip-rule:evenodd;fill:url(#SVGID_00000156568484706215592540000005193425616578655141_);}
	.st2{fill-rule:evenodd;clip-rule:evenodd;fill:#FFFFFF;}
</style>
<linearGradient id="SVGID_1_" gradientUnits="userSpaceOnUse" x1="-109.8373" y1="83.3034" x2="-129.4801" y2="-175.6416" gradientTransform="matrix(1 0 0 -1 0 422)">
	<stop  offset="0" style="stop-color:#0CEEF4"/>
	<stop  offset="1" style="stop-color:#0CF8F4"/>
</linearGradient>
<path class="st0" d="M-345.4,399.8c-1.5-35.5,6.2-70.4,18.9-103.4c13-33.8,30.7-65.4,48.6-96.8c15.8-27.7,31.3-55.5,47.8-82.8
	c16.4-27.1,34-53.7,54-78.4c19.5-24.1,41.4-46.7,66.9-64.5c24.5-17.1,52.3-29.6,82-34c32.2-4.8,65.4,1.7,94,17.3
	c27.9,15.2,51.1,39.1,63.5,68.5c3.1,4.4,5.6,9.2,7.4,14.4c8.8,24.9,4.5,53.6-3.3,78.1c-9.9,31.3-30.7,57.1-48.6,84.1
	c-22.1,33.3-44.2,69.1-49.1,109.6c-4.3,35.6,3.5,71,12.6,105.3c9,34,20.5,68,23.3,103.2c2.6,31.3-3.3,64.3-24.2,88.8
	c-8.2,9.5-18.6,17.3-30.9,20.7c-13.2,3.7-27,1.5-39.2-4.4c-12.6-6-22.8-16.1-32-26.3c-10.7-11.7-20.4-24.3-30.9-36.1
	c-9.8-11-20.5-21.9-33.6-28.8c-13.3-7-29.7-8.9-41.8,1.3c-5.6,4.7-10.5,10.3-16.6,14.4c-7.3,5-15.6,8.7-24.1,11.2
	c-15.9,4.8-32.4,4.1-48-1.4c-30.9-10.8-53.8-37.5-69.4-65.3C-334.7,465.5-344,433.2-345.4,399.8z"/>
<linearGradient id="SVGID_00000019676366360674272420000011480458774462013628_" gradientUnits="userSpaceOnUse" x1="21.7076" y1="75.628" x2="0.7765" y2="80.456" gradientTransform="matrix(1 0 0 -1 0 422)">
	<stop  offset="0" style="stop-color:#F6C78D"/>
	<stop  offset="1" style="stop-color:#FCD569"/>
</linearGradient>
<path style="fill-rule:evenodd;clip-rule:evenodd;fill:url(#SVGID_00000019676366360674272420000011480458774462013628_);" d="
	M31.6,305.2c3.8-0.5,7.7,1.2,11.8,5.2c3.9,4.3,6.3,9.2,6.9,14.7c2.5,17.3-0.5,40.6-9.1,69.9c-12.8-19.7-20.8-41-24-63.7
	c-0.8-6.3,0.3-12,3.1-17.3C23.1,309.1,26.8,306.1,31.6,305.2z"/>
<path class="st2" d="M-81.4,403.5c25.8-9.5,51.3-21.3,73.9-37.1c20.3-14.2,38.2-32.6,38.5-58.8c0.1-11.7-2.6-23.2-5.5-34.6
	c-3.2-12.5-6-25-7.9-37.8c-2.2-15.2-3.5-30.7-3.1-46.1c0.3-14.5,1.8-29.8,7.1-43.5c5.1-13.4,16.2-23.6,27.3-32.2
	c11.6-9.1,24.1-16.9,35.6-26.1c16.8-13.6,33.9-27.1,50.6-40.8c18.8-15.5,37.2-31.6,53.5-49.7c15.1-16.7,28.9-35.6,36.3-57
	c8-23.1,6.9-48.3-5.6-69.7c-14.5-24.9-39.5-41.7-63-57.1c-5.8-3.8-11.7-7.6-17.4-11.5c-1.5-1-3.3,1.3-1.7,2.3
	c23.8,16,49.6,30.6,68.6,52.4c18,20.7,25.7,47.2,19,74.1c-5.4,21.7-18.2,40.9-32.4,57.8c-15.7,18.6-33.8,35-52.4,50.6
	c-16.7,14-33.9,27.1-50.7,40.9c-9.9,8.1-20.2,15.6-30.6,23c-10.9,7.8-22,16.1-30.5,26.6c-16.8,20.8-17.3,51.5-16.1,77
	c0.7,14.2,2.4,28.5,5,42.5c2.2,11.8,5.6,23.3,8.2,35c2.5,11.3,4.2,23.2,1.9,34.7c-2.6,13.3-10.7,24.1-20.4,33.1
	c-20.6,19-46.9,32.1-72.6,42.8c-5.5,2.3-11,4.5-16.6,6.5C-84.3,401.5-83.1,404.2-81.4,403.5z"/>
</svg>
