<svg width="191" height="420" viewBox="0 0 191 420" fill="none" xmlns="http://www.w3.org/2000/svg">
<path fill-rule="evenodd" clip-rule="evenodd" d="M176.966 11.531C158.203 44.7743 160.737 84.5078 173.767 119.32C181.568 140.16 193.447 158.333 204.405 177.528C209.607 186.653 214.264 196.192 216.685 206.466C219.244 217.265 219.062 228.642 217.97 239.629C213.337 286.334 189.773 328.487 169.472 369.861C158.5 392.204 147.518 414.564 135.311 436.266C124.408 455.662 112.099 474.282 102.298 494.287C92.3128 514.658 86.7988 535.733 84.1027 558.206C81.3147 581.425 80.8641 604.96 83.1878 628.243C87.6344 672.789 103.848 713.671 127.626 751.333C134.267 761.849 141.261 772.135 148.28 782.403C153.817 787.737 159.531 792.88 165.403 797.824C220.582 824.488 284.091 836.393 344.02 820.374C376.506 811.681 406.352 794.837 430.733 771.717C461.671 742.392 484.629 703.587 498.23 663.374C512.103 622.353 514.713 578.683 508.024 536.007C504.519 513.704 498.675 491.809 491.37 470.463C483.563 447.661 473.642 425.893 463.888 403.892C445.577 362.575 434.192 318.428 435.678 272.986C436.321 253.287 438.355 232.793 447.23 214.894C455.191 198.826 468.165 185.955 480.441 173.178C493.496 159.574 506.496 145.076 513.205 127.15C519.99 109.016 518.332 89.9725 512.699 71.769C507.553 55.1258 500.069 39.2009 487.911 26.4898C478.352 16.4953 466.677 8.94145 454.592 2.37555C433.26 -9.2054 410.403 -18.0589 387.176 -25.0331C360.744 -32.9703 333.389 -38.4845 305.813 -40.1782C258.264 -43.0892 202.475 -33.6638 176.966 11.531Z" fill="url(#paint0_linear_154_323)"/>
<path fill-rule="evenodd" clip-rule="evenodd" d="M3.44882 -53.3259C5.18522 -61.4309 5.98414 -71.2844 11.7435 -77.7391C17.3064 -83.9786 26.0503 -86.6471 34.0128 -88.0984C55.9875 -92.0998 78.7922 -88.7224 100.698 -85.9759C113.332 -84.3969 126.005 -82.8676 138.747 -82.6027C151.802 -82.3337 164.853 -83.1676 177.918 -82.8555C190.77 -82.5475 203.614 -81.7204 216.384 -80.2382C229.306 -78.7371 241.939 -76.1319 254.549 -72.9684C260.46 -71.4822 266.343 -69.887 272.316 -68.6631C277.997 -67.4969 283.713 -66.5177 289.378 -65.2803C298.87 -63.2104 309.533 -60.675 316.591 -53.529C328.503 -41.4616 329.084 -22.3611 331.897 -6.66215C336.466 18.8809 339.696 44.5531 341.624 70.4324C343.598 96.9116 343.968 123.45 345.525 149.949C347.082 176.523 349.508 203.037 351.256 229.599C352.724 251.924 352.856 274.071 348.982 296.174C347.616 303.967 345.845 311.776 342.938 319.155C340.441 325.501 336.938 332.299 330.984 336.051C327.874 338.013 324.804 338.688 321.831 338.427C321.936 339.004 321.082 339.429 320.754 338.832C320.645 338.629 320.524 338.431 320.403 338.232C312.705 336.789 305.784 329.304 300.825 322.053C300.458 321.702 300.092 321.343 299.737 320.969C291.855 312.778 285.355 303.183 280.24 293.054C274.989 282.659 271.825 271.504 268.743 260.322C261.915 235.535 256.784 210.335 251.049 185.287C248.185 172.766 245.173 160.278 241.724 147.905C238.853 137.597 235.716 127.41 231.428 117.591C223.336 99.0771 212.182 81.3216 197.262 67.542C189.911 60.751 181.59 55.0926 172.327 51.2459C161.906 46.9176 150.764 44.6204 139.605 43.196C117.819 40.4186 95.5725 40.9068 74.09 35.9222C64.2311 33.6357 53.6929 30.2664 45.5193 24.1076C36.9947 17.6839 29.8621 8.04146 22.9959 -0.000346967C19.3051 -4.32993 15.9251 -7.30236 11.8726 -11.2809C8.14153 -14.9393 4.38088 -18.8627 2.23559 -23.6994C-2.15855 -33.5986 1.33043 -43.4037 3.44882 -53.3259Z" fill="url(#paint1_linear_154_323)"/>
<path fill-rule="evenodd" clip-rule="evenodd" d="M82.3735 -78.1674C82.935 -50.6586 85.8259 -22.638 93.4128 3.87992C100.226 27.6932 111.809 50.7092 136.51 59.4566C147.57 63.3727 159.33 64.5311 170.946 65.5201C183.794 66.614 196.512 67.9436 209.193 70.3569C224.316 73.2352 239.318 77.1011 253.761 82.4608C267.394 87.5208 281.329 93.8794 292.55 103.311C303.544 112.55 309.551 126.328 314.141 139.605C318.951 153.521 322.235 167.927 327.263 181.771C334.667 202.153 341.834 222.633 349.396 242.955C357.89 265.778 367.175 288.425 378.986 309.755C389.89 329.444 403.197 348.651 421.039 362.674C440.303 377.816 464.401 384.894 488.698 380.077C516.931 374.479 540.913 356.327 563.166 339.071C568.659 334.811 574.126 330.518 579.664 326.318C581.134 325.204 579.52 322.819 578.039 323.942C555.211 341.249 533.056 360.873 506.209 371.763C480.762 382.083 453.285 380.723 430.054 365.623C411.33 353.452 397.308 335.099 385.968 316.143C373.479 295.266 363.85 272.778 355.164 250.096C347.385 229.786 340.553 209.135 332.966 188.757C328.49 176.736 324.825 164.573 321.173 152.28C317.335 139.366 313.16 126.213 305.967 114.718C291.783 92.0493 262.891 81.5606 238.449 74.4003C224.766 70.393 210.775 67.4095 196.676 65.3167C184.829 63.5593 172.868 63.0462 160.978 61.682C149.448 60.3603 137.728 58.1184 127.577 52.2052C115.89 45.3977 108.24 34.2523 102.9 22.0698C91.6306 -3.64318 87.8215 -32.7564 86.0036 -60.555C85.6149 -66.4795 85.3656 -72.4113 85.2448 -78.3469C85.2062 -80.2035 82.336 -80.0153 82.3735 -78.1674Z" fill="#E87F6E"/>
<path fill-rule="evenodd" clip-rule="evenodd" d="M164.213 374.091C158.27 374.091 153.453 378.908 153.453 384.851C153.453 390.794 158.27 395.611 164.213 395.611C170.156 395.611 174.973 390.794 174.973 384.851C174.973 378.908 170.156 374.091 164.213 374.091Z" fill="#E87F6E"/>
<defs>
<linearGradient id="paint0_linear_154_323" x1="290.719" y1="216.244" x2="143.528" y2="-16.1421" gradientUnits="userSpaceOnUse">
<stop stop-color="#F6C78D"/>
<stop offset="1" stop-color="#FCD569"/>
</linearGradient>
<linearGradient id="paint1_linear_154_323" x1="309.673" y1="62.3189" x2="158.61" y2="115.183" gradientUnits="userSpaceOnUse">
<stop offset="0.49" stop-color="#F4607C"/>
<stop offset="1" stop-color="#DB6086"/>
</linearGradient>
</defs>
</svg>
