<svg width="71" height="71" viewBox="0 0 71 71" fill="none" xmlns="http://www.w3.org/2000/svg">
<g clip-path="url(#clip0_161_2669)">
<path d="M24.4361 62.1978H8.94507V68.9037H24.4361V62.1978Z" fill="#FDDDEC"/>
<path d="M62.0542 62.1978H46.5632V68.9037H62.0542V62.1978Z" fill="#FDDDEC"/>
<path d="M18.4273 24.4086H18.4518C17.1665 23.1417 16.1501 21.6286 15.4633 19.9597C14.7765 18.2909 14.4335 16.5006 14.4548 14.6961C14.4548 7.59458 19.6523 1.84058 26.0713 1.84058C32.9138 1.84058 35.5003 7.14658 35.5003 7.14658L39.0738 2.94658C39.0738 2.94658 41.1913 1.83008 44.8803 1.83008C51.2993 1.83008 56.5003 7.58408 56.5003 14.6856C56.523 17.8678 55.428 20.957 53.4063 23.4146L53.4483 23.4391L53.1893 23.6666C52.5301 24.415 51.7799 25.0781 50.9563 25.6406L35.5003 39.2906L18.4273 24.4086Z" fill="#E048DA"/>
<path d="M67.588 32.0172C65.9452 32.0152 64.3615 32.6297 63.15 33.7392V24.1947C63.1528 23.7566 63.0691 23.3222 62.9037 22.9164C62.7384 22.5106 62.4947 22.1415 62.1865 21.83C61.8783 21.5186 61.5117 21.271 61.1077 21.1014C60.7036 20.9318 60.2702 20.8436 59.832 20.8417C59.4081 20.8422 58.9884 20.9254 58.5965 21.0867C58.3647 20.2353 57.808 19.5088 57.046 19.0637C57.6227 16.9874 57.7627 14.8142 57.4573 12.6811C57.1519 10.5479 56.4076 8.50127 55.2715 6.67023C54.16 4.85054 52.5991 3.34741 50.7387 2.30538C48.8784 1.26335 46.7813 0.717472 44.649 0.720225C41.319 0.733235 38.1303 2.06762 35.7835 4.43023L35.4895 4.72773L35.1955 4.43023C32.8513 2.07019 29.6669 0.736013 26.3405 0.720225C24.2089 0.718409 22.1126 1.26472 20.253 2.30669C18.3934 3.34866 16.8329 4.85128 15.7215 6.67023C14.5846 8.50092 13.8391 10.5472 13.5319 12.6802C13.2247 14.8131 13.3624 16.9866 13.9365 19.0637C13.1781 19.5096 12.626 20.2365 12.4 21.0867C11.9965 20.9219 11.5643 20.8387 11.1284 20.8419C10.6925 20.8452 10.2616 20.9349 9.86059 21.1058C9.45959 21.2766 9.09645 21.5253 8.79219 21.8375C8.48793 22.1496 8.24858 22.519 8.088 22.9242C7.92684 23.3282 7.846 23.7598 7.85 24.1947V33.7392C6.63851 32.6297 5.05478 32.0152 3.412 32.0172C3.11984 32.0186 2.83081 32.0776 2.56146 32.1907C2.29211 32.3039 2.04772 32.4691 1.84228 32.6768C1.63683 32.8846 1.47435 33.1308 1.36414 33.4013C1.25393 33.6719 1.19815 33.9616 1.2 34.2537V34.3762C1.2 34.4462 1.9525 41.2852 2.2115 47.3262C2.32156 50.0238 3.30411 52.6128 5.0115 54.7042L7.81149 58.1167V70.0167H25.5425V57.9837C26.9958 54.9483 27.7516 51.6261 27.7545 48.2607V33.9702L35.5 40.1477L43.2455 33.9702V48.2537C43.2484 51.6203 44.0041 54.9436 45.4575 57.9802V70.0202H63.15V58.1202L65.95 54.7112C67.6567 52.6208 68.6392 50.0331 68.75 47.3367C69.009 41.2747 69.7545 34.4357 69.7615 34.3867V34.2607C69.7672 33.676 69.5422 33.1127 69.1353 32.6927C68.7285 32.2728 68.1726 32.0301 67.588 32.0172ZM25.5425 48.2537C25.5385 51.3652 24.82 54.4343 23.4425 57.2242L23.334 57.4622V67.7837H10.0515V57.3222L6.7335 53.2972C5.33161 51.5835 4.5235 49.4613 4.4305 47.2492C4.189 41.5617 3.524 35.2127 3.419 34.2537C4.5976 34.2584 5.72619 34.7305 6.55696 35.5665C7.38774 36.4026 7.85279 37.5341 7.85 38.7127V44.8727L9.9185 46.4372C11.5669 47.6842 12.7953 49.4047 13.4395 51.3687L15.5395 50.6687C14.751 48.2743 13.2488 46.1785 11.2345 44.6627L10.0515 43.7667V24.1947C10.0515 23.9014 10.168 23.6201 10.3754 23.4127C10.5828 23.2052 10.8642 23.0887 11.1575 23.0887C11.4508 23.0887 11.7321 23.2052 11.9396 23.4127C12.147 23.6201 12.2635 23.9014 12.2635 24.1947V39.8432H14.479V21.9582C14.4793 21.7136 14.5632 21.4765 14.717 21.2862C15.2326 22.471 15.8958 23.5858 16.691 24.6042V39.8432H18.903V26.8932C19.015 26.9912 19.12 27.0962 19.253 27.1907L21.1325 28.6957V39.8607H23.348V30.4422L25.56 32.1922L25.5425 48.2537ZM35.5 37.3127L20.6075 25.4127C18.0506 23.3551 16.333 20.4346 15.7774 17.1999C15.2219 13.9653 15.8666 10.6391 17.5905 7.84622C18.4051 6.51934 19.511 5.39522 20.8244 4.559C22.1378 3.72278 23.6242 3.19637 25.1711 3.01966C26.7181 2.84294 28.2849 3.02055 29.7531 3.53902C31.2212 4.0575 32.5521 4.90325 33.645 6.01223L35.5 7.88823L37.3585 6.01223C38.4518 4.90377 39.783 4.0587 41.2514 3.54105C42.7197 3.0234 44.2866 2.84675 45.8333 3.02449C47.38 3.20224 48.866 3.7297 50.1787 4.56693C51.4913 5.40415 52.5961 6.52917 53.4095 7.85673C55.1319 10.6482 55.7758 13.9725 55.2203 17.2051C54.6647 20.4378 52.948 23.3564 50.3925 25.4127L35.5 37.3127ZM66.5695 47.2597C66.4765 49.4708 65.6683 51.5919 64.2665 53.3042L60.9485 57.3257V67.7942H47.6695V57.4622L47.561 57.2242C46.1835 54.4343 45.465 51.3652 45.461 48.2537V32.2062L47.673 30.4562V39.8572H49.8885V28.6782L51.768 27.1802C51.887 27.0857 51.9885 26.9772 52.1005 26.8792V39.8292H54.3125V24.6042C55.1077 23.5858 55.7709 22.471 56.2865 21.2862C56.4388 21.4773 56.5226 21.7139 56.5245 21.9582V39.8432H58.74V24.1947C58.74 23.9014 58.8565 23.6201 59.0639 23.4127C59.2714 23.2052 59.5527 23.0887 59.846 23.0887C60.1393 23.0887 60.4206 23.2052 60.6281 23.4127C60.8355 23.6201 60.952 23.9014 60.952 24.1947V43.7527L59.7655 44.6627C57.7557 46.1829 56.2585 48.2809 55.4745 50.6757L57.5745 51.3757C58.2177 49.4122 59.4449 47.6917 61.092 46.4442L63.15 44.8727V38.7127C63.1444 37.5341 63.6068 36.4015 64.4356 35.5635C65.2644 34.7255 66.3919 34.2506 67.5705 34.2432C67.4655 35.2022 66.8005 41.5512 66.559 47.2387L66.5695 47.2597Z" fill="#7544D6" stroke="#7544D6" stroke-width="0.35" stroke-miterlimit="10"/>
<path d="M25.5426 62.1943H7.8396V64.4308H25.5426V62.1943Z" fill="#7544D6"/>
<path d="M63.1608 62.1943H45.4578V64.4308H63.1608V62.1943Z" fill="#7544D6"/>
</g>
<defs>
<clipPath id="clip0_161_2669">
<rect width="70" height="70" fill="white" transform="translate(0.5 0.5625)"/>
</clipPath>
</defs>
</svg>
