<svg width="375" height="358" viewBox="0 0 375 358" fill="none" xmlns="http://www.w3.org/2000/svg">
<g clip-path="url(#clip0_1_980)">
<path d="M250.748 187.443C261.645 182.522 266.56 169.683 261.645 158.771C256.731 147.858 243.91 142.936 233.013 147.858C222.115 152.779 217.201 165.618 222.115 176.531C227.03 187.443 239.85 192.365 250.748 187.443Z" fill="url(#paint0_linear_1_980)"/>
<path d="M288.355 251.85C296.902 260.195 310.684 259.981 319.017 251.422C327.35 242.863 327.137 229.061 318.59 220.716C310.043 212.371 296.261 212.585 287.927 221.144C279.594 229.703 279.808 243.505 288.355 251.85Z" fill="url(#paint1_linear_1_980)"/>
<path d="M245.085 143.792C245.085 143.792 182.265 109.877 169.017 138.015C155.769 166.152 225.962 187.443 225.962 187.443C225.962 187.443 225.534 177.707 231.517 164.013C237.073 151.388 245.085 143.792 245.085 143.792V143.792Z" fill="white"/>
<path d="M248.397 144.434C248.397 144.434 253.739 155.24 254.06 167.222C254.487 183.057 250.534 189.476 250.534 189.476C250.534 189.476 285.577 186.694 285.791 168.827C286.004 149.355 248.397 144.434 248.397 144.434V144.434Z" fill="white"/>
<path d="M10.6838 109.77C19.8718 101.425 52.2436 103.243 63.0342 109.556C61.4316 132.879 61.6453 185.303 88.6752 234.946C95.0855 246.821 103.526 257.52 112.82 266.614C99.359 277.955 72.9701 293.682 59.6154 291.436C47.0085 289.403 19.1239 246.394 8.54701 203.17C-2.02991 159.947 -4.27351 123.25 10.7906 109.663L10.6838 109.77Z" fill="#A994FF"/>
<path d="M63.0342 109.663C63.5684 101.746 64.3163 97.1452 64.3163 97.1452L181.944 121.432C181.944 121.432 177.778 157.914 205.769 186.694C228.526 210.232 251.709 202.421 258.868 212.478C280.342 242.542 203.419 293.254 172.329 297.213C158.013 299.032 133.547 286.942 112.927 266.614C103.739 257.52 95.1923 246.822 88.7821 234.946C61.7521 185.196 61.5385 132.879 63.141 109.556L63.0342 109.663Z" fill="#EBEAEF"/>
<path d="M59.829 65.2627C59.9359 63.6579 60.1495 62.1601 60.3632 60.5552C60.3632 59.8063 60.5769 59.1644 60.6837 58.4155C61.0043 56.8107 61.3248 55.2058 61.7521 53.494C61.7521 53.494 61.7521 53.387 61.7521 53.28C62.2863 51.3543 62.8205 49.4285 63.4615 47.6097C64.1026 45.8979 64.8504 44.1861 65.4914 42.4743C67.2008 38.6227 69.3376 34.8781 71.5812 31.3475C72.5427 29.9566 73.5042 28.5658 74.5726 27.175C75.641 25.7841 76.7094 24.5003 77.8846 23.2164C78.0983 23.1094 78.2051 22.8954 78.3119 22.7884C79.594 21.2906 80.8761 20.0068 82.3718 18.7229C82.4786 18.7229 82.5854 18.5089 82.6923 18.4019C84.0812 17.2251 85.3632 16.1552 86.7521 14.9783C88.0342 14.0154 89.3162 13.0525 90.8119 11.9827C91.1325 11.7687 91.5598 11.4477 91.9872 11.2337C94.9786 9.20096 98.2906 7.38216 101.709 5.99132C103.632 5.13541 105.556 4.3865 107.479 3.74457C108.867 3.20963 110.363 2.88866 111.752 2.46071C112.073 2.46071 112.5 2.24674 112.82 2.13975C118.59 0.641915 124.573 -0.213989 130.769 -0.213989C145.94 -0.213989 160.043 4.49349 171.688 12.7316C172.009 12.9455 187.286 114.798 186.966 115.333C186.966 115.333 186.432 116.082 186.218 116.403C185.47 117.259 184.829 118.115 184.081 118.971C183.333 119.72 182.585 120.576 181.838 121.324C181.09 122.073 180.342 122.929 179.487 123.571C178.739 124.32 177.885 125.069 177.03 125.711C176.282 126.46 175.427 127.102 174.466 127.744C173.718 128.386 172.863 128.921 172.115 129.563C171.154 130.311 170.192 130.953 169.124 131.595C168.162 132.13 167.308 132.772 166.346 133.307C164.423 134.484 162.393 135.447 160.256 136.41C159.295 136.838 158.333 137.266 157.479 137.587C156.41 138.015 155.449 138.443 154.38 138.764C152.564 139.405 150.641 139.94 148.718 140.475C146.261 141.117 143.697 141.652 141.132 141.973C139.957 142.187 138.889 142.294 137.82 142.401C135.47 142.615 133.12 142.722 130.876 142.722C91.453 142.722 59.5085 110.733 59.5085 71.254C59.5085 69.1143 59.5085 67.0815 59.829 65.0487V65.2627Z" fill="white"/>
<path d="M95.1923 89.977C101.282 108.379 110.684 119.292 115.385 120.79C122.756 123.143 131.944 125.283 163.568 120.79C173.184 119.399 181.197 117.366 186.966 115.547C187.286 115.012 187.714 114.477 188.141 113.942C188.782 112.979 189.423 112.23 190.064 111.268C194.338 104.955 197.65 97.8941 199.679 90.1909C200.321 87.8372 200.748 85.4835 201.175 83.0227C201.496 81.3109 201.603 79.5991 201.816 77.8873C201.816 77.4594 201.923 77.0314 201.923 76.7104C201.923 76.7104 201.923 76.7104 201.923 76.8174C202.03 74.9986 202.244 73.1798 202.244 71.361C202.244 47.0747 190.171 25.6771 171.795 12.7316C163.996 12.8386 152.244 14.3364 135.897 18.8299C116.346 24.2863 101.389 33.1663 94.3376 39.9065C92.4145 41.8323 91.0256 43.5441 90.2778 44.935C87.7137 50.3914 87.1795 65.9046 95.1923 89.87V89.977Z" fill="url(#paint2_linear_1_980)"/>
<path d="M40.7051 203.919C38.2478 215.688 45.8333 227.243 57.6923 229.703C69.4444 232.164 80.9829 224.568 83.4401 212.692C85.8974 200.924 78.3119 189.369 66.453 186.908C54.7008 184.447 43.1623 192.044 40.7051 203.919Z" fill="url(#paint3_linear_1_980)"/>
<path d="M86.1111 212.264C86.1111 212.264 120.406 149.462 92.3077 136.089C64.2094 122.715 42.6282 192.9 42.6282 192.9C42.6282 192.9 52.3504 192.472 66.0256 198.57C78.5256 204.24 86.1111 212.264 86.1111 212.264Z" fill="white"/>
<path d="M77.6709 226.708C77.6709 226.708 65.7051 225.21 55.4487 218.684C41.9871 210.125 38.782 203.277 38.782 203.277C38.782 203.277 21.5811 234.197 36.4316 244.361C52.5641 255.381 77.6709 226.601 77.6709 226.601V226.708Z" fill="white"/>
<path d="M28.6325 239.439C28.6325 239.439 25.3205 243.612 19.3376 243.933C13.782 244.254 7.37178 238.476 4.70084 241.365C2.0299 244.254 -1.92309 253.027 1.06836 256.557C6.83759 263.191 16.2393 260.623 16.2393 260.623C16.2393 260.623 9.82903 263.405 11.1111 267.898C12.3931 272.392 22.6496 269.717 30.235 261.479C37.8205 253.241 39.1025 248.319 39.1025 248.319L28.5256 239.332L28.6325 239.439Z" fill="white"/>
<path d="M37.5 251.315C38.9957 252.706 41.2393 252.599 42.6282 251.101C44.0171 249.603 43.9103 247.356 42.4145 245.966L32.4786 236.765C30.9829 235.374 28.7393 235.481 27.3504 236.979C25.9615 238.476 26.0684 240.723 27.5641 242.114L37.5 251.315V251.315Z" fill="url(#paint4_linear_1_980)"/>
<path d="M287.5 160.589C287.5 160.589 292.842 160.91 297.115 156.631C301.068 152.672 301.068 144.113 305.021 144.006C308.974 143.899 318.162 146.895 318.697 151.495C319.765 160.161 311.538 165.511 311.538 165.511C311.538 165.511 317.842 162.622 320.406 166.58C322.863 170.539 314.103 176.423 302.885 176.53C291.667 176.744 287.179 174.391 287.179 174.391L287.607 160.589H287.5Z" fill="white"/>
<path d="M290.385 175.033C290.385 177.065 288.782 178.67 286.859 178.777C284.829 178.777 283.226 177.172 283.12 175.246L282.906 161.659C282.906 159.626 284.509 158.021 286.432 157.914C288.462 157.914 290.064 159.519 290.171 161.445L290.385 175.033V175.033Z" fill="url(#paint5_linear_1_980)"/>
<path d="M218.91 221.572C223.397 197.286 299.573 211.729 299.573 211.729C299.573 211.729 304.808 219.754 301.923 236.123C299.038 252.492 291.987 258.376 291.987 258.376C291.987 258.376 214.53 245.003 218.803 221.572H218.91Z" fill="white"/>
<path d="M349.466 239.439C350.748 217.935 316.56 214.404 316.56 214.404C316.56 214.404 321.368 222.642 320.406 238.476C319.444 254.311 312.393 261.479 312.393 261.479C312.393 261.479 348.077 260.623 349.466 239.439Z" fill="white"/>
<path d="M349.573 232.485L353.526 231.415C353.526 231.415 356.731 222.642 363.355 217.614C369.872 212.692 375 211.194 375 211.194L372.222 242.97C371.795 247.784 367.521 251.422 362.714 250.994L352.671 250.138L348.291 247.998L349.679 232.485H349.573Z" fill="white"/>
<path d="M349.038 251.743C350.962 251.957 352.564 250.566 352.778 248.64L354.06 233.341C354.273 231.415 352.885 229.81 350.962 229.596C349.038 229.382 347.436 230.773 347.222 232.699L345.94 247.998C345.726 249.924 347.115 251.529 349.038 251.743Z" fill="url(#paint6_linear_1_980)"/>
<path d="M207.372 346.534C195.727 343.539 188.782 331.77 191.774 320.108C194.765 308.447 206.517 301.492 218.162 304.488C229.808 307.484 236.752 319.252 233.761 330.914C230.769 342.576 219.017 349.53 207.372 346.534Z" fill="url(#paint7_linear_1_980)"/>
<path d="M155.662 262.87C137.714 279.774 191.239 336.05 191.239 336.05C191.239 336.05 200.855 336.05 213.034 324.816C225.214 313.475 226.282 304.381 226.282 304.381C226.282 304.381 172.97 246.501 155.662 262.87V262.87Z" fill="white"/>
<path d="M246.368 357.126C231.517 372.746 205.662 349.958 205.662 349.958C205.662 349.958 214.957 347.925 225.962 336.478C236.966 325.03 237.393 314.973 237.393 314.973C237.393 314.973 261.004 341.827 246.368 357.126V357.126Z" fill="white"/>
<path d="M241.346 361.941L243.162 365.578C243.162 365.578 238.889 373.923 239.744 382.161C240.598 390.293 242.949 395.107 242.949 395.107L264.316 371.463C267.628 367.825 267.308 362.262 263.675 359.052L256.197 352.205L251.603 350.386L241.132 361.941H241.346Z" fill="white"/>
<path d="M255.021 348.567C256.41 349.851 256.517 351.991 255.235 353.382L244.979 364.723C243.696 366.114 241.56 366.221 240.171 364.937C238.782 363.653 238.675 361.513 239.957 360.122L250.214 348.781C251.496 347.391 253.632 347.284 255.021 348.567Z" fill="url(#paint8_linear_1_980)"/>
<path d="M177.778 149.569C180.769 151.495 181.838 161.338 190.705 175.567C197.863 187.122 208.12 193.648 208.12 195.681C208.12 197.714 202.03 205.096 192.521 212.371C180.449 221.679 163.889 227.671 159.509 227.029C155.128 226.387 141.026 214.511 134.615 201.566C126.603 185.089 123.611 162.836 126.496 160.375C129.38 158.021 139.53 158.77 155.983 155.133C170.726 151.816 175.534 148.285 177.778 149.569Z" fill="url(#paint9_linear_1_980)"/>
<path d="M47.4358 264.796C49.2521 268.968 53.0982 271.215 55.9828 269.931C58.8675 268.647 59.829 264.261 58.0128 260.088C56.1965 255.915 52.3504 253.669 49.4658 254.953C46.5811 256.236 45.6196 260.623 47.4358 264.796Z" fill="url(#paint10_linear_1_980)"/>
<path d="M133.547 175.674C135.363 179.847 139.209 182.094 142.094 180.81C144.979 179.526 145.94 175.139 144.124 170.967C142.308 166.794 138.462 164.548 135.577 165.832C132.692 167.115 131.731 171.502 133.547 175.674Z" fill="white"/>
<path d="M139.103 177.814C101.282 201.78 134.936 263.084 133.761 297.962C132.906 321.178 111.538 343.646 88.5684 345.358C43.4829 348.674 9.40167 290.045 49.7863 259.874C53.4188 257.199 56.9444 263.298 53.3119 265.972C31.0897 282.556 36.2179 309.196 54.1666 326.849C76.6025 348.995 114.103 335.622 124.252 304.702C134.722 272.82 86.7521 202.528 135.47 171.716C139.316 169.255 142.842 175.353 138.996 177.814H139.103Z" fill="#A994FF"/>
</g>
<defs>
<linearGradient id="paint0_linear_1_980" x1="263.568" y1="167.651" x2="220.192" y2="167.651" gradientUnits="userSpaceOnUse">
<stop offset="0.13" stop-color="#8562F4"/>
<stop offset="1" stop-color="#530C98"/>
</linearGradient>
<linearGradient id="paint1_linear_1_980" x1="325.107" y1="236.337" x2="281.838" y2="236.337" gradientUnits="userSpaceOnUse">
<stop offset="0.13" stop-color="#8562F4"/>
<stop offset="1" stop-color="#530C98"/>
</linearGradient>
<linearGradient id="paint2_linear_1_980" x1="202.244" y1="68.1514" x2="88.6752" y2="68.1514" gradientUnits="userSpaceOnUse">
<stop offset="0.13" stop-color="#8562F4"/>
<stop offset="1" stop-color="#530C98"/>
</linearGradient>
<linearGradient id="paint3_linear_1_980" x1="83.7606" y1="208.306" x2="40.1709" y2="208.306" gradientUnits="userSpaceOnUse">
<stop offset="0.13" stop-color="#8562F4"/>
<stop offset="1" stop-color="#530C98"/>
</linearGradient>
<linearGradient id="paint4_linear_1_980" x1="43.5898" y1="243.933" x2="26.3889" y2="243.933" gradientUnits="userSpaceOnUse">
<stop offset="0.13" stop-color="#8562F4"/>
<stop offset="1" stop-color="#530C98"/>
</linearGradient>
<linearGradient id="paint5_linear_1_980" x1="290.385" y1="168.292" x2="282.906" y2="168.292" gradientUnits="userSpaceOnUse">
<stop offset="0.13" stop-color="#8562F4"/>
<stop offset="1" stop-color="#530C98"/>
</linearGradient>
<linearGradient id="paint6_linear_1_980" x1="354.167" y1="240.616" x2="345.94" y2="240.616" gradientUnits="userSpaceOnUse">
<stop offset="0.13" stop-color="#8562F4"/>
<stop offset="1" stop-color="#530C98"/>
</linearGradient>
<linearGradient id="paint7_linear_1_980" x1="234.509" y1="325.458" x2="191.132" y2="325.458" gradientUnits="userSpaceOnUse">
<stop offset="0.13" stop-color="#8562F4"/>
<stop offset="1" stop-color="#530C98"/>
</linearGradient>
<linearGradient id="paint8_linear_1_980" x1="256.196" y1="356.699" x2="239.102" y2="356.699" gradientUnits="userSpaceOnUse">
<stop offset="0.13" stop-color="#8562F4"/>
<stop offset="1" stop-color="#530C98"/>
</linearGradient>
<linearGradient id="paint9_linear_1_980" x1="208.12" y1="188.085" x2="125.427" y2="188.085" gradientUnits="userSpaceOnUse">
<stop offset="0.13" stop-color="#8562F4"/>
<stop offset="1" stop-color="#530C98"/>
</linearGradient>
<linearGradient id="paint10_linear_1_980" x1="58.9743" y1="262.442" x2="46.5811" y2="262.442" gradientUnits="userSpaceOnUse">
<stop offset="0.13" stop-color="#8562F4"/>
<stop offset="1" stop-color="#530C98"/>
</linearGradient>
<clipPath id="clip0_1_980">
<rect width="375" height="358" fill="white" transform="matrix(-1 0 0 1 375 0)"/>
</clipPath>
</defs>
</svg>
