<?xml version="1.0" encoding="utf-8"?>
<!-- Generator: Adobe Illustrator 26.0.0, SVG Export Plug-In . SVG Version: 6.00 Build 0)  -->
<svg version="1.1" id="Calque_1" xmlns="http://www.w3.org/2000/svg" xmlns:xlink="http://www.w3.org/1999/xlink" x="0px" y="0px"
	 viewBox="0 0 606 123.7" style="enable-background:new 0 0 606 123.7;" xml:space="preserve">
<style type="text/css">
	.st0{clip-path:url(#SVGID_00000158744199938049042870000012014285550567670943_);}
	.st1{fill:none;}
	.st2{fill:#C82737;}
	.st3{fill:#E03C45;}
	.st4{clip-path:url(#SVGID_00000040542209063422177700000006439050285094643606_);}
	.st5{fill:#A7A7AA;}
	.st6{fill:#E6E7E9;}
	.st7{fill:#F37D35;}
	.st8{fill:#DBDBDB;}
	.st9{fill:#B7B7B7;}
	.st10{fill:#C6C6C6;}
	.st11{fill:none;stroke:#FFFFFF;stroke-width:8;stroke-linecap:round;stroke-miterlimit:10;}
	.st12{fill:#A8A9A8;}
	.st13{fill:#FF216A;}
	.st14{fill:#FFE0B6;}
	.st15{fill:#FFCBBB;}
	.st16{fill:#161615;}
	.st17{fill:#FFFFFF;}
	.st18{fill:none;stroke:#FFFFFF;stroke-width:9;stroke-linecap:round;stroke-linejoin:round;stroke-miterlimit:10;}
	.st19{fill:#57585C;}
	.st20{fill:#BCC0C1;}
	.st21{fill:#E74D89;}
	.st22{fill:#B2215A;}
</style>
<g>
	<g>
		<defs>
			<rect id="SVGID_1_" x="0.8" y="-238.5" width="930.3" height="903"/>
		</defs>
		<clipPath id="SVGID_00000062162572384082957420000000292140288106759336_">
			<use xlink:href="#SVGID_1_"  style="overflow:visible;"/>
		</clipPath>
		<g style="clip-path:url(#SVGID_00000062162572384082957420000000292140288106759336_);">
			<rect x="28.2" y="-238.5" class="st1" width="903" height="903"/>
			<path class="st2" d="M479.2,423.5c116.5,0,211-94.5,211-211s-94.5-211-211-211s-211,94.5-211,211S362.6,423.5,479.2,423.5z"/>
			<path class="st3" d="M417.3,459.7l149.2-54.3c3.9-1.4,7.2-4.4,8.9-8.2s2-8.2,0.5-12.1l-0.4-1.1c-0.7-2-1.8-3.8-3.2-5.3
				s-3.1-2.8-5-3.7c-1.9-0.9-3.9-1.4-6-1.5s-4.2,0.2-6.1,0.9L509,391.3c-2,0.7-4,1-6.1,0.9s-4.1-0.6-6-1.5s-3.6-2.1-5-3.6
				s-2.5-3.3-3.2-5.3c-1.4-3.9-1.2-8.3,0.5-12.1c1.8-3.8,5-6.7,8.9-8.2l68.3-24.9c3.9-1.4,7.2-4.4,8.9-8.2c1.8-3.8,2-8.1,0.5-12.1
				l-0.4-1.1c-1.4-3.9-4.4-7.2-8.2-8.9c-3.8-1.8-8.2-2-12.1-0.5l-90.3,32.9c-3.9,1.4-8.3,1.2-12.1-0.5c-3.8-1.8-6.7-5-8.2-8.9
				l-0.4-1.1c-1.4-3.9-1.2-8.3,0.5-12.1c1.8-3.8,5-6.8,8.9-8.2l79.3-28.9c3.9-1.4,7.2-4.4,8.9-8.2c1.8-3.8,2-8.2,0.5-12.1l-0.4-1.1
				c-1.4-3.9-4.4-7.2-8.2-8.9c-3.8-1.8-8.2-2-12.1-0.5L396.2,294c-3.9,1.4-8.3,1.2-12.1-0.5s-6.8-5-8.2-8.9
				c-1.4-3.9-1.2-8.3,0.5-12.1c1.8-3.8,5-6.7,8.9-8.2l103.5-37.7c3.9-1.4,7.2-4.4,8.9-8.2c1.8-3.8,2-8.2,0.5-12.1l-0.4-1.1
				c-1.4-3.9-4.4-7.1-8.2-8.9c-3.8-1.8-8.2-2-12.1-0.5l-79.3,28.8c-3.9,1.4-8.3,1.2-12.1-0.5c-3.8-1.8-6.7-5-8.2-8.9l-0.4-1.1
				c-1.4-3.9-1.2-8.3,0.5-12.1c1.8-3.8,5-6.7,8.9-8.2l112.4-40.9c2-0.7,3.8-1.8,5.3-3.2s2.8-3.1,3.7-5c0.9-1.9,1.4-3.9,1.5-6
				s-0.2-4.2-0.9-6.1c-1.4-3.9-4.4-7.1-8.2-8.9c-3.8-1.8-8.2-2-12.1-0.5L332.3,180c-2,0.7-4,1-6.1,0.9s-4.1-0.6-6-1.5
				s-3.6-2.1-5-3.7c-1.4-1.5-2.5-3.3-3.2-5.3l-0.4-1.1c-1.4-3.9-1.2-8.3,0.5-12.1c1.8-3.8,5-6.7,8.9-8.2l90.3-32.9
				c3.9-1.4,7.2-4.4,8.9-8.2c1.8-3.8,2-8.2,0.5-12.1l-0.4-1.1c-1.4-3.9-4.4-7.2-8.2-8.9s-8.2-2-12.1-0.5l-24.2,8.8
				c-3.9,1.4-8.3,1.2-12.1-0.5c-3.8-1.8-6.7-5-8.2-8.9c-1.4-3.9-1.2-8.3,0.5-12.1c1.8-3.8,5-6.7,8.9-8.2l68.3-24.9
				c3.9-1.4,7.2-4.4,8.9-8.2c1.8-3.8,2-8.2,0.5-12.1l-0.4-1.1c-1.4-3.9-4.4-7.2-8.2-8.9c-3.8-1.8-8.2-2-12.1-0.5L273,63.1
				L11.3,158.4c-3.9,1.4-7.2,4.4-8.9,8.2c-1.8,3.8-2,8.2-0.5,12.1l133.5,366.9c1.4,3.9,4.4,7.2,8.2,8.9c3.8,1.8,8.2,2,12.1,0.5
				L417.3,459.7z"/>
			<g>
				<g>
					<defs>
						<rect id="SVGID_00000106850170735848702390000003303404383614536590_" x="206" y="-9" width="270" height="380"/>
					</defs>
					<clipPath id="SVGID_00000050649086308815062480000005559896959079087509_">
						<use xlink:href="#SVGID_00000106850170735848702390000003303404383614536590_"  style="overflow:visible;"/>
					</clipPath>
					<g style="clip-path:url(#SVGID_00000050649086308815062480000005559896959079087509_);">
						<path class="st5" d="M265.2,371.3h149c10.7,0,19.5-8.8,19.5-19.5V209.9c0-10.7-8.8-19.5-19.5-19.5h-149
							c-10.7,0-19.5,8.8-19.5,19.5v141.9C245.7,362.5,254.5,371.3,265.2,371.3z"/>
						<path class="st6" d="M338.5,397c-41.7,0-75.8-34.1-75.8-75.8V214.9h151.6v106.3C414.3,362.9,380.2,397,338.5,397z"/>
						<path class="st7" d="M338.5,241.7c-41.5,0-75.8-18.1-75.8-26.8s7.1-15.8,15.8-15.8h120c8.7,0,15.8,7.1,15.8,15.8
							C414.3,223.6,380.1,241.7,338.5,241.7z"/>
						<path class="st8" d="M339.5,224c48.3,0,87.5-39.2,87.5-87.5S387.8,49,339.5,49S252,88.2,252,136.5S291.2,224,339.5,224z"/>
						<path class="st9" d="M326.1,56.1c1-7.9,24.9-4.7,23.9,3.1c-1,7.9-7.4,12.1-14,11.2C329.4,69.6,325,64,326.1,56.1z"/>
						<path class="st10" d="M330.1,57.9c0.7-5.1,16.2-3.1,15.5,2s-4.8,7.8-9.1,7.3C332.2,66.6,329.4,63,330.1,57.9z"/>
						<path class="st11" d="M338.2,58.9l9.1-41.6"/>
						<path class="st12" d="M338.7,87.4c0,0-57.5-1.5-74.5,46.2c8,30.1,1.2,38.3,28.9,55.2c27.7,16.9,67.8,9,67.8,9
							s37.4-14.7,41-24.7c3.6-10.1,13.4-34.8,10.4-40.8s-8.8-35.4-25.5-35.4c-16.8-0.1-47.1-9.5-47.1-9.5H338.7z"/>
						<rect x="310" y="-18" class="st1" width="75" height="76"/>
						<rect x="322" y="-5" class="st1" width="50" height="50"/>
						<path class="st13" d="M348.4,29.2c5.1-0.7,8.8-5.4,8.1-10.5c-0.7-5.1-5.4-8.8-10.5-8.1s-8.8,5.4-8.1,10.5
							C338.6,26.3,343.3,29.9,348.4,29.2z"/>
						
							<rect x="337.5" y="10.2" transform="matrix(0.9914 -0.1306 0.1306 0.9914 0.3731 45.516)" class="st1" width="19.4" height="19.4"/>
						
							<rect x="337.5" y="10.2" transform="matrix(0.9914 -0.1306 0.1306 0.9914 0.3731 45.516)" class="st1" width="19.4" height="19.4"/>
						<path class="st14" d="M402.6,148.3c0-33.3-28.1-60.3-62.9-60.3s-62.9,27-62.9,60.3s28.1,55.3,62.9,55.3
							S402.6,181.7,402.6,148.3z"/>
						<path class="st15" d="M360.3,147.9c2,0,3.6-1.6,3.6-3.6s-1.6-3.6-3.6-3.6s-3.6,1.6-3.6,3.6
							C356.7,146.3,358.3,147.9,360.3,147.9z"/>
						<path class="st15" d="M316.3,147.9c2,0,3.6-1.6,3.6-3.6s-1.6-3.6-3.6-3.6s-3.6,1.6-3.6,3.6
							C312.7,146.3,314.3,147.9,316.3,147.9z"/>
						<path class="st16" d="M321.2,145c3.9,0,7.1-3.2,7.1-7.1c0-3.9-3.2-7.1-7.1-7.1s-7.1,3.2-7.1,7.1S317.3,145,321.2,145z"/>
						<path class="st17" d="M318.9,138.2c1.3,0,2.3-1,2.3-2.3s-1-2.3-2.3-2.3s-2.3,1-2.3,2.3S317.6,138.2,318.9,138.2z"/>
						<path class="st17" d="M323.9,141.9c0.6,0,1-0.4,1-1s-0.4-1-1-1s-1,0.4-1,1S323.3,141.9,323.9,141.9z"/>
						<path class="st16" d="M353.8,145c3.9,0,7.1-3.2,7.1-7.1c0-3.9-3.2-7.1-7.1-7.1s-7.1,3.2-7.1,7.1
							C346.7,141.8,349.9,145,353.8,145z"/>
						<path class="st17" d="M351.5,138.2c1.3,0,2.3-1,2.3-2.3s-1-2.3-2.3-2.3s-2.3,1-2.3,2.3S350.2,138.2,351.5,138.2z"/>
						<path class="st17" d="M356.5,141.9c0.6,0,1-0.4,1-1s-0.4-1-1-1s-1,0.4-1,1S355.9,141.9,356.5,141.9z"/>
						<path class="st15" d="M338.6,162.9c-2.4,0-4.4-2-4.4-4.4v-9.3c0-2.4,2-4.4,4.4-4.4s4.4,2,4.4,4.4v9.3
							C343,160.9,341,162.9,338.6,162.9z"/>
						<path class="st17" d="M352.7,170.5c0,7.8-6.3,14.1-14.1,14.1c-7.8,0-14.1-6.3-14.1-14.1C333.8,170.5,340.4,170.5,352.7,170.5z
							"/>
						<path class="st18" d="M265.8,136.1c5.7,48.2,26.4,59.4,73.9,65.4h-0.4h-0.5c47.5-6,68.7-16.9,73.7-65.1V135
							c-3-48.3-73.9-47.5-73.8-47.5h1c0.2,0-71-0.8-73.9,47.5"/>
						<path class="st19" d="M256.8,150.6h6.8c-1.9-9.7-1.7-19.7,0.5-29.3l0.2-0.8h-7.5c-3.9,0-7.1,3.2-7.1,7.1v15.7
							C249.7,147.4,252.9,150.6,256.8,150.6z"/>
						<path class="st7" d="M248.7,129.3c-0.6,0-1,0.5-1,1v10.4c0,0.6,0.5,1,1,1c2.1,0,3.8-1.7,3.8-3.8v-4.8
							C252.5,131.1,250.8,129.3,248.7,129.3z"/>
						<path class="st19" d="M421.6,150.6h-7l0.6-9.1c0.3-3.7,0.3-7.5,0-11.2l-1.1-9.7h7.4c3.9,0,7.1,3.2,7.1,7.1v15.7
							C428.7,147.4,425.5,150.6,421.6,150.6z"/>
						<path class="st7" d="M429.7,129.3c0.6,0,1,0.5,1,1v10.4c0,0.6-0.5,1-1,1c-2.1,0-3.8-1.7-3.8-3.8v-4.8
							C425.9,131.1,427.6,129.3,429.7,129.3z"/>
						<path class="st6" d="M452.3,372.5h-38V216.1h1.9c19.9,0,36.1,26.2,36.1,46.1V372.5z"/>
						<path class="st6" d="M225.4,372.5h38V216.1h-1.9c-19.9,0-36.1,26.2-36.1,46.1V372.5z"/>
						<path class="st20" d="M413.7,280.8c-4.7,0-8.5-3.8-8.5-8.5v-53.1c0-4.7,3.8-8.5,8.5-8.5h0.1c4.7,0,8.5,3.8,8.5,8.5v53.1
							C422.2,277,418.4,280.8,413.7,280.8z"/>
						<path class="st20" d="M262.8,280.8c-4.7,0-8.5-3.8-8.5-8.5v-53.1c0-4.7,3.8-8.5,8.5-8.5h0.1c4.7,0,8.5,3.8,8.5,8.5v53.1
							C271.2,277,267.4,280.8,262.8,280.8z"/>
					</g>
				</g>
			</g>
			<path class="st21" d="M347.3,7.8c5.7,0,10.3,4.6,10.3,10.3s-4.6,10.3-10.3,10.3c-5.7,0-10.3-4.6-10.3-10.3S341.7,7.8,347.3,7.8z"
				/>
			<path class="st22" d="M347.3,29.1c-6.1,0-11-4.9-11-11s4.9-11,11-11s11,4.9,11,11C358.3,24.1,353.4,29.1,347.3,29.1z M356.6,19.6
				c-0.3-0.1-2.9-0.9-5.9-0.4c1.2,3.4,1.7,6.1,1.8,6.7C354.7,24.4,356.2,22.2,356.6,19.6z M351,26.7c-0.1-0.8-0.7-3.7-2-7.1
				c0,0,0,0-0.1,0c-5.3,1.8-7.2,5.5-7.4,5.9c1.6,1.2,3.6,2,5.8,2C348.6,27.5,349.9,27.2,351,26.7z M340.4,24.4
				c0.2-0.4,2.8-4.6,7.6-6.2c0.1,0,0.2-0.1,0.4-0.1c-0.2-0.5-0.5-1.1-0.8-1.6c-4.7,1.4-9.2,1.3-9.7,1.3c0,0.1,0,0.2,0,0.3
				C338,20.5,338.9,22.7,340.4,24.4z M338.1,16.1c0.4,0,4.3,0,8.7-1.1c-1.6-2.8-3.2-5.1-3.5-5.4C340.7,10.8,338.8,13.2,338.1,16.1z
				 M345.1,8.9c0.3,0.3,2,2.7,3.5,5.5c3.3-1.3,4.8-3.1,4.9-3.4c-1.7-1.5-3.8-2.4-6.2-2.4C346.6,8.7,345.8,8.8,345.1,8.9z
				 M354.6,12.1c-0.2,0.3-1.8,2.3-5.2,3.7c0.2,0.4,0.4,0.9,0.6,1.4c0.1,0.2,0.1,0.3,0.2,0.5c3.1-0.4,6.2,0.2,6.5,0.3
				C356.7,15.8,355.9,13.7,354.6,12.1z"/>
		</g>
	</g>
</g>
</svg>
